<svg xmlns="http://www.w3.org/2000/svg" width="284" height="943" fill="none" viewBox="0 0 284 943">
  <g clip-path="url(#clip0_242_6)">
    <path fill="#C08248" d="M142.444 140.864C141.744 401.153 144.069 661.778 151 921H127.386C122.295 664.301 122.95 407.097 129.35 150.579C133.504 149.681 138.29 141.763 142.444 140.864Z" />
    <path fill="#CF8B4D" d="M132.691 138C132.533 398.345 133.053 658.914 134.61 918.136H129.305C128.154 661.666 128.312 403.848 129.757 147.715C130.682 146.817 131.766 138.899 132.691 138Z" />
    <path fill="#AA743F" d="M124.045 537.839C130.315 547.954 137.103 555.925 144.227 561.538C144.227 558.674 144.227 555.922 144.114 552.946C137.021 546.925 130.286 538.558 124.09 528.068C124.068 531.325 124.067 534.582 124.045 537.839Z" />
    <path fill="#AA743F" d="M145.717 669.472L145.582 660.655C138.538 669.079 131.088 675.593 124.316 684.915C124.316 688.06 124.316 691.149 124.316 694.237C131.043 684.185 138.561 677.615 145.717 669.472Z" />
    <path fill="#AA743F" d="M124.564 718.778C132.082 728.044 139.442 737.984 147.14 746.857C147.14 743.712 147.004 740.567 146.959 737.422C139.419 728.493 132.082 718.778 124.587 709.681L124.564 718.778Z" />
    <path fill="#AA743F" d="M124.068 623.03C131.969 631.622 138.132 648.75 145.559 660.094C145.559 656.781 145.446 653.467 145.401 650.154C138.245 638.192 132.059 622.075 124.045 614.157C124.045 616.909 124.068 619.885 124.068 623.03Z" />
    <path fill="#AA743F" d="M144.408 576.363C144.408 573.443 144.408 570.748 144.408 567.659C137.449 574.059 130.663 581.562 124.09 590.122V599.444C130.6 590.39 137.395 582.671 144.408 576.363Z" />
    <path fill="#AA743F" d="M126.46 289.905C128.492 280.695 133.391 275.754 136.868 270.531C138.392 268.273 139.822 265.639 141.134 262.669C141.594 261.636 142.01 260.488 142.376 259.243C142.376 255.032 142.376 250.764 142.376 246.552C141.878 247.714 141.417 248.972 140.999 250.314C139.142 256.21 136.842 261.151 134.226 264.859C131.601 268.359 129.074 272.3 126.664 276.652C126.619 281.089 126.528 285.469 126.46 289.905Z" />
    <path fill="#AA743F" d="M147.072 747.474C139.547 757.021 132.24 767.241 125.151 778.136C125.151 781.337 125.151 784.482 125.264 787.683C132.413 776.451 139.742 766.081 147.252 756.572C147.185 753.539 147.117 750.507 147.072 747.474Z" />
    <path fill="#AA743F" d="M126.551 876.243C126.551 879.275 126.664 882.308 126.709 885.34L127.68 883.992C134.949 873.884 141.586 859.564 149.284 851.365C149.171 847.041 149.059 842.717 148.968 838.449C141.135 827.217 132.15 817.502 125.467 802.845L125.603 813.515C132.127 825.701 140.096 834.349 147.117 844.795C140.615 852.32 134.926 863.776 128.741 872.873L126.551 876.243Z" />
    <path fill="#AA743F" d="M143.076 440.687C137.056 435.147 130.93 430.148 124.7 425.693V434.173C130.961 438.741 137.131 443.851 143.211 449.504C143.144 446.584 143.098 443.608 143.076 440.687Z" />
    <path fill="#AA743F" d="M143.415 479.211C143.415 476.291 143.415 473.595 143.415 470.507C136.786 477.001 130.396 484.912 124.316 494.149C124.316 497.406 124.316 500.663 124.316 503.921C130.375 494.29 136.766 486.021 143.415 479.211Z" />
    <path fill="#AA743F" d="M142.602 354.542C142.602 350.723 142.602 346.961 142.602 343.311C137.502 332.407 131.973 322.812 126.099 314.67L125.964 324.049C131.917 332.221 137.412 342.303 142.308 354.037C142.402 354.218 142.5 354.387 142.602 354.542Z" />
    <path fill="#AA743F" d="M142.715 376.724C142.715 373.524 142.715 370.323 142.715 367.065C136.474 376.875 130.549 387.878 124.993 399.973C124.993 403.624 124.993 407.33 124.88 411.205C130.484 398.661 136.445 387.137 142.715 376.724Z" />
    <path fill="#BE8146" d="M132.872 440.575V432.095L128.741 428.951V437.543L132.872 440.575Z" />
    <path fill="#BE8146" d="M132.963 491.341C132.963 488.252 132.963 485.22 132.963 482.131C131.518 483.928 130.073 485.782 128.673 487.747C128.673 490.892 128.673 494.093 128.673 497.238C130.073 495.216 131.503 493.25 132.963 491.341Z" />
    <path fill="#BE8146" d="M133.075 550.418C133.075 547.33 133.075 544.297 133.075 541.209C131.563 539.243 130.05 537.165 128.56 535.031V544.41C130.163 546.6 131.563 548.565 133.075 550.418Z" />
    <path fill="#BE8146" d="M132.804 394.526C132.804 391.045 132.804 387.619 132.804 384.137C131.472 386.72 130.14 389.304 128.831 391.943V402.613C130.125 399.805 131.45 397.11 132.804 394.526Z" />
    <path fill="#BE8146" d="M132.714 334.606V324.779L129.012 319.163C129.012 322.364 129.012 325.565 129.012 328.766C130.163 330.507 131.472 332.585 132.714 334.606Z" />
    <path fill="#BE8146" d="M132.714 267.105C131.54 268.734 130.456 270.419 129.215 272.272C129.215 275.585 129.215 278.899 129.215 282.268C130.32 280.06 131.498 278.088 132.737 276.371C132.691 273.283 132.714 270.194 132.714 267.105Z" />
    <path fill="#BE8146" d="M134.159 826.993C134.159 824.016 134.159 820.984 134.159 818.008C132.375 815.368 130.66 812.392 129.012 809.64C129.012 812.897 129.012 816.098 129.012 819.299C130.66 821.995 132.421 824.578 134.159 826.993Z" />
    <path fill="#BE8146" d="M133.21 587.819C133.21 584.899 133.21 581.923 133.21 579.002C131.675 580.687 130.14 582.428 128.695 584.225V593.21C130.155 591.301 131.66 589.504 133.21 587.819Z" />
    <path fill="#BE8146" d="M133.662 730.29C133.662 727.202 133.662 724.113 133.662 721.024L128.718 714.847C128.718 717.88 128.718 720.912 128.718 723.945L133.662 730.29Z" />
    <path fill="#BE8146" d="M134.34 864.057C132.624 866.864 130.908 869.672 129.17 872.368C129.17 875.513 129.17 878.657 129.17 881.746C130.931 879.163 132.646 876.411 134.362 873.547C134.362 870.121 134.362 867.201 134.34 864.057Z" />
    <path fill="#BE8146" d="M133.888 774.654C133.888 771.509 133.888 768.365 133.888 765.22C132.217 767.578 130.547 770.049 128.876 772.52C128.876 775.721 128.876 778.922 128.876 782.123L133.888 774.654Z" />
    <path fill="#BE8146" d="M133.504 682.725C133.504 679.805 133.504 677.109 133.504 673.964C131.879 675.705 130.276 677.558 128.673 679.58C128.673 682.556 128.673 685.589 128.673 688.565C130.163 686.431 131.879 684.803 133.504 682.725Z" />
    <path fill="#BE8146" d="M133.368 637.238C133.368 633.868 133.368 630.555 133.368 627.242C131.856 624.49 130.276 621.907 128.673 619.548V628.983C130.163 631.51 131.811 634.261 133.368 637.238Z" />
    <path fill="#AA743F" d="M142.376 193.09C140.264 191.184 138.065 189.939 135.829 189.384C133.203 188.946 130.585 190.535 128.334 193.932C127.996 208.702 127.702 223.471 127.409 238.296C127.697 241.731 127.62 245.293 127.183 248.629C127.183 249.472 127.183 250.258 127.183 251.1L132.308 252.729L132.917 285.693C134.883 309.807 135.287 334.547 134.114 358.978L137.319 364.931L143.753 920.887H151.045C144.543 679.187 142.105 436.026 142.376 193.09Z" />
    <path fill="#906335" d="M142.715 376.725C142.715 374.759 142.715 372.85 142.715 371.109C142.715 369.368 142.715 368.582 142.715 367.29C140.931 370.042 139.17 372.906 137.432 375.995C137.432 379.252 137.432 382.565 137.432 385.822C139.193 382.565 140.954 379.532 142.715 376.725Z" />
    <path fill="#906335" d="M134.678 337.92C137.399 342.662 139.938 348.02 142.263 353.924C142.37 354.148 142.484 354.355 142.602 354.542C142.602 350.724 142.602 346.961 142.602 343.311C140.135 337.771 137.509 332.684 134.746 328.092C134.678 331.293 134.678 334.607 134.678 337.92Z" />
    <path fill="#906335" d="M143.144 449.504C143.144 446.584 143.144 443.607 143.144 440.687C141.496 439.171 139.825 437.823 138.155 436.363C138.155 439.283 138.155 441.979 138.155 445.18C139.848 446.584 141.451 447.988 143.144 449.504Z" />
    <path fill="#906335" d="M143.415 479.211C143.415 476.347 143.415 473.595 143.415 470.507C141.812 472.079 140.209 473.764 138.651 475.505C138.651 478.481 138.651 481.121 138.651 484.378C140.232 482.637 141.812 480.84 143.415 479.211Z" />
    <path fill="#906335" d="M148.969 838.449C146.914 835.473 144.792 832.833 142.647 829.745C142.647 832.721 142.647 835.697 142.76 838.674C144.228 840.639 145.695 842.661 147.117 844.795C145.672 846.479 144.273 848.333 142.896 850.41C142.896 853.443 142.896 856.532 143.009 859.62C145.018 856.513 147.116 853.773 149.284 851.421C149.172 847.041 149.059 842.773 148.969 838.449Z" />
    <path fill="#906335" d="M136.936 270.531C138.46 268.273 139.89 265.639 141.202 262.669C141.662 261.636 142.078 260.488 142.444 259.243C142.444 255.032 142.444 250.764 142.444 246.552C141.946 247.714 141.485 248.972 141.067 250.314C139.21 256.21 136.91 261.151 134.294 264.859C133.73 265.701 133.166 266.544 132.579 267.33C132.579 270.362 132.692 273.339 132.737 276.371C134.136 274.293 135.581 272.44 136.936 270.531Z" />
    <path fill="#906335" d="M147.253 756.572C147.253 753.539 147.117 750.507 147.072 747.474C145.289 749.72 143.55 752.191 141.79 754.55C141.79 757.639 141.79 760.727 141.79 763.816C143.708 761.401 145.447 758.874 147.253 756.572Z" />
    <path fill="#906335" d="M147.049 746.576C147.049 743.431 146.914 740.286 146.869 737.141C145.063 735.007 143.279 732.761 141.519 730.571C141.519 733.716 141.519 736.86 141.519 740.061L147.049 746.576Z" />
    <path fill="#906335" d="M145.718 669.472L145.582 660.655C143.979 662.565 142.376 664.362 140.751 666.271C140.751 669.135 140.751 671.887 140.751 674.919C142.489 673.066 144.115 671.269 145.718 669.472Z" />
    <path fill="#906335" d="M145.559 659.925C145.559 656.612 145.446 653.242 145.378 649.929C143.708 647.121 142.082 644.313 140.457 640.944L140.592 651.277C142.186 654.374 143.844 657.261 145.559 659.925Z" />
    <path fill="#906335" d="M144.227 561.538C144.227 558.674 144.228 555.922 144.115 552.946C142.534 551.654 140.954 550.138 139.396 548.565C139.396 551.542 139.396 554.518 139.396 557.438C141.067 558.955 142.625 560.358 144.227 561.538Z" />
    <path fill="#906335" d="M144.408 576.363C144.408 573.443 144.408 570.748 144.408 567.659L139.893 572.264V580.912L144.408 576.363Z" />
  </g>
  <g clip-path="url(#clip1_242_6)">
    <path fill="#72B942" d="M142.658 124.796C164.994 114.422 189.494 109.576 214.093 110.668C238.691 111.759 262.667 118.756 284 131.069C279.082 119.482 270.301 109.964 259.155 104.14C260.137 103.324 257.423 103.743 258.383 102.906C257.261 104.578 255.674 105.883 253.818 106.66C251.963 107.437 249.92 107.651 247.944 107.276L259.009 98.683C254.463 98.7083 250.108 100.517 246.879 103.722C247.679 101.594 248.896 99.648 250.46 97.9997C252.023 96.3513 253.901 95.0338 255.982 94.1252C249.113 88.522 236.962 92.5362 234.749 101.129L243.831 87.8529C236.823 91.5671 230.549 96.5261 225.312 102.488C224.85 95.1014 226.984 87.7856 231.346 81.8107C219.277 79.6833 206.893 80.1537 195.019 83.1906L194.831 102.718L189.048 81.8107C177.51 84.5857 167.007 90.6101 158.779 99.172C150.551 107.734 144.942 118.476 142.616 130.128C143.179 129.647 142.24 125.277 142.658 124.796Z" />
    <path fill="#65A23A" d="M142.658 124.796C142.49 125.405 142.49 126.048 142.658 126.657L143.68 126.176C143.868 125.465 144.077 124.754 144.307 124.085L142.658 124.796Z" />
    <path fill="#65A23A" d="M284 131.131C283.267 129.416 282.445 127.741 281.536 126.113C269.965 116.106 255.582 109.934 240.365 108.446L242.453 105.248L232.014 106.251L233.455 99.6445C231.075 102.362 227.442 104.432 223.956 103.512C220.469 102.592 218.402 97.5538 221.095 95.1494C219.468 95.9535 218.023 97.0852 216.852 98.4738C215.681 99.8624 214.808 101.478 214.289 103.22C211.149 102.708 207.931 103.003 204.936 104.077C204.338 101.112 204.681 98.0344 205.917 95.2749C204.594 95.1805 203.265 95.3764 202.025 95.8488C200.785 96.3213 199.663 97.059 198.736 98.0105C197.81 98.9619 197.102 100.104 196.662 101.358C196.222 102.611 196.06 103.946 196.188 105.269L191.157 101.233C190.502 101.567 190 102.137 189.752 102.829C189.503 103.52 189.528 104.281 189.82 104.955L168.128 106.314C168.943 103.199 169.757 100.042 170.55 96.9892C160.767 104.019 152.091 112.476 144.808 122.078L144.933 121.535C144.662 122.35 144.411 123.186 144.182 124.023C166.383 114.03 190.637 109.464 214.946 110.699C239.256 111.935 262.924 118.938 284 131.131Z" />
    <path fill="#9EC75A" d="M153.535 105.582C163.13 98.9871 173.697 93.936 184.851 90.6126L195.729 104.328C195.937 99.6307 196.153 94.9265 196.376 90.2154C206.221 87.8773 216.283 86.574 226.398 86.3267C225.247 89.542 224.98 93.0081 225.626 96.3622C226.319 91.1323 228.307 86.1589 231.409 81.8942C219.339 79.7668 206.955 80.2372 195.081 83.2741L194.893 102.802L189.11 81.8942C174.809 85.2867 162.191 93.6886 153.535 105.582Z" />
    <path fill="#9EC75A" d="M258.237 103.22L258.425 102.948C258.299 103.074 258.237 103.157 258.237 103.22Z" />
    <path fill="#9EC75A" d="M247.213 103.554L247.965 108.572C262.073 111.485 274.714 119.261 283.687 130.546C283.677 130.505 283.677 130.462 283.687 130.42C278.725 119.126 270.074 109.858 259.155 104.14C259.991 103.429 258.07 103.638 258.195 103.178C257.066 104.764 255.513 105.998 253.714 106.738C251.915 107.478 249.944 107.693 248.028 107.36L259.093 98.7666C254.669 98.7935 250.422 100.505 247.213 103.554V103.554Z" />
    <path fill="#9EC75A" d="M239.301 94.6894C240.846 92.4314 242.391 90.1525 243.956 87.8945C237.664 91.2391 231.96 95.5892 227.066 100.774C227.338 101.338 227.609 101.902 227.922 102.446C230.085 99.8622 232.776 97.7733 235.814 96.3202C235.814 97.6165 235.668 98.9336 235.605 100.23L246.337 97.6165C246.608 99.519 246.9 101.422 247.172 103.324C248.856 99.2294 252.058 95.9473 256.107 94.1668C251.347 90.2989 244.082 91.0306 239.301 94.6894Z" />
    <path fill="#72B942" d="M250.449 170.583C259.095 171.185 267.537 173.487 275.294 177.357C267.619 162.953 257.057 150.29 244.269 140.163L237.38 148.066L241.952 137.299L235.438 131.717L228.883 138.741L233.559 127.89L218.778 116.203L204.873 124.733L208.193 114.593C201.742 108.907 189.403 109.576 185.352 115.848L189.048 105.394C185.599 103.61 181.79 102.633 177.909 102.539C174.029 102.445 170.177 103.235 166.646 104.851C163.61 106.293 161.125 108.683 159.562 111.661C158 114.64 157.445 118.046 157.982 121.367C150.278 120.071 142.762 124.524 140.987 130.629C139.213 136.734 142.595 143.885 148.545 148.484C154.9 153.038 162.527 155.467 170.341 155.426C169.15 151.994 169.009 148.285 169.935 144.773C170.861 141.261 172.813 138.105 175.54 135.71C176.208 142.296 176.876 148.861 177.628 155.446L196.418 159.314C194.909 153.008 195.896 146.362 199.174 140.769C199.988 146.582 200.823 152.394 201.637 158.206L218.987 163.349L221.429 150.345C220.531 159.586 230.636 169.413 241.889 170.228C241.68 168.167 242.061 166.089 242.99 164.237C243.918 162.385 245.354 160.837 247.13 159.774C248.111 163.454 249.28 167.029 250.449 170.583Z" />
    <path fill="#65A23A" d="M244.27 140.163L237.38 148.066L241.952 137.299L235.439 131.716L228.883 138.741L233.56 127.89L221.847 118.628L224.102 122.81C225.667 125.293 226.665 128.092 227.025 131.006C227.163 132.461 226.833 133.922 226.081 135.175C225.33 136.428 224.197 137.407 222.849 137.968C220.386 138.7 217.797 137.424 215.542 136.191L195.479 125.277C196.856 132.511 198.339 140.038 202.765 145.913C206.94 151.411 214.456 154.966 220.824 152.77C220.991 151.955 221.137 151.16 221.283 150.366C221.221 151.103 221.221 151.845 221.283 152.582C221.555 152.457 221.826 152.373 222.098 152.227C225.195 157.72 228.825 162.895 232.933 167.677C232.941 167.712 232.941 167.747 232.933 167.782C235.643 169.156 238.592 169.993 241.618 170.249C241.409 168.188 241.79 166.109 242.718 164.258C243.647 162.406 245.083 160.858 246.859 159.795C248.007 163.349 249.176 166.925 250.345 170.479C258.991 171.08 267.433 173.382 275.19 177.253C267.534 162.896 257.009 150.27 244.27 140.163V140.163Z" />
    <path fill="#5D9536" d="M241.723 170.311C241.545 168.575 241.795 166.821 242.45 165.203C243.105 163.585 244.146 162.152 245.48 161.029C244.96 160.953 244.465 160.756 244.033 160.455C243.602 160.154 243.247 159.756 242.996 159.293C240.876 159.718 238.692 159.7 236.579 159.24C234.467 158.78 232.472 157.888 230.72 156.62C228.967 155.352 227.496 153.736 226.396 151.871C225.297 150.007 224.594 147.936 224.331 145.787C222.742 147.637 220.841 149.193 218.715 150.387C217.654 150.984 216.457 151.297 215.239 151.297C214.022 151.297 212.824 150.984 211.763 150.387C210.554 149.456 209.563 148.271 208.861 146.916L201.47 134.79C200.74 133.441 199.787 132.225 198.652 131.194C197.128 129.96 196.564 126.636 194.81 125.946C189.196 123.708 183.846 120.854 178.86 117.437C176.359 115.852 173.568 114.784 170.649 114.296C167.731 113.808 164.744 113.909 161.865 114.593C169.63 109.366 178.598 106.207 187.921 105.415C187.619 105.088 187.291 104.788 186.939 104.516C183.713 103.175 180.246 102.516 176.753 102.581C173.261 102.646 169.82 103.433 166.646 104.892C163.611 106.334 161.125 108.724 159.562 111.703C158 114.682 157.445 118.088 157.982 121.409C155.317 120.978 152.588 121.201 150.027 122.057C150.316 122.955 150.657 123.835 151.05 124.692C153.383 129.022 155.969 133.211 158.796 137.236C162.387 143.027 165.059 149.425 168.108 155.446C168.859 155.446 169.59 155.551 170.341 155.551C169.15 152.12 169.009 148.41 169.935 144.898C170.861 141.386 172.813 138.23 175.54 135.835C176.208 142.421 176.876 148.986 177.628 155.572L196.418 159.44C194.909 153.134 195.896 146.487 199.174 140.895C199.988 146.707 200.823 152.519 201.637 158.332L218.987 163.475L221.429 150.47C220.365 159.67 230.469 169.496 241.723 170.311Z" />
    <path fill="#5D9536" d="M151.927 106.23L157.606 108.509C161.218 109.952 166.396 112.043 172.534 114.677C184.831 119.904 201.053 127.326 216.774 135.752C220.699 137.842 224.603 139.933 228.382 142.233L233.998 145.515L239.405 148.881C242.996 150.972 246.274 153.377 249.489 155.467C252.704 157.558 255.606 159.649 258.216 161.739C260.826 163.83 263.31 165.607 265.356 167.405C267.402 169.203 269.281 170.625 270.659 172.005L275.148 176.187L270.576 172.13C269.156 170.792 267.256 169.371 265.168 167.656C263.08 165.942 260.596 164.165 257.903 162.179C255.21 160.192 252.203 158.248 249.071 156.074C245.94 153.899 242.474 151.892 238.862 149.801L233.413 146.603L227.839 143.383C223.997 141.292 220.072 139.201 216.106 137.111C200.28 129.082 183.954 122.078 171.573 117.144C165.31 114.656 160.237 112.712 156.583 111.353L150.842 109.262C150.441 109.107 150.117 108.802 149.938 108.412C149.759 108.021 149.738 107.576 149.881 107.171C150.032 106.767 150.336 106.439 150.727 106.259C151.118 106.078 151.565 106.061 151.969 106.209L151.927 106.23Z" />
    <path fill="#72B942" d="M243.726 53.8154L246.524 44.3653C240.216 42.0306 233.701 40.3015 227.066 39.2012C221.385 45.07 216.269 51.461 211.784 58.2896C212.18 52.1429 212.598 45.9752 212.994 39.8075H212.827C203.119 42.4209 194.392 50.8884 195.207 60.8403C194.998 56.8261 194.81 52.8328 194.601 48.8395C190 50.942 186.366 54.7119 184.429 59.3903C182.492 64.0686 182.397 69.308 184.162 74.0538L176.333 62.0948L165.539 71.6494C167.23 76.2072 168.942 80.7441 170.654 85.302L163.535 75.4337C157.522 79.6151 157.815 90.0689 164.057 93.9367L153.618 88.6472C145.953 99.8651 139.593 111.923 134.661 124.587L151.718 126.678C170.343 94.6743 199.833 70.4401 234.812 58.3941C248.466 53.7527 263.686 51.1184 277.11 56.3034C269.594 46.1424 252.746 44.888 243.726 53.8154Z" />
    <path fill="#65A23A" d="M271.682 51.3069C269.268 50.8715 266.826 50.6129 264.375 50.5333C257.979 50.5095 251.599 51.1471 245.334 52.4359C244.776 52.8612 244.246 53.3221 243.747 53.8158L244.102 52.645L242.015 53.0422C242.606 51.2572 243.632 49.6478 245 48.359C238.667 47.4942 232.218 48.2614 226.263 50.5882C220.308 52.915 215.044 56.7243 210.969 61.6561C210.656 56.8474 210.364 52.0387 210.051 47.23C203.511 52.5325 198.968 59.9058 197.169 68.1374C195.79 66.6744 194.771 64.9085 194.194 62.9808C193.618 61.0531 193.5 59.0171 193.85 57.0356C193.072 58.2965 192.041 59.3823 190.823 60.2244C189.605 61.0664 188.225 61.6464 186.772 61.9279L186.396 82.3544C183.821 81.5144 181.535 79.9646 179.799 77.8826C178.063 75.8006 176.949 73.2709 176.584 70.5836L168.922 79.971C170.949 82.7809 172.07 86.1436 172.137 89.6093C170.07 90.1473 167.897 90.1166 165.847 89.5204C163.796 88.9243 161.945 87.7848 160.487 86.2223L160.362 89.3166C161.132 91.2076 162.476 92.809 164.203 93.8953L160.236 91.8046C160.236 92.0136 160.236 92.2436 160.236 92.4736C159.932 92.0092 159.567 91.5873 159.151 91.2192L155.706 89.4838C154.917 89.3192 154.111 89.2491 153.305 89.2748C146.647 99.1397 140.989 109.645 136.415 120.636C136.471 121.481 136.757 122.295 137.243 122.988C137.729 123.681 138.396 124.227 139.171 124.566C141.426 125.277 143.576 123.354 145.204 121.618C154.951 111.179 165.786 101.815 177.523 93.6862C193.808 77.7917 213.41 65.7101 234.916 58.3109C248.57 53.6694 263.79 51.0351 277.215 56.2201C275.701 54.2433 273.823 52.5755 271.682 51.3069V51.3069Z" />
    <path fill="#65A23A" d="M131.175 77.6711L122.511 87.2258C128.962 80.8491 124.181 68.4092 114.807 67.1547C113.679 71.0644 112.531 74.9741 111.404 78.8838C112.463 71.3631 111.354 63.696 108.209 56.7847L91.2358 50.9306C91.2358 55.0075 91.1314 59.0844 91.0897 63.1614C88.4382 51.3905 76.0159 43.153 63.2179 40.7487C50.4198 38.3443 37.2042 40.5814 24.3853 42.8394C75.3478 52.645 119.734 87.7694 138.002 132.741C140.608 130.5 142.473 127.518 143.349 124.191C144.226 120.865 144.072 117.35 142.908 114.113L134.16 118.545L144.599 111.75C144.224 105.833 143.848 99.9375 143.451 94.0207C138.965 95.5538 134.967 98.2522 131.864 101.84L142.136 91.5118C140.247 85.7372 136.359 80.8286 131.175 77.6711V77.6711Z" />
    <path fill="#5D9536" d="M143.388 93.9788C140.072 95.1184 137.008 96.8937 134.369 99.2056L142.073 91.4699C140.184 85.7241 136.323 80.8349 131.175 77.671L122.51 87.2257C127.709 82.0824 125.6 72.9877 119.671 69.0153C119.497 69.1298 119.336 69.2631 119.191 69.4126C120.518 72.7521 120.883 76.3974 120.244 79.9344C119.606 83.4713 117.99 86.758 115.579 89.4209C92.7113 64.8139 62.386 48.4357 29.2913 42.8184L26.9947 42.3584L24.5103 42.7974H24.6773C75.5146 52.6866 119.775 87.7483 138.002 132.699C140.608 130.458 142.473 127.476 143.349 124.149C144.225 120.823 144.071 117.308 142.908 114.071L134.16 118.503L144.599 111.708C144.161 105.791 143.785 99.9583 143.388 93.9788Z" />
    <path fill="#72B942" d="M140.382 125.361C137.791 113.788 131.82 103.25 123.227 95.0881C114.634 86.9265 103.81 81.5111 92.1335 79.5317C91.7786 87.8947 91.3193 96.9685 90.9644 105.311C90.5051 96.2576 85.1395 87.2047 80.1914 79.6362L61.13 80.2217L74.8258 101.756C70.844 94.9289 64.7169 89.614 57.4011 86.6411C50.0852 83.6683 41.9923 83.2048 34.3857 85.3231C37.7556 87.0149 40.7408 89.3846 43.1548 92.2841C45.5688 95.1836 47.3597 98.5505 48.4155 102.174C43.732 96.3103 37.7587 91.6093 30.9617 88.4382C34.2604 93.916 37.573 99.3868 40.8995 104.851C36.2455 98.6905 30.5075 93.4333 23.9677 89.3373C17.3181 94.4965 11.5804 100.737 6.99406 107.799L18.5812 112.607C12.6522 112.331 6.82814 114.243 2.21304 117.98C1.48231 124.775 0.751599 131.549 0 138.344C40.9621 107.171 93.4697 104.349 140.382 125.361Z" />
    <path fill="#65A23A" d="M139.734 125.047C136.425 116.632 130.089 109.763 121.974 105.793C113.859 101.823 104.554 101.039 95.8912 103.596L97.7703 110.37C92.7805 110.015 89.0225 105.959 85.2436 102.593C81.4647 99.2267 76.8925 96.6551 72.5708 98.1604L72.8631 98.6204L72.529 98.1813C72.2817 98.2454 72.0378 98.3222 71.7983 98.4113C73.2209 99.5785 74.3426 101.071 75.0693 102.763C75.7959 104.454 76.1062 106.296 75.9739 108.133C71.9096 105.432 67.2396 103.784 62.3825 103.335C57.5254 102.886 52.633 103.651 48.1438 105.562L51.9645 110.099C47.5152 108.308 42.68 107.696 37.9258 108.322C33.1716 108.949 28.659 110.792 24.8234 113.674L35.0535 115.325C27.8546 115.696 20.8681 117.893 14.7506 121.712C8.63322 125.53 3.58591 130.844 0.0832692 137.153L-0.0419922 138.198C40.774 107.297 92.9892 104.391 139.734 125.047Z" />
    <path fill="#65A23A" d="M102.99 106.23L138.253 117.939C134.675 108.228 128.65 99.6088 120.762 92.9192C112.875 86.2296 103.394 81.697 93.2402 79.7617L97.7081 83.0442C101.738 85.9921 105.955 89.2118 107.792 93.8533C109.629 98.4947 107.813 104.955 102.99 106.23Z" />
    <path fill="#9EC75A" d="M20.5231 113.694L12.7983 107.924C14.4268 102.99 20.2516 100.481 25.4293 100.92C30.607 101.359 35.2628 104.035 39.7515 106.669L38.6867 102.049C34.5081 97.0323 29.578 92.6948 24.0723 89.1909C17.4226 94.3501 11.685 100.591 7.09864 107.652L18.6858 112.461C12.7569 112.185 6.93279 114.096 2.31768 117.834C1.8375 122.204 1.37814 126.573 0.897949 130.943L1.14854 130.818C2.52961 126.476 5.0608 122.59 8.47263 119.575C11.8845 116.559 16.0492 114.527 20.5231 113.694V113.694Z" />
    <path fill="#9EC75A" d="M0.0209961 138.114L7.47437 128.309C5.2576 128.96 3.10511 129.814 1.04399 130.859C0.918719 131.277 0.77259 131.716 0.668201 132.156C0.459424 134.142 0.271529 136.128 0.0209961 138.114Z" />
    <path fill="#9EC75A" d="M74.6589 100.941C74.3458 95.505 70.8592 90.8217 67.4979 86.5356C72.3719 86.0325 77.2583 87.3637 81.2062 90.2699C85.1541 93.1761 87.8809 97.4494 88.8558 102.258C88.8558 99.9164 88.8558 97.533 88.647 95.1913C86.3732 89.7275 83.5395 84.5145 80.1915 79.6362L61.1301 80.2216C65.0552 86.3684 68.9662 92.5152 72.8634 98.662C68.5542 92.7969 62.5676 88.381 55.6964 85.999C48.8253 83.617 41.3937 83.3813 34.3857 85.323C38.2603 87.2932 41.6098 90.1601 44.1565 93.686L42.6533 89.2954C54.2964 89.6211 65.5227 93.7059 74.6589 100.941V100.941Z" />
    <path fill="#9EC75A" d="M30.9619 88.334L38.3318 100.523L37.1417 95.338L47.2883 102.718C46.9125 101.652 46.5575 100.628 46.1817 99.4985C41.885 94.8176 36.7144 91.0247 30.9619 88.334Z" />
    <path fill="#5D9536" d="M139.922 118.942L98.167 112.336C100.792 112.181 103.353 111.469 105.682 110.247C108.011 109.025 110.054 107.321 111.675 105.248C114.639 100.92 114.389 94.2297 110.193 91.0518C122.448 97.1985 131.383 108.321 139.922 118.942Z" />
    <path fill="#72B942" d="M158.504 49.3206L159.443 66.6529L152.679 71.0643L157.898 70.1235C158 75.2617 156.677 80.3276 154.078 84.7587L158.253 83.2324C158.353 91.4495 155.675 99.4588 150.654 105.959L157.022 103.492C154.85 114.071 150.158 123.969 143.347 132.344C150.261 88.5972 152.925 44.2824 151.301 0.0209961C155.304 8.49321 156.327 18.0724 154.203 27.2006C155.122 25.7371 156.019 24.2527 156.917 22.7891C158.507 32.4776 157.958 42.397 155.31 51.8504L158.504 49.3206Z" />
    <path fill="#72B942" d="M131.592 38.3861L139.067 53.0213C136.373 56.931 133.659 60.8197 130.945 64.7294L138.106 57.9345C140.069 62.4505 139.964 68.6391 137.793 75.5804L143.347 69.3082C146.395 76.5839 145.434 87.1004 140.486 98.5785L148.837 89.1075C149.464 101.129 146.228 115.597 139.442 130.922C133.826 83.3161 121.926 39.9333 103.95 1.52637C112.635 4.64157 117.583 12.3146 117.73 22.9356C118.523 20.573 119.295 18.2105 120.068 15.8479C125.767 22.8101 128.523 32.5739 128.064 44.1148C129.171 42.2749 130.381 40.3305 131.592 38.3861Z" />
    <path fill="#72B942" d="M145.1 118.127C143.666 116.734 141.76 115.935 139.763 115.889C137.766 115.842 135.825 116.552 134.327 117.876C133.668 114.25 131.624 111.025 128.628 108.886C126.978 112.398 125.35 115.931 123.7 119.444C122.949 109.785 109.086 102.572 101.487 107.945C103.054 109.679 104.139 111.795 104.633 114.08C105.128 116.366 105.015 118.742 104.305 120.97C103.028 117.435 100.811 114.316 97.8933 111.95C94.9755 109.585 91.4677 108.062 87.7489 107.548L91.1938 114.154L80.5253 105.52C75.1989 109.886 69.008 113.071 62.3616 114.865L72.6126 123.228C64.2615 117.374 51.7349 118.419 46.5989 126.092L55.7434 129.814C52.2177 128.773 48.4375 129.017 45.0748 130.504L57.1213 135.877L38.4566 134.163C36.8282 139.083 35.1927 144.003 33.5503 148.923L45.8682 152.54L32.0889 155.154L35.659 172.632C36.2413 171.065 37.2907 169.715 38.665 168.765C40.0394 167.815 41.6721 167.311 43.342 167.322L34.1766 178.779C35.7662 180.062 37.0016 181.73 37.7654 183.626C38.5292 185.521 38.7958 187.581 38.5401 189.609L43.6761 181.476C43.5006 189.631 44.9191 197.742 47.8516 205.352C48.3527 204.537 48.8746 203.701 49.4383 202.927C49.5427 202.76 49.6888 202.613 49.7932 202.446L49.8976 202.321C50.4611 201.549 51.0748 200.816 51.7348 200.126C51.7348 198.934 51.8601 197.721 51.9436 196.509C49.6646 183.741 51.4388 170.58 57.0169 158.875C69.5435 134.1 100.735 121.242 130.089 128.831C135.496 130.232 141.927 132.051 145.643 128.58C146.93 127.11 147.593 125.195 147.492 123.243C147.39 121.291 146.532 119.455 145.1 118.127V118.127Z" />
    <path fill="#65A23A" d="M52.6118 133.912L53.0085 134.079C54.0286 134.041 55.046 133.95 56.0566 133.807C55.5467 133.454 54.937 133.273 54.3171 133.292C53.6971 133.311 53.0995 133.528 52.6118 133.912V133.912Z" />
    <path fill="#65A23A" d="M130.152 128.915C135.56 130.316 141.99 132.135 145.706 128.664C146.985 127.186 147.638 125.266 147.524 123.314C147.411 121.361 146.542 119.53 145.101 118.21C143.666 116.818 141.76 116.019 139.763 115.972C137.766 115.926 135.825 116.635 134.328 117.959C133.739 114.772 132.082 111.88 129.63 109.764C129.63 113.339 132.303 117.269 130.006 119.946C128.378 121.848 125.246 121.493 123.158 120.113C121.07 118.733 119.588 116.642 117.646 115.095C116.742 114.232 115.601 113.66 114.37 113.451C113.139 113.242 111.873 113.407 110.736 113.924C111.842 116.747 109.128 119.925 106.122 120.322C105.581 120.385 105.034 120.385 104.493 120.322C104.493 120.552 104.389 120.803 104.306 121.033C104.306 120.761 104.076 120.531 103.972 120.259C101.671 119.801 99.52 118.781 97.7082 117.29C95.4646 115.25 92.9578 113.52 90.2548 112.147L90.4636 112.942L91.1317 114.217L90.7141 113.882C90.9856 114.928 91.257 115.973 91.5492 117.019L76.9348 118.294C76.1623 118.294 75.2855 118.503 74.847 119.193C74.2625 120.385 75.9327 121.43 76.4129 122.684C76.9975 124.273 75.5151 125.841 74.1372 126.866C68.6913 130.675 62.3987 133.093 55.8066 133.912C56.3266 134.191 56.7815 134.578 57.1414 135.047C57.5013 135.515 57.7579 136.055 57.8943 136.63C58.3745 139.222 56.8713 141.689 55.4308 143.905L40.5449 166.653H45.1798C48.9378 177.695 50.8837 189.275 50.942 200.941L51.5684 200.23C51.5684 199.038 51.6936 197.826 51.7772 196.613C49.4981 183.846 51.2724 170.685 56.8504 158.98C69.5024 134.184 100.798 121.325 130.152 128.915Z" />
    <path fill="#5D9536" d="M131.175 128.789C134.667 129.925 138.318 130.489 141.99 130.462C143.914 130.134 145.708 129.272 147.167 127.974C141.279 128.24 135.402 127.234 129.937 125.022C124.472 122.81 119.546 119.446 115.496 115.158L115.809 121.43C111.226 121.872 106.729 122.956 102.447 124.65C100.992 121.346 98.5482 118.577 95.453 116.726C96.6013 120.008 93.1147 123.395 89.649 123.5C86.1833 123.604 83.0725 121.597 80.1914 119.653L85.4944 126.824C78.3852 131.007 70.6204 133.955 62.5288 135.542L68.2493 138.365C63.6049 141.242 59.6036 145.048 56.4961 149.545C53.3886 154.042 51.2418 159.133 50.1901 164.499C48.9429 164.431 47.7007 164.704 46.5971 165.29C45.4935 165.875 44.5703 166.751 43.9268 167.823L48.8748 167.154C47.618 178.229 48.5689 189.443 51.6724 200.146V200.146C49.2735 186.045 51.4695 171.546 57.9357 158.792C70.525 134.058 101.821 121.2 131.175 128.789Z" />
    <path fill="#9EC75A" d="M47.5176 204.307C47.6637 204.683 47.7681 205.039 47.9143 205.394L48.1022 205.122L47.5176 204.307Z" />
    <path fill="#9EC75A" d="M45.0752 130.546L49.8145 132.636L47.9772 131.152L54.4076 130.295L51.8396 129.229C49.5126 129.126 47.1944 129.578 45.0752 130.546V130.546Z" />
    <path fill="#9EC75A" d="M53.906 135.982L53.405 135.563H52.6533C53.084 135.66 53.5038 135.8 53.906 135.982V135.982Z" />
    <path fill="#9EC75A" d="M35.7634 172.674C36.0891 171.766 36.5852 170.929 37.2249 170.207C38.0387 165.283 38.102 160.264 37.4128 155.321L36.2228 154.422L32.1934 155.196L35.7634 172.674Z" />
    <path fill="#9EC75A" d="M40.2731 186.891C40.0434 186.076 39.8138 185.239 39.605 184.403C38.3685 180.885 37.9821 177.123 38.4776 173.427L34.1768 178.821C35.7663 180.103 37.0017 181.772 37.7655 183.667C38.5293 185.563 38.796 187.623 38.5402 189.651L40.2731 186.891Z" />
    <path fill="#9EC75A" d="M103.846 119.883C102.45 116.613 100.235 113.76 97.4149 111.599C94.5949 109.438 91.2656 108.042 87.7492 107.548L91.194 114.154L80.5255 105.52C75.1991 109.886 69.0082 113.071 62.3618 114.865L70.4833 121.535L66.3077 117.081C69.9251 114.109 74.3696 112.325 79.0359 111.973C83.7021 111.622 88.3631 112.719 92.384 115.116L90.5677 111.06C95.4993 113.156 100.001 116.147 103.846 119.883V119.883Z" />
    <path fill="#9EC75A" d="M105.495 121.472C105.461 119.891 105.28 118.316 104.953 116.768C104.98 118.022 104.804 119.272 104.431 120.469C104.786 120.866 105.161 121.117 105.495 121.472Z" />
    <path fill="#9EC75A" d="M71.7568 122.957L71.4227 122.601C63.0716 117.625 51.5054 118.901 46.5991 126.218L50.3154 127.723C52.654 124.397 56.1484 122.064 60.1144 121.183C64.0804 120.301 68.2322 120.933 71.7568 122.957V122.957Z" />
    <path fill="#9EC75A" d="M38.4571 134.205C36.8286 139.125 35.1932 144.045 33.5508 148.965L42.3195 151.537L42.9875 151.328C40.8214 150.929 38.9004 149.689 37.6428 147.878C38.7313 144.207 40.6946 140.857 43.3633 138.114C45.137 136.495 47.3844 135.49 49.7728 135.25L38.4571 134.205Z" />
    <path fill="#5D9536" d="M106.56 216.705C106.184 217.751 105.788 218.796 105.391 219.841C104.848 221.326 103.742 223.124 102.218 222.727C100.693 222.329 100.589 220.636 100.506 219.381L99.2738 201.066C98.7728 203.157 98.2717 205.248 97.8333 207.088C97.0478 214.258 96.8244 221.48 97.1652 228.685C97.6245 232.093 98.1256 235.522 98.6893 238.93C100.164 241.276 101.871 243.469 103.783 245.474C102.8 235.795 103.744 226.016 106.56 216.705V216.705Z" />
    <path fill="#9EC75A" d="M104.264 2.52979C118.044 32.5372 128.058 64.1391 134.077 96.6131C135.698 85.591 136.549 74.4692 136.624 63.3285C135.003 66.1446 132.424 68.282 129.359 69.3498C130.048 67.7818 130.632 66.1928 131.175 64.5829L130.945 64.792L131.238 64.3739C132.417 60.8381 133.255 57.1976 133.743 53.502C132.375 55.5039 130.42 57.0307 128.148 57.8717C129.881 53.5673 130.295 48.8438 129.338 44.3028L123.221 50.575C123.973 44.4365 123.867 38.2231 122.907 32.1138C122.198 33.2219 121.488 34.3508 120.82 35.4589C115.698 24.5871 110.576 13.7292 105.454 2.88524L104.264 2.52979Z" />
    <path fill="#5D9536" d="M137.25 87.6021C138.946 92.0356 139.624 96.7947 139.233 101.526C141.845 98.3115 145.066 95.6467 148.712 93.6861C148.873 98.8879 147.633 104.037 145.121 108.593L152.887 103.617L151.071 115.263C154.156 110.334 158.312 106.166 163.227 103.068C168.143 99.9691 173.693 98.0203 179.465 97.3658C170.207 103.013 162.274 110.594 156.207 119.59C155.527 120.942 154.397 122.015 153.013 122.622C151.844 122.851 150.635 122.743 149.526 122.308L133.868 117.834C132.198 110.433 130.534 103.032 128.878 95.6305C130.621 96.2398 132.194 97.2552 133.468 98.5929C134.742 99.9305 135.681 101.552 136.206 103.324C135.153 98.0838 135.513 92.6569 137.25 87.6021V87.6021Z" />
    <path fill="#72B942" d="M133.889 113.569C128.01 111.902 121.77 112.015 115.956 113.894C110.141 115.773 105.012 119.333 101.215 124.127C104.027 125.086 106.492 126.856 108.301 129.215C110.111 131.573 111.183 134.415 111.383 137.383C109.819 135.096 107.761 133.192 105.36 131.813C102.96 130.434 100.28 129.615 97.5198 129.417L88.8138 158.353C91.8051 157.695 94.8976 157.642 97.9094 158.199C100.921 158.755 103.791 159.91 106.351 161.593L88.438 162.932C87 172.622 86.7756 182.455 87.7699 192.202L97.9165 188.313C92.6236 197.189 90.3279 207.536 91.3696 217.821C92.4113 228.106 96.735 237.781 103.7 245.411C101.821 229.982 106.268 215.848 111.487 201.213L103.72 197.972C107.896 198.704 111.779 197.366 116.038 198.098C118.806 188.562 123.032 179.514 128.565 171.274C125.185 168.616 122.277 165.407 119.963 161.782C124.555 162.909 128.928 164.788 132.908 167.343C138.401 158.529 142.269 148.799 144.328 138.616C145.81 128.79 143.493 116.454 133.889 113.569Z" />
    <path fill="#65A23A" d="M144.328 138.616C145.894 128.789 143.576 116.454 134.056 113.527L132.762 113.192C122.573 124.482 117.333 139.389 112.009 153.669C106.288 169.057 100.756 183.922 98.689 200.23C97 211.397 96.6635 222.727 97.6869 233.974C97.833 235.354 98.0418 236.713 98.2506 238.156C99.8556 240.796 101.738 243.256 103.867 245.494C101.988 230.065 106.435 215.931 111.654 201.296L103.888 198.056C108.063 198.787 111.946 197.449 116.205 198.181C118.973 188.646 123.199 179.597 128.732 171.357C125.352 168.7 122.444 165.491 120.13 161.865C124.722 162.992 129.095 164.871 133.075 167.426C138.518 158.575 142.33 148.817 144.328 138.616Z" />
    <path fill="#65A23A" d="M98.7934 239.16C97.8654 220.665 98.8027 202.124 101.591 183.818L99.1066 183.379L98.6682 180.285C95.8431 181.066 92.8505 180.993 90.0665 180.075C88.8425 179.485 87.8611 178.487 87.2898 177.253C87.1639 182.264 87.3522 187.277 87.8535 192.264L98.0001 188.376C93.4048 196.078 91.0447 204.91 91.1848 213.881C91.325 222.851 93.9598 231.606 98.7934 239.16V239.16Z" />
    <path fill="#65A23A" d="M133.388 113.423C127.655 111.919 121.611 112.095 115.975 113.93C110.339 115.765 105.347 119.18 101.591 123.772C101.552 123.915 101.503 124.054 101.445 124.19C102.289 124.474 103.101 124.845 103.867 125.298C107.369 124.432 111.047 124.606 114.452 125.8C118.628 127.598 121.571 133.285 118.837 136.986L124.87 130.713C128.169 127.305 131.134 117.604 133.681 113.59L133.388 113.423Z" />
    <path fill="#5D9536" d="M143.91 125.779C142.379 121.933 140.173 118.393 137.397 115.325L136.958 114.865C136.024 114.287 135.021 113.83 133.973 113.506C133.304 113.297 132.636 113.13 131.885 112.983C130.67 113.554 129.663 114.489 129.004 115.66C123.526 123.758 119.303 132.639 116.477 142.003L126.603 130.357C127.121 129.618 127.848 129.05 128.691 128.727C129.404 128.692 130.115 128.833 130.763 129.135C131.41 129.437 131.974 129.893 132.407 130.462C136.372 134.318 139.991 138.515 143.221 143.006C143.576 141.48 143.91 139.975 144.161 138.49C144.855 134.274 144.771 129.965 143.91 125.779V125.779Z" />
    <path fill="#5D9536" d="M102.573 243.885L101.591 242.693C101.215 242.214 100.879 241.703 100.589 241.167C100.151 240.454 99.7739 239.706 99.4618 238.93C98.6041 236.838 97.9537 234.667 97.5202 232.448C96.9946 229.575 96.6598 226.669 96.5181 223.751C95.8291 210.872 98.1674 193.728 102.51 177.148C106.382 161.868 111.986 147.081 119.212 133.076C120.715 130.211 122.219 127.64 123.576 125.403C124.933 123.166 126.206 121.221 127.292 119.674C128.378 118.127 129.38 116.914 129.86 116.099L130.778 114.844C130.907 114.67 131.069 114.523 131.255 114.411C131.441 114.299 131.646 114.225 131.861 114.193C132.075 114.161 132.293 114.172 132.503 114.224C132.714 114.277 132.911 114.37 133.085 114.499C133.26 114.628 133.407 114.791 133.518 114.976C133.63 115.162 133.703 115.369 133.735 115.583C133.767 115.798 133.757 116.016 133.704 116.227C133.652 116.437 133.559 116.635 133.43 116.81L132.511 118.001C131.927 118.796 130.966 119.883 129.922 121.409C128.879 122.936 127.563 124.734 126.185 126.908C124.807 129.082 123.262 131.549 121.717 134.33C114.223 147.998 108.304 162.475 104.076 177.483C99.3783 193.853 96.6224 210.935 97.0191 223.646C97.0783 226.554 97.3434 229.453 97.8125 232.323C98.1705 234.534 98.7655 236.7 99.5871 238.783C99.8648 239.56 100.214 240.309 100.631 241.021C100.903 241.576 101.232 242.101 101.612 242.589L102.573 243.885Z" />
    <path fill="#76A93E" d="M131.238 140.268C132.858 142.898 133.837 145.875 134.095 148.955C134.352 152.035 133.881 155.133 132.72 157.997C132.461 158.604 132.074 159.148 131.586 159.591C131.098 160.034 130.519 160.367 129.891 160.565C129.262 160.764 128.598 160.824 127.944 160.742C127.29 160.659 126.662 160.436 126.102 160.088C123.49 158.412 120.508 157.4 117.417 157.14C114.431 161.886 117.417 168.053 121.425 175.308C123.805 179.49 118.711 184.549 116.54 188.877C115.919 190.102 114.993 191.145 113.852 191.907C112.711 192.669 111.393 193.123 110.026 193.226C107.341 193.474 104.69 193.999 102.113 194.794L117.605 147.021C118.212 144.989 119.23 143.104 120.594 141.482C121.959 139.86 123.642 138.536 125.538 137.591C125.959 137.378 126.423 137.264 126.895 137.257C127.812 137.358 128.689 137.687 129.447 138.212C130.205 138.738 130.82 139.444 131.238 140.268V140.268Z" />
    <path fill="#9EC75A" d="M112.03 138.846C112.236 135.234 111.695 131.619 110.443 128.225C109.802 126.64 108.731 125.265 107.352 124.257C105.972 123.248 104.338 122.646 102.635 122.518C102.176 123.04 101.737 123.563 101.299 124.127C104.11 125.086 106.576 126.856 108.385 129.215C110.194 131.573 111.266 134.415 111.466 137.383C109.903 135.096 107.844 133.192 105.444 131.813C103.044 130.434 100.364 129.615 97.6034 129.417L88.8975 158.353L89.9622 158.165C92.3631 153.983 92.8851 148.464 94.9311 143.864C96.298 140.464 98.945 137.738 102.301 136.275C103.981 135.586 105.84 135.464 107.596 135.928C109.351 136.392 110.908 137.417 112.03 138.846V138.846Z" />
    <path fill="#5D9536" d="M120.194 162.242C119.092 161.986 118.04 161.548 117.083 160.945C120.118 167.221 120.906 174.35 119.313 181.138C117.72 187.926 113.844 193.959 108.335 198.223C110.922 197.919 113.535 197.919 116.122 198.223C118.89 188.688 123.116 179.639 128.649 171.399C125.372 168.806 122.519 165.716 120.194 162.242V162.242Z" />
    <path fill="#5D9536" d="M143.806 140.811C142.348 135.634 138.903 131.244 134.223 128.602C136.188 133.631 137.316 138.95 137.564 144.345C137.673 147.039 137.231 149.727 136.266 152.243C135.3 154.76 133.83 157.053 131.947 158.98C129.359 161.364 125.942 162.64 122.427 162.534C126.11 163.672 129.621 165.304 132.866 167.385C137.919 159.175 141.613 150.202 143.806 140.811V140.811Z" />
    <path fill="#9EC75A" d="M99.9838 164.625C100.819 164.625 101.863 164.625 102.218 165.378C102.313 165.668 102.344 165.976 102.308 166.279C102.272 166.582 102.17 166.874 102.009 167.134C100.944 169.685 99.9211 172.214 98.7728 174.765C97.8959 176.856 96.685 179.177 94.4511 179.532C93.4495 179.575 92.4615 179.288 91.6391 178.713C90.8167 178.139 90.2056 177.31 89.8998 176.354C89.3284 174.414 89.2141 172.367 89.5657 170.375C89.7327 168.556 90.0877 166.423 91.6535 165.545C92.3829 165.219 93.1721 165.048 93.971 165.043L99.9838 164.625Z" />
    <path fill="#72B942" d="M183.995 247C191.386 238.825 194.059 225.8 190.843 213.841L194.789 211.269L187.419 207.82L196.167 204.725C195.284 203.745 194.19 202.98 192.967 202.487C191.744 201.994 190.425 201.787 189.111 201.882L195.917 199.52C195.541 198.161 195.144 196.822 194.768 195.484L188.15 194.983L199.675 194.105C200.77 183.977 198.791 173.755 193.996 164.771C192.312 165.179 190.557 165.185 188.871 164.789C187.185 164.393 185.615 163.607 184.288 162.493L195.478 161.614L189.465 143.425L176.041 139.244L190.655 140.247C188.084 133.659 183.743 127.91 178.113 123.638C172.484 119.365 165.784 116.734 158.754 116.036C149.359 115.367 139.735 119.005 134.891 127.264C130.047 135.522 131.3 148.568 138.92 155.489L154.37 151.788L139.943 161.656C141.283 162.059 142.492 162.812 143.446 163.837C144.4 164.862 145.064 166.123 145.372 167.489L157.46 163.726L146.416 171.044L149.422 176.061L166.917 169.915L152.679 179.072C156.7 181.387 159.836 184.977 161.594 189.275L171.845 184.654L159.527 194.355C162.58 196.503 164.758 199.68 165.665 203.304L175.958 198.704C172.756 201.826 169.576 204.955 166.416 208.092C167.023 207.826 167.678 207.69 168.34 207.693C169.002 207.696 169.656 207.838 170.26 208.11C170.864 208.382 171.404 208.778 171.846 209.271C172.288 209.765 172.622 210.346 172.826 210.977L178.818 208.28C178.852 209.936 178.344 211.558 177.371 212.898C176.399 214.238 175.015 215.223 173.431 215.702C178.211 225.666 181.758 236.176 183.995 247V247Z" />
    <path fill="#65A23A" d="M173.557 215.702C178.261 225.567 181.766 235.963 183.996 246.666C185.979 217.625 184.309 182.104 169.381 160.945C165.874 162.388 160.529 160.778 159.798 156.617C159.193 153.293 163.828 147.23 161.531 144.073C159.235 140.916 148.817 141.773 147.084 138.595C146.46 137.305 146.108 135.899 146.049 134.466C145.991 133.033 146.227 131.603 146.744 130.266C147.261 128.929 148.048 127.712 149.054 126.692C150.061 125.672 151.266 124.87 152.596 124.336C151.688 121.754 150.571 119.251 149.255 116.852C146.326 117.546 143.564 118.815 141.127 120.584C138.691 122.353 136.628 124.588 135.058 127.159C130.194 135.396 131.467 148.464 139.088 155.384L154.537 151.683L140.111 161.552C141.451 161.955 142.659 162.707 143.613 163.732C144.567 164.757 145.232 166.018 145.539 167.385L157.627 163.621L146.416 171.044L149.422 176.061L166.918 169.915L152.679 179.072C156.7 181.387 159.836 184.977 161.594 189.275L171.845 184.654L159.527 194.355C162.58 196.503 164.758 199.679 165.665 203.304L175.958 198.704L166.417 208.091C167.023 207.826 167.679 207.69 168.341 207.693C169.003 207.696 169.657 207.838 170.261 208.11C170.864 208.382 171.405 208.778 171.846 209.271C172.288 209.765 172.622 210.346 172.826 210.977L178.818 208.28C178.86 209.92 178.37 211.53 177.422 212.868C176.473 214.206 175.117 215.2 173.557 215.702V215.702Z" />
    <path fill="#5D9536" d="M143.18 113.422L144.537 114.321C145.393 114.907 146.771 115.869 148.337 117.123C152.694 120.64 156.612 124.669 160.007 129.124C164.726 135.412 168.639 142.268 171.657 149.529C175.054 157.782 177.845 166.272 180.008 174.932C181.136 179.323 182.096 183.734 183.035 188.145C183.975 192.557 184.601 196.906 185.123 201.15C185.645 205.394 185.896 209.513 185.958 213.402C186.021 217.29 185.958 221.012 185.958 224.42C185.687 231.215 185.165 236.964 184.747 240.811L184.059 247.083C184.059 247.083 184.267 244.825 184.601 240.811C184.935 236.797 185.311 231.215 185.436 224.42C185.436 221.012 185.436 217.353 185.269 213.464C185.102 209.576 184.706 205.499 184.163 201.296C183.62 197.094 182.827 192.808 181.866 188.459C180.906 184.11 179.779 179.741 178.547 175.392C176.196 166.88 173.231 158.551 169.674 150.47C166.589 143.478 162.648 136.897 157.94 130.88C154.605 126.686 150.769 122.916 146.52 119.653C144.954 118.461 143.764 117.562 142.867 117.081L141.489 116.203C141.12 115.963 140.86 115.587 140.766 115.156C140.672 114.726 140.752 114.275 140.988 113.903C141.227 113.538 141.6 113.283 142.027 113.193C142.453 113.103 142.898 113.185 143.263 113.422H143.18Z" />
    <path fill="#5D9536" d="M181.303 217.332C180.111 214.865 179.281 212.239 178.839 209.534C178.829 209.402 178.829 209.269 178.839 209.137C178.716 210.641 178.142 212.073 177.192 213.244C176.242 214.416 174.96 215.272 173.515 215.702C177.871 224.915 181.19 234.585 183.411 244.533C184.559 235.25 184.58 225.967 181.303 217.332Z" />
    <path fill="#5D9536" d="M172.909 210.976L178.818 208.321C178.818 206.398 179.277 204.495 179.444 202.572C179.64 201.422 179.598 200.245 179.322 199.112C179.045 197.979 178.54 196.915 177.836 195.986C177.462 195.552 176.999 195.204 176.478 194.966C175.958 194.727 175.392 194.604 174.819 194.604C174.247 194.604 173.681 194.727 173.161 194.966C172.64 195.204 172.177 195.552 171.803 195.986C172.492 192.62 173.201 189.274 173.89 185.908C173.983 185.485 173.972 185.045 173.857 184.627C173.742 184.208 173.528 183.824 173.232 183.507C172.936 183.191 172.568 182.951 172.159 182.808C171.75 182.665 171.312 182.624 170.884 182.689C169.75 182.885 168.585 182.784 167.502 182.396C166.201 181.898 165.077 181.024 164.274 179.885C163.471 178.745 163.025 177.392 162.992 175.998C166.131 174.429 168.96 172.304 171.343 169.726C171.716 169.31 171.957 168.793 172.037 168.24C172.116 167.687 172.029 167.122 171.787 166.619C171.546 166.115 171.161 165.694 170.68 165.41C170.2 165.126 169.646 164.991 169.088 165.022C165.159 165.329 161.27 166.03 157.48 167.113L161.301 163.245C161.62 162.925 161.837 162.517 161.924 162.073C162.011 161.63 161.964 161.17 161.789 160.753C161.614 160.337 161.32 159.981 160.943 159.732C160.566 159.483 160.124 159.352 159.673 159.356H150.299C151.807 155.869 154.204 152.84 157.251 150.575C157.566 150.354 157.803 150.04 157.931 149.676C158.058 149.313 158.068 148.919 157.959 148.55C157.851 148.18 157.63 147.854 157.327 147.617C157.023 147.381 156.654 147.245 156.27 147.23C154.014 147.126 151.775 146.789 149.589 146.226C144.861 145.155 140.744 142.263 138.127 138.177C136.876 136.12 136.296 133.724 136.468 131.322C136.64 128.92 137.556 126.632 139.087 124.775C140.486 123.249 142.511 121.974 142.741 119.925C142.741 119.736 142.741 119.59 142.741 119.423C139.466 121.262 136.731 123.93 134.807 127.159C129.943 135.396 131.216 148.463 138.837 155.384L154.286 151.683L139.86 161.551C141.2 161.954 142.408 162.707 143.362 163.732C144.316 164.757 144.981 166.018 145.288 167.384L157.376 163.621L146.415 171.043C147.96 174.096 147.48 173.134 149.004 176.207L166.917 169.935L152.679 179.072C156.699 181.387 159.836 184.976 161.593 189.274L171.844 184.654L159.527 194.355C162.579 196.503 164.758 199.679 165.665 203.303L175.957 198.704L166.416 208.091C167.027 207.811 167.69 207.664 168.362 207.66C169.033 207.656 169.698 207.795 170.312 208.068C170.926 208.341 171.475 208.741 171.923 209.242C172.371 209.744 172.707 210.335 172.909 210.976V210.976Z" />
    <path fill="#9EC75A" d="M153.974 119.653C154.055 120.208 154.251 120.741 154.549 121.216C154.848 121.691 155.242 122.099 155.707 122.413C158.185 124.66 160.475 127.108 162.554 129.73C164.008 131.775 165.673 133.661 167.523 135.354C168.457 136.186 169.562 136.804 170.759 137.165C171.956 137.527 173.217 137.622 174.455 137.445C175.979 137.131 177.545 135.856 177.273 134.309C177.15 133.768 176.907 133.26 176.563 132.825C172.308 126.659 166.562 121.674 159.861 118.336C158.807 117.708 157.601 117.382 156.375 117.395C155.775 117.434 155.207 117.68 154.769 118.092C154.331 118.504 154.05 119.056 153.974 119.653V119.653Z" />
    <path fill="#9EC75A" d="M194.226 176.856C194.111 173.887 192.933 171.059 190.906 168.89C189.137 167.715 187.221 166.78 185.207 166.109C184.202 165.751 183.32 165.115 182.662 164.275C182.005 163.435 181.598 162.425 181.49 161.363C181.657 158.143 185.875 156.889 187.461 154.087C188.047 152.81 188.224 151.382 187.966 150.001C187.708 148.619 187.028 147.351 186.021 146.373C183.97 144.46 181.546 142.993 178.901 142.066C177.189 141.334 175.039 140.686 173.661 141.898C172.283 143.111 172.742 145.578 173.411 147.418C178.546 161.593 183.675 175.782 188.797 189.985C189.064 191.122 189.75 192.116 190.718 192.766C191.436 193.008 192.217 192.978 192.913 192.681C193.61 192.384 194.174 191.842 194.497 191.156C195.113 189.766 195.329 188.231 195.123 186.724C194.977 183.421 194.685 180.117 194.226 176.856Z" />
  </g>
  <g clip-path="url(#clip2_242_6)">
    <path fill="#7FBC48" d="M196.879 927.631C196.218 921.415 194.647 915.33 192.217 909.571L192.325 926.114C191.792 919.837 189.786 913.773 186.47 908.415C188.756 914.826 190.213 921.502 190.807 928.281C189.634 922.394 187.165 916.842 183.578 912.027C186.393 918.231 188.333 924.795 189.343 931.532C188.24 926.319 185.799 921.483 182.259 917.499C183.692 924.645 184.574 931.891 184.897 939.171C184.857 935.034 184.035 930.941 182.476 927.107V938.395C187.387 940.094 192.656 940.486 197.765 939.533C200.602 939.009 204.072 938.25 205.988 940.418C204.529 933.534 204.953 926.384 207.217 919.721C206.024 924.127 204.813 928.534 203.602 932.959C203.363 924.258 203.968 915.554 205.409 906.97C203.771 914.52 202.114 922.057 200.44 929.582C201.107 921.774 200.657 913.911 199.102 906.23C199.011 913.416 198.267 920.579 196.879 927.631V927.631Z" />
    <path fill="#609132" d="M190.916 932.092V931.207C190.916 930.647 191.042 929.816 190.916 928.895C190.916 928.444 190.916 927.938 190.916 927.396C190.916 926.854 190.807 926.295 190.753 925.717C190.606 924.502 190.395 923.297 190.121 922.105C189.806 920.879 189.419 919.673 188.964 918.493C188.775 917.946 188.558 917.409 188.313 916.885L187.627 915.495C187.276 914.807 186.89 914.137 186.47 913.49L186.018 912.731L186.542 913.436C186.849 913.905 187.392 914.519 187.879 915.368L188.693 916.705C188.987 917.207 189.252 917.726 189.488 918.258C190.056 919.401 190.557 920.577 190.988 921.779C191.331 923.044 191.765 924.29 191.964 925.5C192.106 926.095 192.214 926.698 192.289 927.306C192.289 927.884 192.416 928.408 192.47 928.913C192.555 929.693 192.597 930.477 192.596 931.261V932.146L190.916 932.092Z" />
    <path fill="#609132" d="M200.91 934.512L202.03 932.019L202.554 930.809C202.771 930.376 202.88 929.906 203.06 929.437C203.404 928.48 203.765 927.468 204.108 926.439C204.452 925.409 204.669 924.344 204.94 923.351C205.048 922.863 205.211 922.393 205.283 921.924C205.355 921.454 205.446 921.021 205.518 920.624L206.006 917.933C206.006 917.933 206.006 919.034 205.807 920.66C205.807 921.075 205.807 921.527 205.699 921.996C205.59 922.466 205.572 922.953 205.5 923.459L204.994 926.674C204.741 927.739 204.47 928.823 204.235 929.834C204.134 930.328 204.008 930.816 203.855 931.297L203.44 932.561L202.59 935.162L200.91 934.512Z" />
    <path fill="#609132" d="M196.807 935C196.807 935 197.006 934.584 197.331 933.844L197.946 932.507C198.228 931.927 198.458 931.323 198.632 930.701C198.831 930.051 199.066 929.365 199.301 928.624C199.534 927.841 199.721 927.045 199.861 926.241C200.072 925.386 200.217 924.517 200.295 923.64L200.566 920.913C200.566 919.992 200.566 919.107 200.566 918.168C200.558 917.279 200.486 916.391 200.349 915.513C200.271 914.689 200.15 913.869 199.988 913.057C199.807 912.28 199.626 911.54 199.464 910.871C199.348 910.252 199.166 909.647 198.922 909.065C198.723 908.524 198.56 908.072 198.434 907.675L197.982 906.483L198.506 907.657C198.651 908.018 198.849 908.488 199.084 908.993C199.351 909.576 199.568 910.18 199.735 910.799C199.934 911.467 200.169 912.19 200.386 912.966C200.614 913.779 200.789 914.605 200.91 915.441C201.102 916.321 201.229 917.214 201.289 918.114L201.506 920.913L201.398 923.73C201.377 924.64 201.28 925.546 201.108 926.439C201.021 927.296 200.882 928.146 200.693 928.986C200.476 929.78 200.277 930.539 200.096 931.225C199.952 931.844 199.753 932.448 199.5 933.031L198.976 934.404C198.669 935.162 198.506 935.596 198.506 935.596L196.807 935Z" />
    <path fill="#7FBC48" d="M96.0904 938.232C96.0904 938.232 96.0904 937.6 95.9277 936.426C95.9277 935.884 95.8012 935.216 95.7289 934.44C95.6105 933.56 95.5622 932.672 95.5843 931.785C95.5843 930.791 95.5843 929.708 95.5843 928.57C95.6081 927.393 95.6926 926.217 95.8373 925.048C95.9071 923.799 96.0641 922.556 96.3072 921.328L97.0121 917.535C97.3735 916.289 97.7349 915.043 98.0783 913.815C98.4121 912.626 98.8288 911.461 99.3253 910.329C99.7051 909.24 100.146 908.173 100.645 907.133L102.036 904.352C102.415 903.569 102.85 902.815 103.337 902.094L104.404 900.396L105.343 898.916L104.548 900.469L103.645 902.275C103.234 903.037 102.878 903.828 102.578 904.641L101.476 907.476C101.042 908.469 100.825 909.607 100.464 910.727C100.096 911.874 99.8065 913.044 99.5964 914.23C99.3614 915.44 99.1265 916.668 98.9096 917.842L98.5662 921.454C98.4489 922.655 98.4127 923.861 98.4578 925.066C98.4022 926.173 98.4022 927.282 98.4578 928.389C98.5662 929.437 98.6566 930.412 98.747 931.315C98.747 931.767 98.747 932.2 98.8735 932.615C99 933.031 99.0361 933.446 99.1265 933.825L99.506 935.794L99.8494 937.6L96.0904 938.232Z" />
    <path fill="#7FBC48" d="M110.819 935.83C110.819 935.83 111 935.289 111.289 934.331L111.813 932.525C112.07 931.809 112.263 931.072 112.392 930.322C112.554 929.527 112.735 928.66 112.916 927.739C113.103 926.761 113.23 925.772 113.295 924.778C113.447 923.713 113.525 922.639 113.53 921.563V918.204L113.259 914.863C113.17 913.776 113.013 912.697 112.789 911.63C112.572 910.6 112.482 909.571 112.193 908.632C111.904 907.693 111.669 906.826 111.452 905.977C111.257 905.226 111.009 904.49 110.711 903.774L110.06 902.094C109.699 901.155 109.482 900.631 109.482 900.631L110.205 902.022L111.036 903.629C111.418 904.319 111.744 905.038 112.012 905.778L113.042 908.379C113.44 909.3 113.639 910.33 113.964 911.359C114.317 912.422 114.595 913.508 114.795 914.61L115.446 918.041L115.771 921.509C115.873 922.637 115.903 923.771 115.861 924.904C115.925 925.969 115.925 927.036 115.861 928.101C115.771 929.13 115.663 930.105 115.572 930.99C115.515 931.793 115.394 932.59 115.211 933.374C115.084 934.06 114.976 934.656 114.867 935.18L114.56 936.733L110.819 935.83Z" />
    <path fill="#7FBC48" d="M119.042 936.3C119.042 936.3 119.187 935.577 119.422 934.313C119.548 933.681 119.693 932.905 119.855 932.02C119.946 931.586 120.036 931.117 120.126 930.629C120.217 930.141 120.235 929.636 120.289 929.094C120.398 928.046 120.524 926.891 120.651 925.681C120.777 924.47 120.741 923.134 120.813 921.798C120.894 920.402 120.894 919.003 120.813 917.608L120.542 913.291L119.928 908.993C119.729 907.6 119.451 906.219 119.096 904.857C118.771 903.539 118.572 902.221 118.157 901.029C117.741 899.837 117.397 898.699 117.072 897.651C116.794 896.69 116.45 895.748 116.042 894.834L115.138 892.685C114.651 891.493 114.361 890.879 114.361 890.879L115.301 892.685L116.367 894.762C116.844 895.65 117.267 896.567 117.632 897.507C118.048 898.536 118.518 899.638 119.006 900.812C119.494 901.986 119.819 903.304 120.271 904.623C120.741 905.973 121.139 907.348 121.464 908.74C121.789 910.185 122.114 911.63 122.458 913.075C122.801 914.519 122.873 916.036 123.09 917.499C123.295 918.924 123.422 920.359 123.47 921.798C123.47 923.206 123.705 924.561 123.632 925.861C123.56 927.161 123.632 928.408 123.542 929.473C123.539 930.5 123.473 931.525 123.343 932.543C123.343 933.428 123.163 934.205 123.09 934.855C122.964 936.137 122.873 936.86 122.873 936.86L119.042 936.3Z" />
    <path fill="#BEC0C2" d="M176.042 918.005C176.042 918.005 184.302 922.628 185.964 925.608C187.627 928.588 189.271 931.893 189.271 931.893V933.537C186.107 934.139 182.896 934.471 179.675 934.53C176.364 934.484 173.058 934.261 169.771 933.862C167.823 932.446 166.328 930.495 165.47 928.245C163.482 923.965 162.488 921.31 162.488 921.31L167.115 918.348C169.037 917.753 171.054 917.526 173.061 917.68L176.042 918.005Z" />
    <path fill="#7D7E81" d="M189.271 933.41C189.271 933.41 187.283 939.027 184.97 939.695C180.476 941.224 175.817 942.218 171.09 942.657C165.127 943 161.837 943 161.837 943L169.771 933.753L189.271 933.41Z" />
    <path fill="#A7A9AC" d="M162.488 921.183C162.488 919.829 148.03 932.76 148.03 932.76L151.012 939.027L161.856 943L169.789 933.753C169.789 933.753 162.488 922.845 162.488 921.183Z" />
    <path fill="#A7A9AC" d="M165.47 928.245C163.934 924.922 162.994 922.61 162.65 921.725C162.65 921.509 162.271 921.328 162.343 921.111L164.855 919.793C164.737 923.462 166.068 927.029 168.56 929.726C169.36 930.618 170.347 931.321 171.452 931.785C173.296 932.344 175.264 932.344 177.108 931.785C179.156 931.288 181.157 930.618 183.09 929.78C184.028 929.485 184.837 928.88 185.385 928.064C185.661 927.451 185.803 926.786 185.801 926.114V925.5L185.928 925.699C187.572 928.678 189.235 931.983 189.235 931.983V933.627C186.07 934.229 182.86 934.561 179.638 934.62C176.328 934.575 173.022 934.351 169.735 933.952C167.785 932.507 166.303 930.523 165.47 928.245V928.245Z" />
    <path fill="#D6D3CE" d="M164.765 923.712C164.275 922.62 163.453 921.71 162.416 921.111C163.193 923.116 165.108 925.644 165.867 927.992C166.418 930.024 167.468 931.886 168.922 933.41C169.445 934.081 170.138 934.602 170.928 934.919C171.718 935.236 172.579 935.339 173.421 935.216C174.297 935.27 175.175 935.185 176.024 934.963C176.512 934.711 177.199 934.837 177.687 934.584C178.175 934.331 178.879 934.711 179.494 934.711C181.925 934.758 184.352 934.509 186.723 933.97C183.506 934.44 180.687 934.06 177.56 934.277C175.55 934.563 173.499 934.269 171.65 933.428C170.818 933.136 170.055 932.674 169.409 932.074C167.89 930.272 166.592 928.296 165.542 926.186C165.09 925.428 165.072 924.452 164.765 923.712Z" />
    <path fill="#D6D3CE" d="M170.006 933.861C169.971 934.02 169.889 934.165 169.771 934.277L163.464 941.067C165.831 938.268 168.343 935.162 168.434 931.496L169.825 933.392C169.935 933.525 169.998 933.69 170.006 933.861Z" />
    <path fill="#6EA53A" d="M130.518 933.97C131.45 915.363 126.807 896.901 117.181 880.946C121.306 896.888 123.61 913.247 124.048 929.708C123.813 928.642 123.578 927.595 123.361 926.529C123.018 927.252 122.692 927.974 122.367 928.696L119.006 926.71C118.409 928.516 117.795 930.322 117.199 932.128L114.162 927.902C113.513 932.166 111.628 936.146 108.741 939.352L113.638 938.792C113.407 939.298 113.377 939.872 113.555 940.399C113.733 940.926 114.105 941.365 114.596 941.627C115.605 942.122 116.729 942.334 117.849 942.241L138.108 942.512C146.705 942.731 155.308 942.393 163.861 941.501C159.18 936.083 154.825 925.644 155.819 918.529C156.813 911.413 159.036 904.37 158.602 897.182C153.064 908.32 149.557 920.356 148.247 932.724L147.596 926.71C147.596 929.31 147.596 931.911 147.596 934.53C146.801 930.918 145.988 927.306 145.193 923.694L142.753 940.544L139.572 933.898C139.409 935.112 138.918 936.258 138.15 937.213C137.382 938.168 136.368 938.895 135.217 939.316C135.047 926.946 133.477 914.635 130.536 902.618C129.642 913.049 129.636 923.538 130.518 933.97V933.97Z" />
    <path fill="#BEC0C2" d="M112.247 912.497L110.06 912.731L108.253 915.242C106.886 917.238 105.311 919.085 103.554 920.75C101.982 921.852 99.1085 924.073 99.1085 924.073L97.6266 925.879L97.2651 927.071L99.8314 935.92C101.677 935.897 103.507 935.58 105.253 934.981C108.442 934.099 111.531 932.889 114.47 931.369L117.759 928.913L120.723 927.378L121.048 926.728C121.048 926.728 117.741 918.366 115.88 916.325L112.247 912.497Z" />
    <path fill="#A7A9AC" d="M110.06 912.695C110.06 912.695 103.626 911.81 99.8311 913.688C96.0359 915.567 93.3431 916.975 93.3431 916.975C92.058 917.18 90.802 917.537 89.6022 918.041C89.0308 918.494 88.4267 918.905 87.7949 919.269C87.0565 919.662 86.3442 920.103 85.6624 920.587C84.9955 921.108 84.442 921.76 84.0359 922.502C83.8552 923.025 81.7046 926.385 81.5239 926.908C81.44 927.265 81.44 927.636 81.5239 927.992C83.3885 927.134 85.4011 926.644 87.4516 926.547L93.7226 926.06L97.0841 926.312C98.4534 924.756 100.014 923.378 101.729 922.213C102.793 921.673 103.763 920.966 104.602 920.118L106.933 917.734L108.741 914.754L110.06 912.695Z" />
    <path fill="#7D7E81" d="M120.922 926.638C120.665 928.309 120.216 929.945 119.584 931.514C118.789 933.067 117.415 935.126 117.415 935.126L116.205 936.805L114.903 937.925L104.837 940.544C102.735 940.986 100.583 941.138 98.4396 940.995L96.3975 941.248L99.777 935.957C103.445 935.236 107.066 934.295 110.62 933.139C112.423 932.397 114.1 931.38 115.59 930.123C116.516 929.371 117.522 928.723 118.59 928.191C119.406 927.734 120.186 927.215 120.922 926.638V926.638Z" />
    <path fill="#707377" d="M99.705 935.866L97.1207 927.017L97.4821 925.825C97.4821 925.825 94.0664 926.114 92.3134 926.114C89.3646 926.119 86.4273 926.483 83.5665 927.197L81.3435 927.992L80.4941 930.213L80.693 931.044L82.2291 932.38C82.2291 932.38 87.4701 938.196 90.9038 939.406C94.3375 940.616 96.3255 941.212 96.3255 941.212L99.705 935.866Z" />
    <path fill="#77777D" d="M98.4396 940.905L96.3975 941.158L99.777 935.866C103.445 935.145 107.066 934.204 110.62 933.049C112.423 932.307 114.1 931.29 115.59 930.033C116.516 929.281 117.522 928.633 118.59 928.101C119.385 927.671 120.146 927.182 120.867 926.638C120.867 926.638 120.867 926.909 120.741 927.342C119.356 927.861 118.077 928.626 116.964 929.6C116.349 930.159 115.843 930.81 115.265 931.406C112.319 934.241 107.873 934.674 103.843 935.343C103.21 935.41 102.596 935.6 102.036 935.902C101.691 936.148 101.42 936.483 101.251 936.871C101.082 937.259 101.023 937.686 101.078 938.106L101.891 938.286C101.774 938.706 101.774 939.149 101.891 939.569C104.237 939.295 106.532 938.687 108.705 937.763C109.319 937.51 109.897 937.239 110.512 937.04C111.126 936.842 111.94 936.697 112.644 936.498C114.601 935.87 116.434 934.911 118.066 933.663C117.596 934.422 117.199 934.999 117.199 934.999L115.988 936.679L114.687 937.799L104.837 940.544C102.731 940.956 100.579 941.077 98.4396 940.905V940.905Z" />
    <path fill="#67676E" d="M98.223 938.287L99.7773 935.867C100.229 937.275 99.0182 939.37 100.139 940.49C101.255 940.315 102.311 939.872 103.218 939.199C104.124 938.525 104.854 937.642 105.344 936.625C105.344 937.6 105.344 938.557 105.344 939.515C107.229 939.391 109.092 939.04 110.892 938.467C111.271 937.998 111.651 937.51 112.048 937.04C112.095 937.205 112.175 937.359 112.284 937.491C112.393 937.623 112.528 937.732 112.68 937.81C112.833 937.888 113 937.934 113.171 937.944C113.342 937.955 113.514 937.93 113.675 937.871C114.314 937.591 114.864 937.142 115.265 936.571L119.711 931.153C119.676 931.246 119.634 931.337 119.584 931.424C118.789 932.977 117.416 935.036 117.416 935.036L116.205 936.715L114.904 937.835L104.837 940.544C102.736 940.986 100.583 941.138 98.4399 940.996L97.1387 941.158L98.223 938.287Z" />
    <path fill="#67676E" d="M80.5664 930.213L80.7652 931.044L82.3013 932.381C82.3013 932.381 87.5423 938.196 90.9761 939.406C94.4098 940.616 96.3978 941.212 96.3978 941.212L99.7773 935.92L97.1929 927.071L97.5543 925.879C97.5543 925.879 94.1387 926.168 92.3857 926.168C89.4368 926.173 86.4995 926.537 83.6387 927.251L81.4158 928.046L80.5664 930.213ZM82.3736 928.136C87.0905 927.504 91.7893 926.926 96.5062 926.33C96.1086 926.692 96.1989 927.342 96.3254 927.884C96.7592 929.69 97.211 931.496 97.6447 933.302C97.7011 933.495 97.7315 933.696 97.7351 933.898C97.7026 934.115 97.6419 934.328 97.5543 934.53C96.956 935.96 96.2175 937.327 95.3495 938.611L94.7712 938.413C94.8426 937.813 94.8728 937.21 94.8616 936.607C94.8789 936.445 94.8336 936.284 94.7351 936.155C94.6182 936.061 94.4691 936.015 94.3194 936.029C92.7808 935.899 91.2568 935.633 89.7652 935.234C88.882 935.042 88.0383 934.7 87.2712 934.223C86.5022 933.671 85.82 933.007 85.2471 932.254C84.5784 931.459 83.8917 930.665 83.223 929.852C82.763 929.392 82.4812 928.784 82.4278 928.136H82.3736Z" />
    <path fill="#67676E" d="M94.2834 936.932C94.3919 936.932 94.4642 936.769 94.5184 936.661C95.1483 935.362 95.8543 934.102 96.6328 932.886C97.193 932.019 97.8075 930.936 97.3196 930.033C95.4494 932.553 93.1491 934.723 90.5244 936.444L94.0304 936.95C94.115 936.962 94.2014 936.956 94.2834 936.932V936.932Z" />
    <path fill="#5D5B63" d="M83.0242 931.514C83.6707 931.286 84.2798 930.963 84.8314 930.557L85.8977 929.834C84.9733 930.746 84.2204 931.817 83.6748 932.995L84.0001 933.175C84.4158 933.374 84.8676 933.41 85.2832 933.609C85.7155 933.852 86.106 934.163 86.4399 934.53C87.2014 935.192 88.113 935.658 89.0956 935.888C90.0783 936.117 91.1022 936.104 92.0784 935.848C91.7557 936.091 91.5235 936.434 91.4186 936.823C91.3138 937.213 91.3425 937.626 91.5001 937.997C91.6646 938.363 91.9397 938.667 92.2866 938.868C92.6335 939.069 93.0348 939.156 93.4339 939.117C93.8039 939.01 94.1872 938.955 94.5724 938.955C95.0965 938.955 95.5122 939.569 96.0544 939.587C96.5965 939.605 96.9399 939.153 97.2471 938.738L99.5965 935.632C99.3977 936.137 99.1809 936.625 98.9821 937.131L96.452 941.086C96.452 941.086 94.464 940.526 91.0303 939.28C87.5965 938.034 82.3555 932.254 82.3555 932.254L80.8194 930.918L80.6206 930.087L80.9098 929.311L82.5182 931.586C82.6892 931.583 82.8591 931.558 83.0242 931.514V931.514Z" />
    <path fill="#7D7E81" d="M94.4095 931.405C94.2552 931.613 94.058 931.786 93.8311 931.911C93.027 932.497 92.1196 932.926 91.1564 933.175C90.6789 933.303 90.1774 933.312 89.6955 933.202C89.2136 933.092 88.7659 932.866 88.3914 932.543C88.0154 932.149 87.7369 931.673 87.5781 931.153C87.4336 930.773 87.2528 930.304 86.8372 930.268L86.1323 928.173C88.9447 928.659 91.8311 928.499 94.5721 927.703C94.5721 928.606 94.5721 929.509 94.5721 930.43C94.6097 930.764 94.5534 931.102 94.4095 931.405Z" />
    <path fill="#9D9CA0" d="M83.9998 922.484C84.0609 922.292 84.1591 922.114 84.289 921.96C84.3513 922.133 84.4364 922.297 84.5419 922.448L90.5058 923.243C91.8654 923.485 93.2519 923.54 94.6263 923.405C96.3432 923.152 98.042 922.322 99.7227 922.755C100.26 921.464 101.133 920.342 102.253 919.504C103.265 918.908 104.512 918.764 105.47 918.114C107.187 916.903 107.62 914.303 109.5 913.364L108.235 915.459L106.825 917.716L104.494 920.1C104.203 920.395 103.895 920.672 103.572 920.931C102.126 922.159 99.9576 922.845 98.8191 924.416C97.807 925.392 97.0119 926.222 97.0119 926.222L93.6504 925.97C91.5521 926.007 89.458 926.169 87.3793 926.457C85.3499 926.685 83.3578 927.17 81.4516 927.902C81.3677 927.546 81.3677 927.175 81.4516 926.818C81.6323 926.385 83.8191 923.026 83.9998 922.484Z" />
    <path fill="#909093" d="M99.0359 935.505C99.1352 934.756 99.1352 933.997 99.0359 933.248C99.0703 933.782 99.1924 934.306 99.3973 934.801C99.4986 935.049 99.6583 935.268 99.8628 935.441C100.067 935.614 100.311 935.735 100.572 935.794C99.9072 936.273 99.3526 936.889 98.9455 937.6C98.6672 938.144 98.3533 938.669 98.0058 939.171C97.5721 939.731 96.9215 940.165 96.7046 940.851C97.1925 938.918 98.7287 937.419 99.0359 935.505Z" />
    <path fill="#D0CCCA" d="M97.3375 925.915C97.4142 925.68 97.5667 925.477 97.7712 925.337L98.8556 924.398C100.06 923.311 101.354 922.326 102.723 921.454C103.169 921.209 103.592 920.925 103.988 920.606C104.657 919.992 105.054 919.107 105.795 918.565C106.121 918.375 106.429 918.158 106.717 917.915C107.003 917.624 107.23 917.28 107.386 916.903C108.091 915.482 108.952 914.144 109.952 912.912L106.717 918.24C106.333 918.937 105.865 919.586 105.325 920.172C104.712 920.726 104.039 921.21 103.319 921.617C102.464 922.147 101.633 922.689 100.825 923.242C99.9064 923.822 99.0782 924.534 98.3676 925.355C97.9811 925.848 97.6704 926.396 97.4459 926.981C97.7351 927.794 98.0423 928.588 98.3315 929.401C98.6206 930.214 98.7833 930.683 98.964 931.333C99.1989 932.327 99.3797 933.374 100.121 933.537C99.7773 933.537 99.705 934.096 99.8315 934.404C99.958 934.711 100.229 934.999 100.265 935.343L104.078 934.349C104.409 934.249 104.748 934.177 105.091 934.133C105.735 934.182 106.383 934.121 107.006 933.952C107.368 933.808 107.639 933.537 107.982 933.374C108.477 933.19 108.993 933.069 109.518 933.013C109.947 932.894 110.365 932.737 110.765 932.543C111.94 932.02 113.078 931.478 114.235 930.9C114.523 930.775 114.796 930.617 115.048 930.43C115.303 930.197 115.544 929.95 115.771 929.69C117.114 928.502 118.664 927.572 120.344 926.945C120.56 926.836 120.795 926.692 120.85 926.457C121.03 926.656 120.85 926.8 120.578 926.945L116.53 929.329C116.234 929.49 115.96 929.691 115.717 929.925C115.518 930.123 115.356 930.376 115.157 930.593C114.833 930.941 114.455 931.234 114.036 931.46C109.592 933.808 104.752 935.314 99.7592 935.902C99.5423 935.704 99.5785 936.047 98.8556 933.338C98.7471 932.923 97.2471 926.746 97.3194 926.313C97.3917 925.879 97.2833 926.096 97.3375 925.915Z" />
    <path fill="#D0CCCA" d="M102.831 934.548C102.524 934.385 102.506 933.97 102.524 933.627C102.264 933.709 101.988 933.722 101.722 933.665C101.456 933.608 101.209 933.483 101.006 933.302C100.592 932.948 100.249 932.519 99.9938 932.038C99.5615 931.366 99.1634 930.673 98.8011 929.961C98.6565 929.636 98.3311 929.256 98.042 929.455C98.3507 931.508 98.8716 933.523 99.5962 935.469C100.067 935.614 100.571 935.614 101.042 935.469L104.096 934.963C104.658 934.935 105.191 934.704 105.596 934.313L103.373 934.566C103.195 934.614 103.006 934.608 102.831 934.548V934.548Z" />
    <path fill="#CBC9CA" d="M112.735 914.339C114.228 915.485 115.485 916.907 116.44 918.529C117.253 920.154 117.488 922.141 118.789 923.423C118.951 923.543 119.066 923.715 119.114 923.911C119.104 924.063 119.047 924.208 118.952 924.326C118.225 925.452 117.238 926.387 116.075 927.054C114.911 927.72 113.605 928.097 112.265 928.155C110.711 928.155 108.886 927.92 107.801 929.022C107.512 929.311 107.241 929.708 106.843 929.672C106.633 929.631 106.438 929.531 106.283 929.383L102.958 926.674C102.744 926.544 102.56 926.37 102.417 926.165C102.274 925.96 102.175 925.727 102.126 925.482C102.126 924.922 102.596 924.489 103.03 924.146C104.685 923.08 106.13 921.722 107.295 920.136C108.036 918.908 108.398 917.445 109.102 916.217C109.433 915.562 109.962 915.027 110.614 914.69C111.266 914.353 112.009 914.23 112.735 914.339V914.339Z" />
    <path fill="#6EA53A" d="M115.645 937.691L118.952 932.273C114.189 934.12 110.078 937.33 107.132 941.501C107.831 937.709 108.53 933.916 109.229 930.123L104.783 938.738C104.036 935.054 103.307 931.363 102.596 927.667C101.657 931.279 100.723 934.837 99.7951 938.341L96.9758 927.198C96.3772 931.313 95.0621 935.292 93.0903 938.955C92.5294 938.763 92.0322 938.42 91.6529 937.965C91.2737 937.509 91.0269 936.958 90.9397 936.372C90.8262 936.483 90.6903 936.567 90.5411 936.62C90.392 936.673 90.2331 936.694 90.0753 936.68C89.9175 936.667 89.7645 936.619 89.6268 936.541C89.4891 936.463 89.3698 936.356 89.2771 936.228L88.3735 938.034L85.6807 932.977L83.4036 936.408C84.2364 929.561 86.4562 922.955 89.9277 916.994L85.2469 925.536L90.506 904.948L82.771 924.814L80.006 913.743C79.4277 918.728 78.8674 923.73 78.2891 928.733L76.3915 922.647C74.8735 927.938 73.6626 934.476 77.6927 938.232C80.3313 940.688 84.3072 940.905 87.9036 940.996L130.97 942.097L115.645 937.691Z" />
    <path fill="#609132" d="M77.2953 932.688L79.3916 938.214L81.7229 926.62C81.1194 930.986 82.2694 935.414 84.9218 938.937C85.3013 937.763 85.6808 936.589 86.0784 935.415C86.747 937.076 87.4338 938.738 88.1205 940.399C88.5001 939.514 88.8796 938.593 89.2772 937.745C89.8013 938.792 90.3253 939.822 90.8675 940.851C90.7049 939.948 92.5302 939.821 92.4941 940.743L93.6326 939.027L93.7953 940.833C95.3702 938.223 96.3569 935.302 96.6868 932.272C97.4277 935.252 98.1868 938.232 98.9278 941.302L87.9398 941.013C84.3253 940.923 80.3675 940.706 77.729 938.25C77.1725 937.721 76.6975 937.112 76.3193 936.444C76.3312 935.131 76.6664 933.841 77.2953 932.688V932.688Z" />
    <path fill="#609132" d="M104.512 941.393L98.9277 941.248C99.1627 940.056 99.3976 938.864 99.6145 937.636L99.7952 938.286L100.446 935.758L104.512 941.393Z" />
    <path fill="#609132" d="M112.355 941.591C113.187 940.074 114.036 938.575 114.886 937.076C115.263 937.089 115.638 937.137 116.006 937.221L115.717 937.69L118.825 938.575C119.617 939.243 120.237 940.092 120.633 941.049C120.733 941.297 120.818 941.55 120.886 941.808L112.355 941.591Z" />
    <path fill="#609132" d="M107.295 941.465H104.783C106.134 940.243 107.032 938.601 107.331 936.805V940.544L107.151 941.483C107.206 941.407 107.267 941.334 107.331 941.266L107.295 941.465Z" />
    <path fill="#609132" d="M112.229 941.591L107.639 941.465L109.012 939.858L109.862 940.833C110.295 940.363 110.729 939.894 111.181 939.442C111.524 940.147 111.886 940.869 112.229 941.591Z" />
    <path fill="#7FBC48" d="M143.313 940.707C143.313 940.707 143.494 937.654 143.747 933.067C143.747 931.929 143.874 930.683 143.946 929.365C144.018 928.046 144.289 926.656 144.47 925.211C144.868 922.34 145.319 919.269 145.753 916.181C146.187 913.093 147.145 910.185 147.795 907.368C148.157 905.977 148.356 904.605 148.807 903.358C149.259 902.112 149.603 900.902 149.946 899.746C151.374 895.376 152.313 892.522 152.313 892.522C152.313 892.522 151.609 895.502 150.506 899.945C150.253 901.065 149.964 902.275 149.657 903.557C149.35 904.839 149.205 906.212 148.97 907.621C148.536 910.438 148.085 913.454 147.633 916.452C147.181 919.45 147.253 922.484 147.073 925.319C147.073 926.728 146.819 928.065 146.892 929.383C146.964 930.701 146.892 931.947 146.892 933.085L147.073 940.725L143.313 940.707Z" />
    <path fill="#7FBC48" d="M140.639 940.002C140.639 940.002 140.639 937.744 140.801 934.349C140.801 933.482 140.801 932.543 140.801 931.586C140.841 930.546 140.937 929.509 141.09 928.48C141.325 926.33 141.578 924.055 141.849 921.761C142.121 919.468 142.735 917.264 143.169 915.169C143.404 914.122 143.53 913.111 143.837 912.171C144.145 911.232 144.361 910.365 144.614 909.517L146.205 904.099C146.205 904.099 145.807 906.32 145.193 909.661C145.048 910.492 144.886 911.467 144.705 912.352C144.524 913.237 144.488 914.339 144.362 915.386C144.163 917.499 143.964 919.739 143.747 921.978C143.53 924.217 143.747 926.439 143.747 928.534C143.747 929.581 143.747 930.557 143.747 931.532L143.964 934.277L144.416 939.93L140.639 940.002Z" />
    <path fill="#7FBC48" d="M136.681 938.34L140.042 905.616L140.53 938.503L136.681 938.34Z" />
    <path fill="#609132" d="M138.072 942.567L117.777 942.35C116.657 942.443 115.533 942.231 114.524 941.736C114.033 941.474 113.661 941.035 113.483 940.508C113.305 939.981 113.335 939.406 113.566 938.901L108.687 939.442L108.921 939.153C109.416 938.576 109.88 937.973 110.313 937.347L113.458 933.356C115.207 934.625 116.48 936.444 117.072 938.521C118.701 937.106 119.834 935.208 120.307 933.103C120.415 934.404 120.524 935.722 120.65 937.022L123.054 930.737C124.362 933.495 125.182 936.459 125.476 939.497C126.254 929.319 125.818 919.085 124.174 909.011C128.07 919.408 130.385 930.329 131.042 941.411C132.991 933.119 133.243 924.519 131.783 916.127C133.626 924.293 134.53 932.643 134.476 941.014L138.452 937.998C138.65 939.117 138.867 940.219 139.066 941.321C140.104 940.188 140.816 938.797 141.126 937.293C141.668 938.395 142.193 939.515 142.717 940.616L142.952 939.063L144.488 940.743C145.536 937.04 145.952 933.187 145.717 929.347C146.223 932.182 146.747 935 147.253 937.835L148.771 935.433C148.97 936.842 149.15 938.25 149.349 939.659C149.729 937.275 150.108 934.873 150.506 932.435C150.795 934.151 151.066 935.866 151.355 937.582C151.421 929.011 152.73 920.494 155.241 912.298C153.018 921.509 157.934 933.844 161.656 942.549C154.428 941.826 144.705 942.639 138.072 942.567Z" />
    <path fill="#7FBC48" d="M150.307 920.678C152.145 912.55 154.942 904.669 158.639 897.2C158.755 901.742 158.3 906.28 157.283 910.709C154.482 918.294 151.066 925.716 151.229 933.717C150.523 929.408 150.214 925.043 150.307 920.678Z" />
    <path fill="#7FBC48" d="M141.271 942.585C140.241 940.779 139.265 938.882 138.379 936.968C139.026 936.088 139.43 935.054 139.554 933.97L142.735 940.616L145.12 923.748C145.735 926.529 146.349 929.329 146.928 932.11C146.928 933.434 146.928 934.753 146.928 936.065C145.617 934.225 144.801 932.08 144.56 929.834C144.271 934.078 144 938.322 143.711 942.476C142.952 942.585 142.12 942.585 141.271 942.585Z" />
    <path fill="#7FBC48" d="M132.506 919.901L132.831 933.139C132.735 925.759 131.789 918.414 130.012 911.25C130.12 908.379 130.283 905.507 130.536 902.654C132.514 910.775 133.873 919.034 134.602 927.36C133.789 924.904 133.084 922.484 132.506 919.901Z" />
    <path fill="#7FBC48" d="M129.361 914.05C128.873 916.271 128.367 918.493 127.879 920.714C126.526 912.827 124.157 905.148 120.831 897.868C119.837 892.197 118.626 886.562 117.217 881C123.326 891.147 127.447 902.363 129.361 914.05Z" />
    <path fill="#609132" d="M146.476 940.923C146.476 940.923 146.692 938.106 147 933.88C147.09 932.814 147.162 931.677 147.253 930.467C147.343 929.257 147.614 927.974 147.795 926.656C148.229 924.019 148.68 921.238 149.15 918.402C149.62 915.567 150.542 912.984 151.192 910.33C151.554 909.065 151.771 907.783 152.204 906.718C152.638 905.652 152.982 904.478 153.343 903.485C154.735 899.476 155.674 896.803 155.674 896.803L153.596 903.557C153.289 904.587 152.964 905.67 152.602 906.826C152.241 907.982 152.06 909.264 151.753 910.546C151.192 913.129 150.614 915.964 150.036 918.655L149.024 926.837C148.897 928.155 148.644 929.383 148.644 930.611C148.644 931.839 148.554 932.977 148.518 934.042C148.373 938.268 148.283 941.104 148.283 941.104L146.476 940.923Z" />
    <path fill="#609132" d="M138.56 940.833L140.837 926.132C142.193 918.8 143.566 911.467 143.566 911.467L141.759 926.24C141.09 933.645 140.403 941.068 140.403 941.068L138.56 940.833Z" />
    <path fill="#609132" d="M145.5 940.056C145.5 940.056 145.41 939.515 145.265 938.557C145.121 937.6 144.832 936.3 144.687 934.62C144.687 933.79 144.506 932.814 144.398 931.929C144.289 931.045 144.29 929.979 144.235 928.95C144.181 927.92 144.109 926.837 144.235 925.753V922.448L144.47 919.161C144.47 918.077 144.687 917.03 144.832 916.001C144.976 914.971 145.049 913.978 145.247 913.057C145.446 912.136 145.609 911.251 145.771 910.438C146.043 908.813 146.476 907.512 146.693 906.573L147.073 905.11L146.765 906.591C146.603 907.53 146.241 908.867 146.043 910.492C145.934 911.305 145.808 912.19 145.663 913.129C145.518 914.068 145.5 915.043 145.392 916.055C145.284 917.066 145.193 918.132 145.211 919.215V922.466C145.211 923.55 145.211 924.651 145.32 925.717C145.428 926.782 145.464 927.848 145.555 928.859C145.645 929.871 145.717 930.864 145.88 931.785C146.043 932.706 146.151 933.591 146.278 934.368C146.494 935.957 146.874 937.311 147.055 938.25L147.362 939.713L145.5 940.056Z" />
    <path fill="#6EA53A" d="M135.108 941.248L137.223 902.148L137.657 941.303L135.108 941.248Z" />
    <path fill="#7FBC48" d="M181.97 939.424L182.151 938.286C182.151 937.925 182.277 937.473 182.368 936.968C182.457 936.425 182.5 935.875 182.494 935.324C182.494 934.746 182.494 934.096 182.494 933.428C182.494 932.76 182.368 932.001 182.313 931.243L182.205 930.087C182.115 929.708 182.042 929.328 181.952 928.931C181.753 928.154 181.663 927.324 181.392 926.547L180.669 924.29C180.398 923.513 180 922.827 179.693 922.104C179.401 921.417 179.056 920.753 178.663 920.118L177.615 918.312C177.317 917.823 176.992 917.353 176.639 916.903L175.843 915.856L175.157 914.935L175.934 915.783L176.819 916.759C177.219 917.176 177.593 917.616 177.94 918.077L179.151 919.72C179.62 920.322 180.037 920.963 180.398 921.635C180.795 922.321 181.265 923.025 181.609 923.766L182.657 926.096C182.98 926.892 183.257 927.706 183.488 928.534L183.868 929.726C183.868 930.141 184.03 930.538 184.103 930.936C184.247 931.748 184.428 932.507 184.5 933.247C184.572 933.988 184.609 934.728 184.645 935.397C184.699 935.997 184.699 936.602 184.645 937.203V938.521C184.645 939.261 184.645 939.677 184.645 939.677L181.97 939.424Z" />
    <path fill="#6EA53A" d="M192.162 936.137C192.921 926.078 189.126 915.892 181.409 907.241C184.696 915.735 186.57 924.709 186.958 933.807C186.759 933.23 186.578 932.652 186.397 932.001L185.584 933.193L182.891 932.092L181.427 935.054L178.988 932.76C178.308 935.291 176.752 937.499 174.596 938.991L178.536 938.684C178.066 939.207 178.536 939.912 179.313 940.237C180.153 940.503 181.035 940.613 181.915 940.562L198.181 940.706C204.144 940.706 213.162 940.706 218.927 940.147C215.15 937.185 211.699 931.532 212.44 927.649C213.181 923.766 215.042 919.919 214.681 916.018C210.388 921.71 207.53 928.35 206.349 935.379C206.168 934.277 205.988 933.193 205.825 932.092C205.825 933.519 205.825 934.945 205.825 936.354C205.174 934.385 204.524 932.435 203.891 930.466C203.241 933.513 202.602 936.577 201.976 939.659L199.409 936.047C199.152 936.835 198.675 937.534 198.035 938.061C197.395 938.589 196.618 938.924 195.795 939.027C195.653 932.182 194.377 925.408 192.018 918.98C191.354 924.683 191.402 930.446 192.162 936.137V936.137Z" />
    <path fill="#7FBC48" d="M202.717 939.839V938.665C202.717 937.907 202.717 936.859 202.897 935.559C203.078 934.259 203.169 932.742 203.476 931.152C203.783 929.563 204.163 927.884 204.542 926.222C204.795 925.391 205.03 924.579 205.283 923.766C205.536 922.953 205.825 922.177 206.096 921.436C206.367 920.696 206.62 919.937 206.928 919.269L207.759 917.463C208.265 916.289 208.807 915.368 209.114 914.7L209.657 913.652L209.223 914.736C208.97 915.44 208.518 916.397 208.12 917.607C207.922 918.203 207.705 918.854 207.488 919.558C207.271 920.262 207.072 920.985 206.855 921.743C206.638 922.502 206.422 923.278 206.277 924.109L205.789 926.565C205.554 928.227 205.265 929.87 205.193 931.441C205.12 933.013 205.048 934.439 205.048 935.686C205.048 936.932 205.048 937.997 205.157 938.72V939.894L202.717 939.839Z" />
    <path fill="#7FBC48" d="M200.584 939.442V936.318C200.584 935.848 200.584 935.343 200.584 934.801C200.624 934.195 200.696 933.592 200.801 932.995C200.982 931.803 201.163 930.521 201.38 929.274L202.392 925.662C202.523 925.113 202.698 924.576 202.916 924.055L203.512 922.646L204.723 919.757C204.723 919.757 204.398 920.967 203.892 922.773C203.765 923.206 203.621 923.694 203.476 924.218C203.341 924.759 203.238 925.308 203.169 925.861C203.006 926.999 202.825 928.227 202.627 929.473C202.428 930.719 202.627 931.911 202.627 933.085C202.591 933.626 202.591 934.169 202.627 934.711L202.771 936.228C202.97 938.034 203.097 939.334 203.097 939.334L200.584 939.442Z" />
    <path fill="#7FBC48" d="M197.404 938.485L199.844 920.696L199.952 938.647L197.404 938.485Z" />
    <path fill="#609132" d="M198.253 940.815L181.988 940.67C181.108 940.721 180.226 940.611 179.385 940.345C178.608 940.02 178.138 939.316 178.608 938.792L174.668 939.099L174.867 938.937C175.261 938.635 175.635 938.31 175.988 937.961L178.518 935.794C179.798 936.349 180.832 937.35 181.427 938.611C182.637 937.972 183.569 936.912 184.048 935.632C184.048 936.336 184.211 937.058 184.301 937.781L186.253 934.349C187.268 935.764 187.937 937.397 188.205 939.117C188.823 933.56 188.468 927.938 187.156 922.502C190.219 927.937 192.103 933.955 192.687 940.165C194.244 935.744 194.452 930.96 193.283 926.421C194.758 930.783 195.491 935.362 195.452 939.966L198.65 938.341L199.138 940.147C199.922 939.617 200.507 938.842 200.801 937.943L202.102 939.749L202.265 938.882L203.512 939.803C204.346 937.851 204.688 935.724 204.506 933.609L205.753 938.232L206.964 936.914C207.126 937.69 207.271 938.449 207.434 939.225L208.355 935.306L209.06 938.124C209.09 933.349 210.131 928.634 212.114 924.29C210.307 929.311 214.265 936.029 217.265 940.779C211.409 940.417 203.584 940.869 198.253 940.815Z" />
    <path fill="#7FBC48" d="M208.03 928.931C209.596 924.342 211.864 920.023 214.753 916.127C214.842 918.624 214.468 921.116 213.65 923.477C211.409 927.613 208.662 931.659 208.789 936.011C208.231 933.694 207.976 931.314 208.03 928.931V928.931Z" />
    <path fill="#7FBC48" d="M200.909 940.833C200.078 939.821 199.301 938.81 198.578 937.781C199.061 937.346 199.396 936.772 199.536 936.137L202.102 939.749C202.729 936.679 203.367 933.615 204.018 930.557C204.506 932.074 205.012 933.591 205.5 935.108C205.5 935.812 205.5 936.534 205.5 937.257C204.544 936.352 203.909 935.16 203.693 933.862C203.458 936.173 203.241 938.485 203.006 940.797L200.909 940.833Z" />
    <path fill="#7FBC48" d="M193.681 928.462L193.952 935.686C193.864 931.607 193.094 927.573 191.675 923.748C191.765 922.195 191.91 920.623 192.09 919.07C193.674 923.422 194.777 927.934 195.38 932.525C194.73 931.207 194.163 929.85 193.681 928.462V928.462Z" />
    <path fill="#7FBC48" d="M191.223 925.283L190.03 928.895C188.877 924.449 186.956 920.239 184.355 916.452C183.554 913.333 182.571 910.263 181.41 907.259C186.116 912.368 189.487 918.559 191.223 925.283V925.283Z" />
    <path fill="#609132" d="M205.139 939.912C205.139 939.912 205.301 938.341 205.554 935.975C205.554 935.397 205.681 934.747 205.753 934.078C205.825 933.41 206.06 932.706 206.205 931.965C206.349 931.225 206.548 930.485 206.729 929.726C206.91 928.968 207.072 928.173 207.307 927.414C207.849 925.933 208.41 924.434 208.934 923.044C209.139 922.362 209.411 921.703 209.747 921.075L210.615 919.269L212.422 915.766L210.777 919.378C210.542 919.919 210.271 920.497 210 921.184C209.705 921.825 209.463 922.489 209.277 923.17C208.825 924.579 208.355 926.078 207.886 927.577C207.687 928.335 207.578 929.112 207.434 929.87C207.289 930.629 207.145 931.351 207.018 932.074C206.864 932.759 206.749 933.452 206.675 934.151C206.675 934.837 206.675 935.469 206.566 936.065C206.422 938.431 206.331 940.002 206.331 940.002L205.139 939.912Z" />
    <path fill="#609132" d="M198.777 939.84L200.476 931.803C200.649 930.814 200.885 929.837 201.181 928.877C201.452 927.938 201.723 927.071 201.94 926.331L202.663 923.875L202.121 926.385C201.958 927.125 201.759 928.01 201.56 928.949C201.33 929.925 201.161 930.914 201.054 931.911C200.512 935.975 199.952 940.038 199.952 940.038L198.777 939.84Z" />
    <path fill="#609132" d="M204.361 939.514L204.163 938.72C204.054 938.196 203.819 937.491 203.693 936.57C203.693 936.101 203.53 935.613 203.458 935.071C203.375 934.527 203.321 933.978 203.295 933.428C203.222 932.225 203.222 931.019 203.295 929.816L203.476 928.01C203.534 927.404 203.624 926.801 203.747 926.204C203.874 925.644 203.928 925.102 204.09 924.597L204.488 923.188C204.723 922.303 205.048 921.617 205.211 921.111L205.518 920.334L205.265 921.129C205.139 921.653 204.849 922.357 204.669 923.242L204.361 924.669C204.235 925.156 204.217 925.716 204.127 926.276C204.036 926.836 203.964 927.396 203.964 927.992C203.964 928.588 203.964 929.184 203.964 929.798C203.973 930.964 204.058 932.128 204.217 933.284C204.307 933.843 204.343 934.385 204.47 934.873C204.596 935.36 204.687 935.83 204.777 936.263C204.94 937.13 205.247 937.853 205.373 938.358L205.626 939.135L204.361 939.514Z" />
    <path fill="#6EA53A" d="M196.03 940.093L197.566 918.8L197.729 940.147L196.03 940.093Z" />
  </g>
  <defs>
    <clipPath id="clip0_242_6">
      <rect width="27" height="783" fill="#fff" transform="translate(124 138)" />
    </clipPath>
    <clipPath id="clip1_242_6">
      <rect width="284" height="247" fill="#fff" />
    </clipPath>
    <clipPath id="clip2_242_6">
      <rect width="144" height="62" fill="#fff" transform="translate(75 881)" />
    </clipPath>
  </defs>
</svg>