<svg xmlns="http://www.w3.org/2000/svg" width="75" viewBox="0 0 75 30" height="30" version="1.0">
  <defs>
    <clipPath id="a">
      <path d="M 26.71875 4.703125 L 30.242188 4.703125 L 30.242188 11.523438 L 26.71875 11.523438 Z M 26.71875 4.703125" />
    </clipPath>
    <clipPath id="b">
      <path d="M 6 24 L 8 24 L 8 26.347656 L 6 26.347656 Z M 6 24" />
    </clipPath>
    <clipPath id="c">
      <path d="M 8.226562 25.171875 L 9.449219 25.171875 L 9.449219 26.34375 L 8.226562 26.34375 Z M 8.226562 25.171875" />
    </clipPath>
    <clipPath id="d">
      <path d="M 5 1.667969 L 16 1.667969 L 16 12 L 5 12 Z M 5 1.667969" />
    </clipPath>
    <clipPath id="e">
      <path d="M 1.210938 7 L 8 7 L 8 9 L 1.210938 9 Z M 1.210938 7" />
    </clipPath>
    <clipPath id="f">
      <path d="M 1.210938 8 L 8 8 L 8 10 L 1.210938 10 Z M 1.210938 8" />
    </clipPath>
  </defs>
  <path fill="#FF9500" d="M 7.285156 11.265625 C 7.042969 12.121094 7.234375 13.46875 7.148438 14.160156 C 6.964844 15.640625 6.679688 17.109375 6.507812 18.585938 C 6.402344 19.53125 6.171875 20.914062 7.066406 21.558594 C 7.804688 22.09375 9.546875 21.789062 10.449219 21.792969 C 12.003906 21.800781 13.542969 21.535156 15.09375 21.46875 C 16.675781 21.398438 18.273438 21.558594 19.855469 21.523438 C 20.699219 21.507812 21.503906 21.292969 22.339844 21.234375 C 23.367188 21.164062 24.375 21.082031 25.398438 20.96875 C 25.941406 20.90625 26.515625 20.914062 26.945312 20.523438 C 27.324219 20.183594 27.253906 19.628906 27.230469 19.171875 C 27.171875 18.0625 27.132812 16.957031 27.15625 15.847656 C 27.179688 14.414062 27.824219 11.925781 26.851562 10.722656 C 26.125 9.824219 24.644531 9.984375 23.640625 10.089844 C 22.035156 10.257812 20.378906 10.507812 18.761719 10.464844 C 17.5 10.429688 16.25 10.257812 14.984375 10.375 C 13.625 10.5 12.265625 10.644531 10.894531 10.464844 C 9.929688 10.339844 8.921875 10.09375 8.011719 10.445312 C 7.847656 10.507812 7.6875 10.59375 7.566406 10.722656 C 7.4375 10.859375 7.347656 11.046875 7.285156 11.265625" />
  <g clip-path="url(#a)">
    <path fill="#010101" d="M 27.183594 11.449219 C 27.144531 11.449219 27.113281 11.425781 27.105469 11.386719 C 26.734375 9.914062 26.554688 7.84375 27.152344 6.445312 C 27.460938 5.722656 28.128906 4.898438 28.863281 4.796875 C 29.378906 4.722656 29.789062 4.929688 30.027344 5.371094 C 30.394531 6.054688 30.28125 7.195312 29.792969 7.765625 C 29.550781 8.042969 29.210938 8.179688 28.902344 8.117188 C 28.628906 8.066406 28.421875 7.871094 28.320312 7.574219 C 28.304688 7.53125 28.328125 7.484375 28.371094 7.46875 C 28.410156 7.453125 28.457031 7.476562 28.472656 7.519531 C 28.554688 7.761719 28.71875 7.917969 28.933594 7.957031 C 29.1875 8.007812 29.46875 7.890625 29.667969 7.65625 C 30.113281 7.140625 30.21875 6.066406 29.886719 5.449219 C 29.742188 5.179688 29.453125 4.878906 28.886719 4.957031 C 28.210938 5.050781 27.59375 5.828125 27.300781 6.511719 C 26.71875 7.871094 26.898438 9.902344 27.261719 11.347656 C 27.273438 11.390625 27.246094 11.433594 27.203125 11.445312 C 27.195312 11.449219 27.1875 11.449219 27.183594 11.449219" />
  </g>
  <path fill="#010101" d="M 26.585938 24.382812 C 26.542969 24.382812 26.507812 24.351562 26.503906 24.308594 C 26.390625 23.25 26.261719 22.054688 26.207031 20.863281 C 26.203125 20.816406 26.238281 20.777344 26.285156 20.777344 C 26.335938 20.769531 26.367188 20.808594 26.367188 20.855469 C 26.425781 22.039062 26.554688 23.238281 26.664062 24.292969 C 26.671875 24.335938 26.636719 24.378906 26.59375 24.382812 C 26.589844 24.382812 26.589844 24.382812 26.585938 24.382812" />
  <path fill="#010101" d="M 24.78125 24.941406 C 24.742188 24.941406 24.710938 24.914062 24.703125 24.875 L 24.667969 24.683594 C 24.449219 23.457031 24.242188 22.296875 24.125 21.074219 C 24.121094 21.027344 24.15625 20.988281 24.199219 20.984375 C 24.246094 20.980469 24.285156 21.011719 24.289062 21.058594 C 24.402344 22.273438 24.609375 23.429688 24.828125 24.652344 L 24.863281 24.84375 C 24.871094 24.890625 24.839844 24.933594 24.796875 24.941406 C 24.792969 24.941406 24.785156 24.941406 24.78125 24.941406" />
  <path fill="#FF9500" d="M 26.613281 24.261719 C 26.441406 24.25 26.269531 24.265625 26.109375 24.335938 C 26.023438 24.375 25.53125 24.710938 25.757812 24.847656 C 25.949219 24.960938 26.195312 24.726562 26.328125 24.613281 C 26.277344 24.6875 26.230469 24.765625 26.191406 24.84375 C 26.117188 24.984375 26.058594 25.398438 26.34375 25.191406 C 26.496094 25.078125 26.578125 24.875 26.625 24.699219 C 26.644531 24.773438 26.671875 24.847656 26.703125 24.917969 C 26.800781 25.171875 27.082031 25.296875 27.09375 24.914062 C 27.101562 24.644531 26.820312 24.429688 26.613281 24.261719" />
  <path fill="#FF9500" d="M 24.847656 24.820312 C 24.65625 24.730469 24.429688 24.648438 24.214844 24.664062 C 24.078125 24.671875 23.523438 24.964844 23.8125 25.113281 C 24 25.210938 24.28125 25.078125 24.460938 25 C 24.367188 25.109375 23.957031 25.601562 24.121094 25.757812 C 24.308594 25.9375 24.699219 25.363281 24.773438 25.207031 C 24.722656 25.445312 24.863281 26.148438 25.148438 25.648438 C 25.3125 25.359375 25.027344 25.050781 24.847656 24.820312" />
  <path fill="#010101" d="M 7.058594 25.035156 L 7.054688 25.035156 C 7.011719 25.035156 6.976562 25 6.976562 24.953125 C 6.980469 24.582031 6.996094 24.199219 7.007812 23.832031 C 7.035156 23.105469 7.058594 22.355469 7.027344 21.625 C 7.023438 21.582031 7.058594 21.542969 7.105469 21.539062 C 7.152344 21.53125 7.1875 21.574219 7.1875 21.617188 C 7.222656 22.355469 7.195312 23.109375 7.171875 23.839844 C 7.15625 24.207031 7.144531 24.585938 7.136719 24.957031 C 7.136719 25 7.101562 25.035156 7.058594 25.035156" />
  <path fill="#010101" d="M 8.980469 25.414062 C 8.9375 25.414062 8.902344 25.382812 8.898438 25.34375 C 8.824219 24.589844 8.824219 23.816406 8.824219 23.070312 C 8.824219 22.65625 8.824219 22.230469 8.808594 21.8125 C 8.808594 21.765625 8.84375 21.730469 8.890625 21.726562 C 8.933594 21.726562 8.972656 21.761719 8.972656 21.808594 C 8.984375 22.226562 8.984375 22.65625 8.988281 23.070312 C 8.988281 23.8125 8.988281 24.578125 9.058594 25.324219 C 9.0625 25.371094 9.03125 25.410156 8.988281 25.414062 C 8.984375 25.414062 8.980469 25.414062 8.980469 25.414062" />
  <g clip-path="url(#b)">
    <path fill="#FF9500" d="M 7.0625 24.882812 C 6.875 24.785156 6.554688 24.726562 6.367188 24.855469 C 5.980469 25.128906 6.527344 25.257812 6.757812 25.191406 C 6.71875 25.285156 6.46875 26.019531 6.632812 26.0625 C 6.902344 26.125 6.957031 25.582031 6.976562 25.410156 C 7 25.496094 7.019531 25.582031 7.050781 25.667969 C 7.175781 25.980469 7.460938 26.0625 7.464844 25.625 C 7.464844 25.351562 7.25 25.082031 7.0625 24.882812" />
  </g>
  <g clip-path="url(#c)">
    <path fill="#FF9500" d="M 9.042969 25.28125 C 8.867188 25.238281 8.6875 25.171875 8.515625 25.246094 C 8.105469 25.417969 8.300781 25.800781 8.714844 25.632812 C 8.597656 25.773438 8.308594 26.125 8.386719 26.328125 C 8.40625 26.375 8.582031 26.289062 8.601562 26.277344 C 8.792969 26.164062 8.859375 25.988281 8.949219 25.800781 C 8.953125 25.9375 8.941406 26.160156 9.03125 26.273438 C 9.214844 26.507812 9.363281 26.019531 9.371094 25.902344 C 9.378906 25.648438 9.1875 25.476562 9.042969 25.28125" />
  </g>
  <path fill="#010101" d="M 7.410156 12.625 C 7.382812 12.625 7.355469 12.609375 7.339844 12.585938 C 7.316406 12.546875 7.332031 12.496094 7.371094 12.472656 C 8.585938 11.75 9.847656 11.953125 11.066406 12.148438 C 11.707031 12.25 12.371094 12.355469 13.027344 12.335938 C 13.695312 12.308594 14.355469 12.152344 14.992188 12 C 15.6875 11.832031 16.410156 11.660156 17.148438 11.660156 C 17.148438 11.660156 17.152344 11.660156 17.152344 11.660156 C 17.863281 11.660156 18.566406 11.808594 19.246094 11.949219 C 19.941406 12.09375 20.664062 12.242188 21.382812 12.234375 C 21.917969 12.222656 22.449219 12.117188 22.960938 12.015625 C 23.449219 11.917969 23.957031 11.816406 24.46875 11.796875 C 25.535156 11.753906 26.613281 12.121094 27.429688 12.445312 C 27.46875 12.460938 27.488281 12.511719 27.472656 12.550781 C 27.457031 12.59375 27.410156 12.617188 27.367188 12.597656 C 26.566406 12.28125 25.511719 11.917969 24.472656 11.960938 C 23.972656 11.980469 23.476562 12.078125 22.992188 12.175781 C 22.472656 12.277344 21.933594 12.386719 21.386719 12.394531 C 20.652344 12.40625 19.917969 12.257812 19.210938 12.109375 C 18.539062 11.96875 17.847656 11.824219 17.152344 11.824219 C 17.152344 11.824219 17.148438 11.824219 17.148438 11.824219 C 16.429688 11.824219 15.714844 11.996094 15.027344 12.160156 C 14.382812 12.3125 13.71875 12.472656 13.035156 12.5 C 12.359375 12.523438 11.691406 12.414062 11.039062 12.308594 C 9.792969 12.109375 8.617188 11.917969 7.453125 12.613281 C 7.4375 12.621094 7.425781 12.625 7.410156 12.625" />
  <path fill="#010101" d="M 7.261719 14.207031 C 7.234375 14.207031 7.207031 14.191406 7.191406 14.167969 C 7.167969 14.128906 7.179688 14.078125 7.21875 14.054688 C 8.988281 12.980469 10.210938 13.257812 11.628906 13.585938 C 12.285156 13.734375 12.964844 13.890625 13.765625 13.929688 C 14.710938 13.976562 15.628906 13.785156 16.519531 13.601562 C 17.296875 13.441406 18.101562 13.277344 18.921875 13.265625 C 19.710938 13.257812 20.460938 13.441406 21.191406 13.617188 C 21.859375 13.777344 22.550781 13.945312 23.253906 13.964844 C 23.796875 13.976562 24.265625 13.882812 24.71875 13.789062 C 25.523438 13.625 26.28125 13.464844 27.296875 13.945312 C 27.339844 13.964844 27.355469 14.011719 27.335938 14.054688 C 27.316406 14.09375 27.269531 14.113281 27.230469 14.09375 C 26.261719 13.636719 25.527344 13.789062 24.75 13.949219 C 24.289062 14.046875 23.808594 14.140625 23.25 14.128906 C 22.527344 14.109375 21.828125 13.941406 21.152344 13.777344 C 20.429688 13.601562 19.683594 13.421875 18.925781 13.429688 C 18.117188 13.4375 17.324219 13.605469 16.550781 13.761719 C 15.652344 13.949219 14.71875 14.140625 13.757812 14.09375 C 12.945312 14.054688 12.257812 13.894531 11.59375 13.742188 C 10.210938 13.425781 9.015625 13.152344 7.304688 14.195312 C 7.289062 14.203125 7.277344 14.207031 7.261719 14.207031" />
  <path fill="#010101" d="M 22.511719 16.320312 C 21.84375 16.320312 21.15625 16.09375 20.429688 15.851562 C 19.726562 15.621094 19 15.382812 18.273438 15.351562 C 17.4375 15.316406 16.621094 15.53125 15.832031 15.738281 C 15.066406 15.9375 14.273438 16.140625 13.449219 16.132812 C 12.757812 16.121094 12.132812 15.933594 11.527344 15.75 C 11.09375 15.621094 10.644531 15.484375 10.171875 15.417969 C 9.203125 15.273438 7.945312 15.578125 6.960938 16.183594 C 6.921875 16.210938 6.871094 16.199219 6.847656 16.160156 C 6.824219 16.121094 6.835938 16.070312 6.875 16.046875 C 7.890625 15.417969 9.191406 15.109375 10.191406 15.253906 C 10.679688 15.324219 11.132812 15.460938 11.574219 15.59375 C 12.195312 15.78125 12.78125 15.957031 13.453125 15.96875 C 14.25 15.976562 15.035156 15.777344 15.789062 15.578125 C 16.589844 15.371094 17.417969 15.15625 18.28125 15.1875 C 19.027344 15.21875 19.765625 15.460938 20.480469 15.695312 C 21.207031 15.9375 21.898438 16.160156 22.550781 16.15625 C 23.058594 16.148438 23.582031 16.058594 24.132812 15.964844 C 25.160156 15.792969 26.21875 15.613281 27.179688 16.003906 C 27.222656 16.019531 27.242188 16.070312 27.226562 16.109375 C 27.207031 16.152344 27.160156 16.171875 27.121094 16.15625 C 26.203125 15.78125 25.164062 15.957031 24.160156 16.128906 C 23.625 16.21875 23.074219 16.3125 22.550781 16.320312 C 22.539062 16.320312 22.527344 16.320312 22.511719 16.320312" />
  <path fill="#010101" d="M 6.65625 18.132812 C 6.632812 18.132812 6.605469 18.121094 6.589844 18.097656 C 6.5625 18.058594 6.574219 18.007812 6.609375 17.984375 C 8.15625 16.886719 9.445312 17.148438 10.808594 17.429688 C 11.46875 17.566406 12.148438 17.707031 12.898438 17.703125 C 13.773438 17.695312 14.640625 17.5 15.480469 17.308594 C 16.390625 17.101562 17.328125 16.890625 18.289062 16.914062 C 18.839844 16.929688 19.34375 17.113281 19.835938 17.289062 C 20.03125 17.359375 20.234375 17.433594 20.4375 17.496094 C 21.328125 17.765625 22.121094 17.890625 23.003906 17.898438 C 23.015625 17.898438 23.027344 17.898438 23.039062 17.898438 C 23.566406 17.898438 24.121094 17.785156 24.664062 17.671875 C 25.511719 17.496094 26.394531 17.3125 27.214844 17.554688 C 27.257812 17.566406 27.28125 17.613281 27.269531 17.65625 C 27.257812 17.699219 27.210938 17.722656 27.171875 17.710938 C 26.386719 17.480469 25.527344 17.660156 24.695312 17.832031 C 24.132812 17.949219 23.558594 18.070312 23 18.0625 C 22.101562 18.054688 21.296875 17.925781 20.390625 17.652344 C 20.183594 17.589844 19.976562 17.515625 19.777344 17.445312 C 19.28125 17.261719 18.808594 17.09375 18.285156 17.078125 C 17.347656 17.054688 16.417969 17.265625 15.515625 17.46875 C 14.667969 17.660156 13.792969 17.859375 12.898438 17.863281 C 12.128906 17.863281 11.445312 17.726562 10.777344 17.589844 C 9.449219 17.316406 8.191406 17.058594 6.703125 18.117188 C 6.6875 18.125 6.671875 18.132812 6.65625 18.132812" />
  <path fill="#010101" d="M 6.488281 20.472656 C 6.457031 20.472656 6.429688 20.457031 6.414062 20.429688 C 6.394531 20.386719 6.414062 20.339844 6.453125 20.320312 C 8.578125 19.300781 9.777344 19.378906 11.441406 19.484375 C 11.960938 19.519531 12.550781 19.554688 13.226562 19.5625 C 14 19.574219 14.765625 19.429688 15.507812 19.289062 C 16.207031 19.15625 16.933594 19.019531 17.667969 19.011719 C 18.425781 19.003906 19.179688 19.15625 19.902344 19.304688 C 20.535156 19.433594 21.183594 19.570312 21.835938 19.59375 C 22.578125 19.621094 23.371094 19.640625 24.195312 19.542969 C 24.425781 19.515625 24.65625 19.480469 24.882812 19.445312 C 25.675781 19.328125 26.492188 19.203125 27.3125 19.378906 C 27.355469 19.386719 27.382812 19.429688 27.375 19.476562 C 27.363281 19.519531 27.320312 19.546875 27.277344 19.539062 C 26.488281 19.371094 25.683594 19.492188 24.910156 19.605469 C 24.675781 19.640625 24.445312 19.675781 24.214844 19.703125 C 23.378906 19.804688 22.578125 19.785156 21.832031 19.757812 C 21.164062 19.730469 20.507812 19.597656 19.871094 19.464844 C 19.152344 19.320312 18.414062 19.171875 17.671875 19.175781 C 16.949219 19.183594 16.230469 19.320312 15.535156 19.449219 C 14.789062 19.589844 14.011719 19.738281 13.222656 19.726562 C 12.542969 19.71875 11.953125 19.679688 11.429688 19.648438 C 9.730469 19.539062 8.609375 19.464844 6.523438 20.464844 C 6.511719 20.472656 6.5 20.472656 6.488281 20.472656" />
  <g clip-path="url(#d)">
    <path fill="#FF9500" d="M 13.75 3.75 C 10.679688 3.125 8.722656 3.316406 6.765625 4.085938 C 6.515625 3.597656 6.199219 3.277344 5.878906 2.882812 C 5.769531 2.75 5.554688 2.824219 5.546875 2.996094 C 5.441406 5.039062 5.105469 8.371094 5.988281 10.003906 C 7.132812 12.121094 9.605469 11.722656 11.582031 11.488281 C 12.460938 11.386719 13.511719 11.421875 14.070312 10.621094 C 15.039062 9.230469 14.984375 4.214844 15.03125 1.925781 C 15.035156 1.753906 14.816406 1.675781 14.710938 1.8125 C 14.273438 2.378906 13.898438 3.070312 13.75 3.75" />
  </g>
  <path fill="#010101" d="M 12.433594 8.078125 C 12.402344 8.078125 12.371094 8.058594 12.359375 8.027344 C 12.34375 7.984375 12.363281 7.9375 12.402344 7.921875 C 14.269531 7.171875 16.574219 6.699219 18.417969 6.6875 C 18.464844 6.6875 18.5 6.722656 18.5 6.769531 C 18.5 6.816406 18.464844 6.851562 18.421875 6.851562 C 16.59375 6.863281 14.3125 7.332031 12.464844 8.074219 C 12.453125 8.078125 12.445312 8.078125 12.433594 8.078125" />
  <path fill="#010101" d="M 12.496094 8.417969 C 12.460938 8.417969 12.429688 8.394531 12.417969 8.359375 C 12.40625 8.316406 12.429688 8.269531 12.472656 8.257812 C 14.78125 7.527344 16.800781 7.363281 18.648438 7.769531 C 18.691406 7.777344 18.71875 7.820312 18.710938 7.867188 C 18.703125 7.910156 18.660156 7.9375 18.613281 7.929688 C 16.796875 7.53125 14.804688 7.691406 12.519531 8.414062 C 12.511719 8.417969 12.503906 8.417969 12.496094 8.417969" />
  <path fill="#010101" d="M 18.214844 9.089844 C 18.207031 9.089844 18.199219 9.089844 18.195312 9.089844 C 16.308594 8.589844 14.273438 8.75 12.710938 8.945312 C 12.664062 8.949219 12.625 8.917969 12.621094 8.871094 C 12.613281 8.828125 12.644531 8.785156 12.691406 8.78125 C 14.265625 8.585938 16.320312 8.425781 18.234375 8.929688 C 18.277344 8.941406 18.304688 8.984375 18.292969 9.03125 C 18.28125 9.066406 18.25 9.089844 18.214844 9.089844" />
  <g clip-path="url(#e)">
    <path fill="#010101" d="M 7.15625 8.570312 C 7.152344 8.570312 7.152344 8.570312 7.148438 8.570312 C 6.769531 8.523438 6.378906 8.46875 6.003906 8.417969 C 4.460938 8.199219 2.867188 7.976562 1.320312 8.355469 C 1.277344 8.367188 1.234375 8.339844 1.222656 8.296875 C 1.210938 8.253906 1.238281 8.207031 1.28125 8.195312 C 2.859375 7.808594 4.46875 8.035156 6.027344 8.253906 C 6.402344 8.308594 6.789062 8.363281 7.167969 8.40625 C 7.210938 8.410156 7.242188 8.453125 7.238281 8.496094 C 7.234375 8.539062 7.199219 8.570312 7.15625 8.570312" />
  </g>
  <g clip-path="url(#f)">
    <path fill="#010101" d="M 1.726562 9.800781 C 1.695312 9.800781 1.664062 9.78125 1.652344 9.746094 C 1.636719 9.707031 1.65625 9.65625 1.699219 9.640625 C 3.363281 8.972656 5.363281 8.761719 7.191406 9.0625 C 7.234375 9.070312 7.265625 9.109375 7.257812 9.15625 C 7.25 9.199219 7.207031 9.230469 7.164062 9.222656 C 5.367188 8.929688 3.394531 9.136719 1.757812 9.792969 C 1.746094 9.796875 1.738281 9.800781 1.726562 9.800781" />
  </g>
  <path fill="#010101" d="M 2.351562 11.867188 C 2.328125 11.867188 2.304688 11.855469 2.289062 11.835938 C 2.261719 11.800781 2.265625 11.75 2.300781 11.71875 C 3.550781 10.683594 5.433594 9.957031 7.460938 9.726562 C 7.503906 9.71875 7.546875 9.753906 7.550781 9.800781 C 7.558594 9.84375 7.527344 9.882812 7.480469 9.890625 C 5.480469 10.117188 3.632812 10.828125 2.402344 11.847656 C 2.386719 11.859375 2.371094 11.867188 2.351562 11.867188" />
  <path fill="#010101" d="M 12.664062 5.648438 C 12.335938 5.648438 11.996094 5.554688 11.679688 5.367188 C 11.640625 5.34375 11.628906 5.292969 11.652344 5.253906 C 11.675781 5.214844 11.726562 5.203125 11.761719 5.222656 C 12.347656 5.574219 13.027344 5.570312 13.492188 5.214844 C 13.527344 5.1875 13.578125 5.195312 13.605469 5.230469 C 13.632812 5.265625 13.625 5.316406 13.589844 5.34375 C 13.324219 5.546875 13.003906 5.648438 12.664062 5.648438" />
  <path fill="#010101" d="M 7.445312 5.929688 C 7.117188 5.929688 6.800781 5.796875 6.519531 5.421875 C 6.492188 5.382812 6.5 5.332031 6.535156 5.304688 C 6.570312 5.277344 6.621094 5.285156 6.648438 5.320312 C 7.167969 6.019531 7.789062 5.761719 8.503906 5.460938 L 8.574219 5.433594 C 8.613281 5.414062 8.660156 5.433594 8.679688 5.476562 C 8.695312 5.519531 8.675781 5.566406 8.632812 5.582031 L 8.566406 5.613281 C 8.191406 5.769531 7.808594 5.929688 7.445312 5.929688" />
  <path fill="#010101" d="M 10.058594 6.699219 C 10.347656 6.792969 10.617188 6.167969 10.753906 5.753906 C 10.796875 5.625 10.6875 5.5 10.554688 5.523438 C 10.328125 5.566406 10.074219 5.617188 9.851562 5.644531 C 9.707031 5.664062 9.613281 5.804688 9.652344 5.945312 C 9.730469 6.230469 9.875 6.640625 10.058594 6.699219" />
  <path fill="#010101" d="M 10.304688 8.984375 C 10.261719 8.984375 10.226562 8.949219 10.222656 8.90625 C 10.207031 8.644531 10.167969 8.367188 10.132812 8.097656 C 10.066406 7.625 10 7.136719 10.050781 6.667969 C 10.054688 6.621094 10.09375 6.589844 10.140625 6.59375 C 10.183594 6.597656 10.214844 6.640625 10.210938 6.683594 C 10.164062 7.136719 10.230469 7.613281 10.292969 8.074219 C 10.332031 8.347656 10.371094 8.628906 10.382812 8.898438 C 10.386719 8.945312 10.351562 8.980469 10.308594 8.984375 C 10.304688 8.984375 10.304688 8.984375 10.304688 8.984375" />
  <g>
    <g>
      <g>
        <path d="M 3.09375 0.015625 C 4.214844 0.015625 5.101562 -0.703125 5.714844 -1.5625 C 5.761719 -1.609375 5.777344 -1.671875 5.777344 -1.730469 C 5.777344 -1.855469 5.667969 -1.992188 5.5 -1.992188 C 5.394531 -1.992188 5.332031 -1.929688 5.285156 -1.871094 C 4.765625 -1.148438 4 -0.503906 3.09375 -0.503906 C 1.839844 -0.503906 1.257812 -1.671875 1.257812 -3.078125 C 1.257812 -3.96875 1.839844 -4.949219 2.726562 -4.949219 C 3.277344 -4.949219 3.601562 -4.519531 4 -4.042969 C 4.042969 -3.96875 4.105469 -3.9375 4.199219 -3.9375 C 4.320312 -3.9375 4.488281 -4.042969 4.488281 -4.214844 C 4.488281 -4.257812 4.472656 -4.304688 4.429688 -4.382812 C 4.058594 -5.011719 3.523438 -5.46875 2.726562 -5.46875 C 1.65625 -5.46875 0.84375 -4.472656 0.71875 -3.308594 C 0.566406 -3.078125 -0.167969 -1.992188 -0.214844 -1.855469 C -0.246094 -1.808594 -0.261719 -1.761719 -0.261719 -1.699219 C -0.261719 -1.625 -0.214844 -1.5625 -0.136719 -1.515625 C -0.015625 -1.410156 0.152344 -1.484375 0.214844 -1.5625 C 0.351562 -1.746094 0.675781 -2.265625 0.78125 -2.480469 C 0.949219 -1.132812 1.671875 0.015625 3.09375 0.015625 Z M 3.09375 0.015625" transform="translate(35.839 15.367)" />
      </g>
    </g>
  </g>
  <g>
    <g>
      <g>
        <path d="M 4.640625 -0.445312 C 5.210938 -0.445312 5.851562 -1.132812 6.066406 -1.5625 C 6.113281 -1.640625 6.128906 -1.683594 6.128906 -1.730469 C 6.128906 -1.855469 6.035156 -1.992188 5.867188 -1.992188 C 5.792969 -1.992188 5.683594 -1.960938 5.621094 -1.855469 C 5.46875 -1.53125 4.964844 -0.964844 4.640625 -0.964844 C 4.429688 -0.964844 4.121094 -1.5 3.90625 -1.929688 C 3.753906 -2.222656 3.339844 -3.125 3.246094 -3.339844 C 2.804688 -4.273438 2.253906 -5.253906 1.101562 -5.253906 C 0.0625 -5.253906 -0.703125 -4.105469 -0.703125 -3.125 C -0.703125 -1.898438 0.335938 -0.460938 1.457031 -0.460938 C 2.480469 -0.460938 2.773438 -1.457031 2.773438 -2.421875 C 2.773438 -2.710938 2.742188 -2.972656 2.726562 -3.203125 C 3.261719 -2.128906 3.785156 -0.445312 4.640625 -0.445312 Z M 1.457031 -0.980469 C 0.644531 -0.980469 -0.183594 -2.207031 -0.183594 -3.125 C -0.183594 -3.816406 0.304688 -4.734375 1.101562 -4.734375 C 2.128906 -4.734375 2.238281 -3.753906 2.238281 -2.636719 C 2.238281 -2.082031 2.175781 -1.671875 2.039062 -1.394531 C 1.898438 -1.117188 1.714844 -0.980469 1.457031 -0.980469 Z M 1.457031 -0.980469" transform="translate(41.339 15.367)" />
      </g>
    </g>
  </g>
  <g>
    <g>
      <g>
        <path d="M 2.160156 -0.078125 C 3.078125 -0.078125 3.832031 -0.964844 4.152344 -1.578125 C 4.230469 -1.699219 4.199219 -1.839844 4.089844 -1.945312 C 4.042969 -1.976562 3.984375 -1.992188 3.90625 -1.992188 C 3.832031 -1.992188 3.769531 -1.945312 3.691406 -1.855469 C 3.308594 -1.285156 2.863281 -0.582031 2.039062 -0.582031 C 0.367188 -0.582031 -0.261719 -3.203125 -0.382812 -5.46875 L 1.5625 -5.46875 C 1.976562 -5.46875 2.238281 -5.515625 2.4375 -5.621094 C 2.542969 -5.683594 2.511719 -5.929688 2.34375 -5.945312 L 0.964844 -5.945312 C 0.535156 -5.945312 0.078125 -5.945312 -0.429688 -5.960938 C -0.445312 -6.863281 -0.519531 -7.691406 -0.644531 -8.304688 C -0.828125 -8.441406 -1.058594 -8.289062 -1.058594 -8.105469 C -1.058594 -7.628906 -1.011719 -6.25 -0.980469 -5.945312 C -1.300781 -5.945312 -1.578125 -5.929688 -1.871094 -5.882812 C -1.992188 -5.867188 -2.023438 -5.636719 -1.882812 -5.621094 C -1.59375 -5.5 -1.316406 -5.5 -0.949219 -5.484375 C -0.886719 -4.703125 -0.796875 -3.84375 -0.613281 -3.050781 C -0.503906 -2.652344 -0.382812 -2.265625 -0.246094 -1.914062 C 0.214844 -0.828125 0.964844 -0.078125 2.160156 -0.078125 Z M 2.160156 -0.078125" transform="translate(47.19 15.367)" />
      </g>
    </g>
  </g>
  <g>
    <g>
      <g>
        <path d="M 2.160156 -0.078125 C 3.078125 -0.078125 3.832031 -0.964844 4.152344 -1.578125 C 4.230469 -1.699219 4.199219 -1.839844 4.089844 -1.945312 C 4.042969 -1.976562 3.984375 -1.992188 3.90625 -1.992188 C 3.832031 -1.992188 3.769531 -1.945312 3.691406 -1.855469 C 3.308594 -1.285156 2.863281 -0.582031 2.039062 -0.582031 C 0.367188 -0.582031 -0.261719 -3.203125 -0.382812 -5.46875 L 1.5625 -5.46875 C 1.976562 -5.46875 2.238281 -5.515625 2.4375 -5.621094 C 2.542969 -5.683594 2.511719 -5.929688 2.34375 -5.945312 L 0.964844 -5.945312 C 0.535156 -5.945312 0.078125 -5.945312 -0.429688 -5.960938 C -0.445312 -6.863281 -0.519531 -7.691406 -0.644531 -8.304688 C -0.828125 -8.441406 -1.058594 -8.289062 -1.058594 -8.105469 C -1.058594 -7.628906 -1.011719 -6.25 -0.980469 -5.945312 C -1.300781 -5.945312 -1.578125 -5.929688 -1.871094 -5.882812 C -1.992188 -5.867188 -2.023438 -5.636719 -1.882812 -5.621094 C -1.59375 -5.5 -1.316406 -5.5 -0.949219 -5.484375 C -0.886719 -4.703125 -0.796875 -3.84375 -0.613281 -3.050781 C -0.503906 -2.652344 -0.382812 -2.265625 -0.246094 -1.914062 C 0.214844 -0.828125 0.964844 -0.078125 2.160156 -0.078125 Z M 2.160156 -0.078125" transform="translate(51.128 15.367)" />
      </g>
    </g>
  </g>
  <g>
    <g>
      <g>
        <path d="M 2.28125 -0.503906 C 3.078125 -0.503906 3.585938 -0.886719 4.257812 -1.546875 C 4.304688 -1.609375 4.320312 -1.683594 4.320312 -1.730469 C 4.320312 -1.855469 4.214844 -1.992188 4.042969 -1.992188 C 3.96875 -1.992188 3.890625 -1.945312 3.816406 -1.871094 C 3.402344 -1.394531 2.835938 -1.027344 2.28125 -1.027344 C 1.472656 -1.027344 0.917969 -1.300781 0.503906 -1.671875 C 1.164062 -2.40625 1.808594 -3.476562 1.808594 -4.304688 C 1.808594 -4.933594 1.300781 -5.453125 0.660156 -5.453125 C -0.277344 -5.453125 -0.902344 -4.65625 -0.902344 -3.371094 C -0.902344 -1.792969 0.503906 -0.503906 2.28125 -0.503906 Z M 0.136719 -2.007812 C -0.152344 -2.359375 -0.367188 -2.820312 -0.367188 -3.371094 C -0.367188 -4.058594 -0.152344 -4.933594 0.660156 -4.933594 C 1.074219 -4.933594 1.273438 -4.71875 1.273438 -4.304688 C 1.273438 -3.523438 0.550781 -2.558594 0.136719 -2.007812 Z M 0.136719 -2.007812" transform="translate(55.065 15.367)" />
      </g>
    </g>
  </g>
  <g>
    <g>
      <g>
        <path d="M 4.535156 -0.519531 C 5.222656 -0.519531 5.992188 -1.316406 6.082031 -1.714844 C 6.082031 -1.824219 5.992188 -1.992188 5.820312 -1.992188 C 5.730469 -1.992188 5.667969 -1.960938 5.621094 -1.898438 C 5.300781 -1.53125 5.011719 -1.027344 4.535156 -1.027344 C 3.953125 -1.027344 3.492188 -2.375 3.492188 -3.277344 C 3.492188 -3.722656 3.539062 -4.136719 3.617188 -4.550781 C 3.691406 -4.949219 3.738281 -5.363281 3.769531 -5.792969 C 3.769531 -5.898438 3.691406 -6.019531 3.523438 -6.019531 C 3.339844 -6.019531 2.375 -5.515625 1.945312 -5.515625 C 1.699219 -5.515625 1.472656 -5.5625 1.257812 -5.636719 C 1.027344 -5.714844 0.8125 -5.746094 0.582031 -5.746094 C 0.445312 -5.746094 0.335938 -5.714844 0.335938 -5.546875 C 0.335938 -5.316406 0.351562 -5.101562 0.367188 -4.917969 C 0.382812 -4.71875 0.382812 -4.535156 0.382812 -4.335938 C 0.382812 -3.460938 0.292969 -2.636719 -0.214844 -1.882812 C -0.246094 -1.824219 -0.261719 -1.761719 -0.261719 -1.714844 C -0.261719 -1.59375 -0.167969 -1.472656 0 -1.472656 C 0.105469 -1.472656 0.183594 -1.515625 0.230469 -1.59375 C 0.8125 -2.605469 0.917969 -3.21875 0.917969 -4.289062 L 0.917969 -4.765625 C 0.902344 -4.902344 0.902344 -5.054688 0.902344 -5.195312 C 1.285156 -5.070312 1.640625 -4.980469 1.960938 -4.980469 C 2.453125 -4.980469 2.835938 -5.164062 3.1875 -5.394531 L 3.050781 -4.257812 C 3.003906 -3.875 2.972656 -3.554688 2.972656 -3.277344 C 2.972656 -2.128906 3.585938 -0.519531 4.535156 -0.519531 Z M 4.535156 -0.519531" transform="translate(59.109 15.367)" />
      </g>
    </g>
  </g>
  <g>
    <g>
      <g>
        <path d="M 0.964844 10.019531 C 1.929688 10.019531 2.621094 9.53125 3.109375 8.75 C 3.355469 8.363281 3.554688 7.921875 3.707031 7.414062 C 4.015625 6.417969 4.183594 5.300781 4.242188 4.214844 C 4.273438 3.675781 4.289062 3.171875 4.289062 2.695312 C 4.289062 2.128906 4.273438 1.671875 4.257812 1.300781 C 5.195312 0.367188 6.449219 -0.597656 7.109375 -1.59375 C 7.140625 -1.640625 7.15625 -1.683594 7.15625 -1.730469 C 7.15625 -1.914062 6.972656 -1.992188 6.894531 -1.992188 C 6.773438 -1.992188 6.695312 -1.914062 6.679688 -1.871094 C 5.929688 -0.933594 5.070312 -0.121094 4.230469 0.597656 C 4.167969 -0.292969 4.074219 -1.929688 3.921875 -2.679688 C 3.859375 -2.925781 3.707031 -2.894531 3.632812 -2.894531 C 3.507812 -2.894531 3.402344 -2.804688 3.402344 -2.679688 C 3.402344 -1.273438 2.757812 0.71875 1.59375 0.71875 C 0.71875 0.71875 0.246094 0 0.246094 -0.78125 L 0.246094 -1.210938 C 0.246094 -1.347656 0.277344 -1.5 0.320312 -1.65625 C 0.367188 -1.792969 0.304688 -2.007812 0.105469 -2.007812 C -0.015625 -2.007812 -0.121094 -1.929688 -0.183594 -1.792969 C -0.304688 -1.5625 -0.292969 -1.164062 -0.292969 -0.78125 C -0.292969 0.519531 0.519531 1.242188 1.59375 1.242188 C 2.773438 1.242188 3.402344 0.105469 3.570312 -1.058594 C 3.617188 -0.675781 3.660156 -0.335938 3.675781 -0.015625 L 3.722656 1.011719 C 3.078125 1.59375 1.839844 2.773438 1.273438 3.445312 C 0.0625 4.78125 -0.996094 6.21875 -0.996094 8.042969 C -0.996094 9.222656 -0.105469 10.019531 0.964844 10.019531 Z M 0.964844 9.5 C 0.152344 9.5 -0.460938 9.007812 -0.460938 8.042969 C -0.460938 7.261719 -0.183594 6.449219 0.246094 5.699219 C 0.460938 5.316406 0.703125 4.949219 0.996094 4.597656 C 1.5625 3.859375 2.207031 3.1875 2.835938 2.574219 C 3.15625 2.265625 3.445312 1.976562 3.738281 1.714844 C 3.738281 2.464844 3.753906 3.585938 3.660156 4.75 C 3.617188 5.316406 3.539062 5.898438 3.433594 6.464844 C 3.21875 7.597656 2.820312 8.519531 2.160156 9.085938 C 1.839844 9.359375 1.441406 9.5 0.964844 9.5 Z M 0.964844 9.5" transform="translate(64.93 15.367)" />
      </g>
    </g>
  </g>
</svg>