<svg xmlns="http://www.w3.org/2000/svg" width="375" viewBox="0 0 375 375" height="375" version="1.0">
  <defs>
    <clipPath id="a">
      <path d="M 74.140625 22.265625 L 294 22.265625 L 294 353.015625 L 74.140625 353.015625 Z M 74.140625 22.265625" />
    </clipPath>
    <clipPath id="b">
      <path d="M 243 121 L 374.820312 121 L 374.820312 133.449219 L 243 133.449219 Z M 243 121" />
    </clipPath>
  </defs>
  <path d="M 284.128906 334.902344 C 309.691406 314.175781 316.097656 282.574219 317.675781 249.820312 C 319.695312 208.582031 311.894531 208.074219 315.851562 206.800781 C 316.691406 206.523438 317.605469 206.996094 317.875 207.84375 C 322.28125 221.625 321.570312 236.039062 320.890625 249.980469 C 319.15625 283.617188 312.757812 315.832031 286.15625 337.40625 C 284.519531 338.730469 282.46875 336.25 284.128906 334.902344" />
  <g clip-path="url(#a)">
    <path fill="#FFC736" d="M 267.515625 45.636719 C 215.972656 36.816406 156.925781 40.277344 106.695312 55.476562 C 102.722656 47.625 97.410156 40.417969 91.042969 34.332031 C 89.039062 32.414062 85.660156 33.851562 85.601562 36.628906 C 85.027344 63.035156 87.082031 89.324219 86.472656 115.78125 C 85.546875 155.894531 81.503906 195.875 80.242188 235.964844 C 79.339844 264.683594 66.957031 294.660156 81.070312 322.011719 C 108.46875 375.101562 180.144531 343.667969 225.757812 344.96875 C 239.410156 345.363281 280.605469 348.558594 287.894531 334.929688 C 297.960938 316.117188 291.925781 278.039062 292.734375 256.496094 C 294.332031 213.824219 287.675781 170.941406 286.371094 128.1875 C 285.355469 94.890625 289.003906 59.90625 285.472656 26.535156 C 284.992188 22.003906 279.046875 20.675781 276.589844 24.515625 C 272.347656 31.140625 268.859375 38.730469 267.515625 45.636719" />
  </g>
  <path d="M 240.757812 74.75 C 239.875 74.613281 239.277344 73.789062 239.417969 72.910156 C 240.027344 69.011719 248.203125 75.566406 264.171875 69.976562 C 266.191406 69.277344 267.238281 72.308594 265.234375 73.015625 C 257 75.894531 249.53125 76.136719 240.757812 74.75" />
  <path d="M 108.585938 82 C 106.460938 81.816406 106.753906 78.609375 108.867188 78.789062 C 116.261719 79.453125 123.5 80.28125 130.574219 78.609375 C 132.128906 78.257812 140.328125 84.800781 108.585938 82" />
  <path d="M 235.433594 111.621094 C 274.6875 96.734375 321.589844 82.339844 371.871094 88.5625 C 372.757812 88.671875 373.382812 89.476562 373.273438 90.359375 C 372.464844 97.277344 341.050781 75.011719 236.574219 114.636719 C 234.546875 115.390625 233.464844 112.367188 235.433594 111.621094" />
  <path d="M 243.105469 120.25 C 289.226562 104.894531 332.636719 100.535156 372.136719 107.289062 C 373.011719 107.441406 373.601562 108.269531 373.449219 109.152344 C 372.296875 115.726562 332.652344 93.828125 244.125 123.304688 C 242.082031 123.984375 241.109375 120.910156 243.105469 120.25" />
  <g clip-path="url(#b)">
    <path d="M 373.265625 131.359375 C 367.316406 131.527344 332.476562 114.367188 245.023438 132.992188 C 242.871094 133.375 242.316406 130.273438 244.355469 129.839844 C 296.824219 118.671875 335.488281 118.171875 373.625 128.1875 C 375.414062 128.652344 375.113281 131.304688 373.265625 131.359375" />
  </g>
  <path d="M 124.617188 126.96875 C 121.625 127.054688 121.402344 121.011719 84.09375 116.988281 C 57.546875 114.089844 29.136719 113.285156 2.515625 116.457031 C 0.273438 116.589844 0.121094 113.492188 2.136719 113.253906 C 32.054688 109.695312 101.539062 110.117188 125.378906 123.96875 C 126.78125 124.78125 126.222656 126.925781 124.617188 126.96875" />
  <path d="M 121.453125 140.726562 C 119.882812 140.773438 75.328125 130.683594 16.59375 140.683594 C 14.457031 141.003906 13.988281 137.859375 16.058594 137.507812 C 51.269531 131.503906 87.796875 131.507812 121.683594 137.53125 C 123.585938 137.867188 123.371094 140.675781 121.453125 140.726562" />
  <path d="M 23.609375 170.199219 C 21.847656 170.253906 21.292969 167.808594 22.933594 167.109375 C 52.050781 154.695312 83.867188 148.640625 123 148.144531 C 125.039062 148.117188 125.285156 151.210938 123.039062 151.367188 C 56.769531 152.191406 26.464844 170.121094 23.609375 170.199219" />
  <path d="M 82.910156 190.578125 C 87.324219 187.765625 91.949219 185.40625 96.585938 182.980469 C 105.53125 178.300781 133.667969 171.585938 114.882812 190.417969 C 106.136719 199.183594 92.976562 204.367188 81.648438 208.953125 L 82.910156 190.578125" />
  <path d="M 81.175781 224.957031 C 85.25 222.300781 90.855469 220.195312 95.136719 217.890625 C 100.160156 215.183594 106.171875 211.117188 112.09375 210.878906 C 120.148438 210.554688 115.835938 220.40625 112.347656 223.71875 C 103.796875 231.855469 91.027344 236.035156 80.539062 241.171875 L 81.175781 224.957031" />
  <path d="M 77.671875 259.652344 C 81.789062 257.097656 85.898438 254.558594 90.265625 252.453125 C 94.210938 250.550781 111.363281 242.101562 112.339844 251.816406 C 112.660156 255.007812 110.777344 258.265625 108.613281 260.464844 C 100.351562 268.882812 86.511719 272.953125 75.601562 277.082031 L 77.671875 259.652344" />
  <path d="M 123.449219 322.140625 C 125.882812 293.699219 124.945312 264.636719 127.390625 236.027344 C 127.5625 233.945312 130.78125 234.152344 130.597656 236.300781 C 128.167969 264.75 129.105469 293.816406 126.65625 322.410156 C 126.472656 324.53125 123.265625 324.273438 123.449219 322.140625" />
  <path d="M 231.941406 321.609375 C 230.949219 321.640625 230.164062 320.773438 230.300781 319.785156 C 234.140625 290.882812 226.347656 260.792969 229.257812 231.390625 C 229.46875 229.273438 232.675781 229.585938 232.464844 231.707031 C 229.847656 258.160156 239.203125 321.402344 231.941406 321.609375" />
  <path d="M 125.1875 321.792969 C 120.027344 323.464844 113.285156 326.601562 110.414062 331.375 C 107.660156 335.960938 109.773438 340.863281 114.960938 336.5 C 116.949219 334.828125 118.261719 332.144531 120.25 330.605469 C 121.320312 329.78125 120.410156 333.304688 120.417969 334.65625 C 120.433594 336.574219 119.894531 344.027344 122.46875 344.667969 C 129.070312 346.300781 127.839844 334.324219 127.546875 331.015625 C 127.5 330.519531 127.980469 331.90625 128.214844 332.339844 C 128.675781 333.195312 129.199219 334.011719 129.710938 334.835938 C 131.117188 337.082031 133.707031 342.128906 136.574219 338.371094 C 142.480469 330.625 129.957031 324.605469 125.1875 321.792969" />
  <path d="M 231.828125 318.359375 C 228.90625 319.925781 218.753906 330.238281 220.617188 334.003906 C 222.8125 338.433594 229.066406 329.621094 230.011719 327.972656 C 229.851562 329.6875 230.527344 341.820312 234.886719 336.613281 C 237.320312 333.710938 235.699219 328.617188 234.605469 325.449219 C 236.003906 327.121094 242.484375 335.121094 244.925781 330.277344 C 248.253906 323.660156 236.21875 318.960938 231.828125 318.359375" />
  <path d="M 153.402344 46.265625 C 152.996094 50.414062 149.359375 66.085938 153.195312 69.792969 C 156.222656 72.730469 161.222656 67.417969 162.609375 65.253906 C 166.546875 59.113281 168.085938 50.984375 167.230469 43.636719 L 153.402344 46.265625" />
  <path d="M 287.53125 166.125 C 280.089844 162.222656 271.753906 157.453125 263.148438 157.144531 C 259.945312 157.027344 253.464844 157.738281 255.4375 162.570312 C 257.039062 166.496094 261.363281 168.257812 265.027344 169.640625 C 272.90625 172.597656 280.789062 175.132812 288.582031 178.34375 L 287.53125 166.125" />
  <path d="M 290.398438 199.15625 C 282.105469 194.835938 271.0625 191.421875 261.703125 190.585938 C 255.125 190 250.683594 192.664062 256.890625 199.515625 C 261.148438 204.21875 268.207031 205.734375 274.109375 207.175781 C 280.050781 208.628906 285.738281 210.691406 291.46875 212.820312 L 290.398438 199.15625" />
  <path d="M 292.304688 233.070312 C 284.308594 228.476562 273.628906 225.183594 264.320312 225.125 C 259.804688 225.09375 253.191406 226.703125 256.621094 232.601562 C 258.941406 236.601562 264.382812 238.445312 268.421875 240.054688 C 276.527344 243.273438 285.167969 245.640625 293.09375 249.308594 L 292.304688 233.070312" />
  <path d="M 175.457031 43.496094 C 174.933594 46.226562 174.628906 48.910156 174.519531 51.6875 C 174.414062 54.40625 172.839844 66.566406 178.515625 63.367188 C 180.402344 62.304688 181.597656 60.148438 182.332031 58.207031 C 184.394531 52.789062 184.890625 48.8125 184.550781 43.046875 L 175.457031 43.496094" />
  <path d="M 172.628906 90.351562 C 180.671875 107.816406 187.304688 95.363281 191.21875 84.085938 C 191.839844 82.292969 190.566406 80.394531 188.671875 80.265625 C 183.589844 79.929688 178.390625 80.082031 173.503906 81.421875 C 171.28125 82.03125 170.132812 84.515625 171.023438 86.636719 C 171.59375 87.992188 172.195312 89.40625 172.628906 90.351562" />
  <path d="M 192.773438 42.242188 C 192.03125 47.644531 191.226562 56.675781 193.476562 61.976562 C 194.855469 65.238281 197.460938 65.667969 199.835938 62.582031 C 201.9375 59.859375 202.636719 56.359375 203.0625 53.023438 C 203.542969 49.28125 203.828125 45.511719 204.113281 41.753906 L 192.773438 42.242188" />
  <path d="M 173.015625 154.832031 C 167.863281 154.984375 161.933594 150.589844 160.972656 140.441406 C 160.785156 138.367188 163.96875 137.929688 164.183594 140.136719 C 164.636719 144.949219 166.035156 148.035156 168.714844 150.128906 C 170.722656 151.695312 173.054688 152.050781 175.105469 151.101562 C 179.210938 149.210938 179.0625 148.703125 179.164062 110.726562 C 179.199219 97.878906 178.664062 96.21875 180.851562 96.101562 C 183.015625 96.125 182.421875 97.40625 182.386719 110.734375 C 182.292969 144.132812 183.707031 154.53125 173.015625 154.832031" />
  <path d="M 178.707031 145.582031 C 178.359375 143.484375 181.535156 142.925781 181.878906 145.054688 C 182.921875 151.359375 193.34375 160.136719 197.96875 138.128906 C 198.414062 136.042969 201.558594 136.707031 201.121094 138.792969 C 195.742188 164.328125 180.328125 155.460938 178.707031 145.582031" />
</svg>