<svg xmlns="http://www.w3.org/2000/svg" width="375" viewBox="0 0 375 375" height="375" version="1.0">
  <defs>
    <clipPath id="a">
      <path d="M 8.410156 13 L 364 13 L 364 371.316406 L 8.410156 371.316406 Z M 8.410156 13" />
    </clipPath>
    <clipPath id="b">
      <path d="M 12 3.816406 L 366.910156 3.816406 L 366.910156 363 L 12 363 Z M 12 3.816406" />
    </clipPath>
  </defs>
  <g clip-path="url(#a)">
    <path fill="#6B6969" d="M 312.398438 151.339844 C 308.941406 147.394531 307.4375 143.761719 307.210938 142.507812 C 308.09375 130.445312 305.164062 116.851562 304.734375 114.949219 C 303.851562 110.855469 302.71875 106.761719 301.351562 102.742188 L 306.125 42.113281 C 307.03125 30.65625 303.105469 23.804688 299.652344 20.070312 C 295.511719 15.59375 289.792969 13.125 283.558594 13.125 C 277.769531 13.125 271.886719 15.195312 266.074219 19.28125 L 242.296875 35.984375 C 224.886719 27.230469 205.542969 22.636719 185.835938 22.636719 C 166.136719 22.636719 146.792969 27.230469 129.382812 35.988281 L 105.601562 19.28125 C 99.789062 15.195312 93.90625 13.125 88.121094 13.125 C 81.882812 13.125 76.167969 15.59375 72.023438 20.070312 C 68.574219 23.804688 64.648438 30.65625 65.546875 42.117188 L 70.324219 102.746094 C 68.964844 106.75 67.832031 110.832031 66.945312 114.917969 C 66.515625 116.820312 63.578125 130.417969 64.460938 142.507812 C 64.242188 143.757812 62.734375 147.394531 59.277344 151.339844 C 54.445312 156.851562 49.503906 158.980469 46.488281 159.136719 L 8.5 161.117188 L 37.765625 185.382812 C 38.441406 185.941406 40.371094 187.507812 43.121094 189.371094 L 32.808594 192.25 L 48.429688 199.550781 C 48.796875 199.738281 83.101562 217.3125 125.878906 227.902344 L 111.039062 287.792969 C 109.058594 287.613281 106.972656 287.507812 104.804688 287.507812 C 93.550781 287.507812 83.558594 290.335938 75.113281 295.910156 C 67.273438 301.082031 62.765625 308.753906 62.421875 317.511719 C 61.902344 330.609375 70.417969 339.144531 78.207031 345.484375 C 78.128906 348.050781 78.5 350.648438 79.335938 353.164062 C 82.359375 362.210938 90.800781 368.292969 100.335938 368.292969 C 102.714844 368.292969 105.066406 367.910156 107.339844 367.152344 C 111.554688 365.75 114.890625 363.914062 117.527344 361.875 C 126.304688 367.542969 136.730469 370.046875 144.589844 370.386719 C 158.308594 371.042969 172.1875 371.375 185.835938 371.375 C 199.484375 371.375 213.359375 371.042969 227.015625 370.390625 C 238.351562 369.902344 254.914062 364.957031 264.292969 352.625 C 270.210938 344.84375 272.238281 335.242188 269.996094 325.597656 L 245.796875 227.902344 C 288.671875 217.289062 322.890625 199.730469 323.234375 199.558594 L 338.914062 192.25 L 328.554688 189.355469 C 331.492188 187.363281 333.476562 185.742188 333.894531 185.394531 L 363.175781 161.117188 L 325.1875 159.136719 C 322.175781 158.980469 317.230469 156.847656 312.398438 151.339844" />
  </g>
  <g clip-path="url(#b)">
    <path fill="#FFF" d="M 316.113281 142.046875 C 312.660156 138.105469 311.15625 134.472656 310.929688 133.21875 C 311.8125 121.15625 308.882812 107.558594 308.453125 105.660156 C 307.566406 101.566406 306.433594 97.472656 305.070312 93.453125 L 309.84375 32.820312 C 310.75 21.367188 306.824219 14.515625 303.371094 10.78125 C 299.226562 6.304688 293.511719 3.835938 287.277344 3.835938 C 281.488281 3.835938 275.601562 5.90625 269.789062 9.988281 L 246.011719 26.691406 C 228.605469 17.941406 209.257812 13.347656 189.554688 13.347656 C 169.855469 13.347656 150.511719 17.941406 133.101562 26.695312 L 109.320312 9.988281 C 103.507812 5.90625 97.625 3.835938 91.839844 3.835938 C 85.601562 3.835938 79.886719 6.304688 75.738281 10.78125 C 72.289062 14.515625 68.367188 21.367188 69.265625 32.824219 L 74.042969 93.457031 C 72.683594 97.460938 71.550781 101.542969 70.664062 105.628906 C 70.234375 107.53125 67.292969 121.128906 68.179688 133.21875 C 67.957031 134.46875 66.453125 138.105469 62.996094 142.046875 C 58.164062 147.5625 53.222656 149.691406 50.203125 149.847656 L 12.214844 151.828125 L 41.484375 176.09375 C 42.160156 176.652344 44.089844 178.214844 46.839844 180.082031 L 36.527344 182.960938 L 52.148438 190.261719 C 52.515625 190.449219 86.820312 208.023438 129.597656 218.613281 L 114.757812 278.5 C 112.777344 278.324219 110.6875 278.21875 108.519531 278.21875 C 97.269531 278.21875 87.277344 281.046875 78.828125 286.621094 C 70.992188 291.792969 66.484375 299.464844 66.140625 308.222656 C 65.621094 321.320312 74.132812 329.855469 81.925781 336.195312 C 81.847656 338.761719 82.214844 341.359375 83.054688 343.875 C 86.074219 352.921875 94.519531 359.003906 104.054688 359.003906 C 106.433594 359.003906 108.78125 358.621094 111.058594 357.863281 C 115.273438 356.457031 118.605469 354.625 121.246094 352.585938 C 130.023438 358.253906 140.449219 360.757812 148.308594 361.097656 C 162.027344 361.753906 175.902344 362.082031 189.554688 362.082031 C 203.203125 362.082031 217.074219 361.753906 230.734375 361.101562 C 242.070312 360.613281 258.632812 355.667969 268.011719 343.332031 C 273.929688 335.554688 275.957031 325.953125 273.714844 316.304688 L 249.511719 218.613281 C 292.386719 207.996094 326.609375 190.441406 326.953125 190.269531 L 342.632812 182.960938 L 332.273438 180.066406 C 335.207031 178.074219 337.195312 176.453125 337.613281 176.105469 L 366.894531 151.828125 L 328.90625 149.847656 C 325.890625 149.691406 320.949219 147.558594 316.113281 142.046875" />
  </g>
  <path fill="#FFF" d="M 104.054688 344.152344 C 101.003906 344.152344 98.164062 342.226562 97.144531 339.175781 C 96.160156 336.214844 97.183594 333.066406 99.472656 331.214844 C 97.957031 329.90625 96.117188 328.472656 94.773438 327.425781 C 87.84375 322.023438 80.679688 316.4375 80.980469 308.804688 C 81.085938 306.082031 82.222656 302.171875 87.015625 299.007812 C 104.128906 287.714844 126.316406 295.917969 127.253906 296.269531 C 131.011719 297.695312 132.910156 301.898438 131.480469 305.660156 C 130.058594 309.410156 128.425781 310.460938 124.671875 309.050781 C 124.457031 308.972656 85.039062 302.992188 104.433594 317.734375 C 111.601562 323.1875 117.546875 326.710938 116.257812 334.199219 C 115.496094 338.625 112.167969 341.84375 106.359375 343.78125 C 105.597656 344.035156 104.820312 344.152344 104.054688 344.152344" />
  <path fill="#F78D11" d="M 126.539062 295.410156 C 126.539062 295.410156 106.921875 290.875 94.972656 293.859375 C 83.015625 296.839844 80.984375 306.738281 80.972656 310.46875 C 80.960938 314.207031 87.964844 322.136719 92.261719 325.496094 C 96.558594 328.859375 100.949219 329.699219 103.003906 331.84375 C 105.058594 333.992188 103.757812 337.074219 103.757812 337.074219 C 103.757812 337.074219 106.554688 335.582031 105.992188 331.285156 C 105.429688 326.992188 101.320312 322.324219 101.320312 322.324219 C 101.320312 322.324219 107.019531 326.992188 108.046875 329.792969 C 109.074219 332.59375 109.074219 332.59375 109.074219 332.59375 C 109.074219 332.59375 110.753906 328.671875 108.324219 324.84375 C 108.324219 324.84375 114.710938 326.523438 115.910156 329.136719 C 117.109375 331.753906 117.109375 331.753906 117.109375 331.753906 C 117.109375 331.753906 115.707031 326.898438 110.472656 322.605469 C 105.246094 318.308594 98.796875 311.777344 98.796875 309.351562 C 98.796875 306.921875 105.835938 307.71875 113.105469 307.878906 C 120.375 308.042969 122.152344 308.324219 122.152344 308.324219 L 126.539062 295.410156" />
  <path fill="#E47718" d="M 127.253906 296.269531 C 127.074219 296.203125 126.125 295.855469 124.601562 295.410156 C 113.535156 299.269531 98.980469 298.707031 94.6875 309.429688 C 91.585938 318.726562 105.648438 325.167969 115.769531 328.746094 C 114.128906 324.605469 109.605469 321.667969 104.433594 317.734375 C 85.039062 302.992188 124.457031 308.972656 124.671875 309.050781 C 128.425781 310.460938 130.058594 309.410156 131.480469 305.660156 C 132.910156 301.898438 131.011719 297.695312 127.253906 296.269531" />
  <path fill="#5F291C" d="M 108.519531 294.742188 C 100.5625 294.742188 93.640625 296.652344 87.941406 300.414062 C 83.746094 303.179688 82.753906 306.542969 82.664062 308.871094 C 82.394531 315.640625 89.214844 320.957031 95.804688 326.101562 C 97.164062 327.15625 99.019531 328.605469 100.570312 329.941406 L 102.09375 331.25 L 100.53125 332.519531 C 98.726562 333.976562 98.007812 336.4375 98.738281 338.640625 C 99.507812 340.933594 101.644531 342.472656 104.054688 342.472656 C 104.65625 342.472656 105.253906 342.375 105.832031 342.183594 C 111 340.464844 113.953125 337.679688 114.597656 333.914062 C 115.546875 328.425781 112.121094 325.585938 105.480469 320.625 C 104.808594 320.121094 104.117188 319.605469 103.414062 319.070312 C 100.378906 316.765625 96.472656 313.320312 97.574219 310.046875 C 98.480469 307.359375 102.269531 306.105469 109.496094 306.105469 C 116.523438 306.105469 124.816406 307.3125 125.257812 307.480469 C 126.128906 307.808594 126.847656 307.972656 127.390625 307.972656 C 127.988281 307.972656 128.804688 307.972656 129.910156 305.0625 C 130.441406 303.664062 130.394531 302.144531 129.777344 300.777344 C 129.164062 299.414062 128.054688 298.371094 126.65625 297.84375 C 126.324219 297.714844 118.359375 294.742188 108.519531 294.742188 Z M 104.054688 345.835938 C 100.191406 345.835938 96.777344 343.375 95.550781 339.703125 C 94.59375 336.828125 95.183594 333.671875 97.003906 331.339844 C 95.863281 330.40625 94.679688 329.480469 93.742188 328.75 C 86.476562 323.089844 78.96875 317.230469 79.300781 308.742188 C 79.425781 305.625 80.703125 301.164062 86.085938 297.605469 C 92.347656 293.476562 99.894531 291.382812 108.519531 291.382812 C 118.792969 291.382812 126.949219 294.359375 127.847656 294.699219 C 130.085938 295.546875 131.863281 297.214844 132.847656 299.398438 C 133.832031 301.582031 133.902344 304.015625 133.054688 306.253906 C 132.15625 308.621094 130.703125 311.332031 127.390625 311.332031 C 126.46875 311.332031 125.429688 311.121094 124.222656 310.683594 C 123.015625 310.476562 115.753906 309.464844 109.496094 309.464844 C 101.414062 309.464844 100.765625 311.105469 100.761719 311.121094 C 100.757812 311.136719 100.363281 312.527344 105.449219 316.398438 C 106.144531 316.925781 106.824219 317.433594 107.492188 317.933594 C 113.804688 322.640625 119.253906 326.710938 117.914062 334.484375 C 117.039062 339.566406 113.332031 343.226562 106.894531 345.371094 C 105.972656 345.679688 105.019531 345.835938 104.054688 345.835938" />
  <path fill="#FEEDD2" d="M 225.824219 251.175781 C 220.21875 228.773438 195.5625 232.132812 177.632812 224.292969 C 168.601562 219.78125 157.410156 216.699219 148.703125 209.824219 C 148.632812 210.429688 148.566406 211.039062 148.488281 211.644531 C 148.488281 211.757812 148.488281 211.875 148.488281 211.972656 C 148.488281 211.875 148.488281 211.757812 148.488281 211.644531 C 143.492188 252.070312 127.195312 293.71875 127.195312 334.074219 C 127.195312 335.742188 127.472656 337.484375 127.988281 339.203125 C 134.035156 343.585938 142.207031 345.976562 149.015625 346.269531 C 176.101562 347.558594 203.011719 347.558594 230.097656 346.269531 C 234.554688 346.078125 239.59375 344.980469 244.242188 343.023438 C 247.03125 311.195312 234.390625 282.210938 225.824219 251.175781" />
  <path fill="#F3CE9A" d="M 214.3125 312.078125 C 213.65625 312.800781 215.320312 345.835938 219.800781 346.539062 C 224.28125 347.234375 241.070312 344.296875 247.457031 341.496094 C 253.84375 338.691406 253.707031 324.550781 253.707031 324.550781 L 243.09375 314.886719 C 243.09375 314.886719 246.417969 326.230469 240.117188 331.972656 C 233.808594 337.710938 223.164062 334.214844 221.621094 325.25 C 220.082031 316.289062 217.515625 308.566406 214.3125 312.078125" />
  <path fill="#F3CE9A" d="M 164.714844 312.078125 C 164.714844 312.078125 167.261719 310.527344 168.105469 312.078125 C 168.945312 313.628906 168.800781 338.949219 172.585938 343.023438 C 176.367188 347.097656 181.410156 346.925781 180.851562 346.871094 C 180.292969 346.816406 161.558594 345.417969 161.558594 345.417969 L 164.714844 312.078125" />
  <path fill="#F3CE9A" d="M 259.25 319.679688 C 248.90625 277.933594 238.5625 236.1875 228.21875 194.4375 C 225.707031 184.664062 218.457031 172.519531 207.140625 171.9375 C 195.429688 172.601562 183.679688 172.601562 171.96875 171.9375 C 160.65625 172.519531 153.402344 184.664062 150.890625 194.4375 C 149.710938 199.199219 148.53125 203.960938 147.351562 208.71875 C 156.226562 216.386719 168.128906 219.542969 177.632812 224.292969 C 195.5625 232.132812 220.21875 228.773438 225.824219 251.175781 C 234.390625 282.210938 247.03125 311.195312 244.242188 343.023438 C 253.929688 338.941406 261.898438 331.085938 259.25 319.679688" />
  <path fill="#F78D11" d="M 157.265625 208.71875 C 157.265625 208.71875 146.058594 245.589844 140.832031 264.449219 C 135.597656 283.300781 137.652344 300.667969 137.652344 300.667969 C 137.652344 300.667969 135.972656 299.546875 133.917969 291.707031 C 133.917969 291.707031 133.734375 299.269531 134.480469 302.816406 L 132.796875 300.855469 C 132.796875 300.855469 131.210938 310.5625 130.554688 322.136719 C 129.902344 333.714844 132.984375 343.023438 132.984375 343.023438 C 132.984375 343.023438 118.59375 331.085938 119.390625 322.761719 C 120.191406 314.4375 147.929688 207.035156 147.929688 207.035156 C 147.929688 207.035156 154.839844 209.5625 157.265625 208.71875" />
  <path fill="#E47718" d="M 221.855469 208.71875 C 221.855469 208.71875 233.0625 245.589844 238.292969 264.449219 C 243.523438 283.300781 241.46875 300.667969 241.46875 300.667969 C 241.46875 300.667969 243.152344 299.546875 245.207031 291.707031 C 245.207031 291.707031 245.390625 299.269531 244.644531 302.816406 L 246.324219 300.855469 C 246.324219 300.855469 247.914062 310.5625 248.570312 322.136719 C 249.222656 333.714844 246.140625 343.023438 246.140625 343.023438 C 246.140625 343.023438 260.53125 331.085938 259.734375 322.761719 C 258.933594 314.4375 231.195312 207.035156 231.195312 207.035156 C 231.195312 207.035156 224.28125 209.5625 221.855469 208.71875" />
  <path fill="#5F291C" d="M 171.96875 173.621094 C 162.15625 174.183594 155.136719 184.679688 152.519531 194.855469 L 121.488281 320.085938 C 120.359375 324.960938 121.289062 329.429688 124.265625 333.332031 C 129.765625 340.566406 140.992188 344.242188 149.085938 344.589844 C 162.550781 345.230469 176.160156 345.554688 189.554688 345.554688 C 202.953125 345.554688 216.5625 345.230469 230.015625 344.59375 C 238.125 344.242188 249.347656 340.566406 254.847656 333.332031 C 257.820312 329.425781 258.75 324.960938 257.613281 320.0625 L 226.589844 194.84375 C 223.972656 184.679688 216.949219 174.183594 207.140625 173.621094 C 195.484375 174.28125 183.625 174.28125 171.96875 173.621094 Z M 189.554688 348.914062 C 176.105469 348.914062 162.441406 348.589844 148.933594 347.945312 C 139.789062 347.554688 127.777344 343.511719 121.589844 335.367188 C 118.035156 330.695312 116.867188 325.140625 118.222656 319.304688 L 149.257812 194.035156 C 152.191406 182.621094 160.324219 170.855469 171.882812 170.261719 L 171.976562 170.253906 L 172.066406 170.261719 C 183.660156 170.917969 195.453125 170.917969 207.046875 170.261719 L 207.140625 170.253906 L 207.230469 170.261719 C 218.785156 170.855469 226.917969 182.621094 229.847656 194.019531 L 260.882812 319.277344 C 262.242188 325.140625 261.082031 330.695312 257.527344 335.367188 C 251.332031 343.511719 239.320312 347.554688 230.167969 347.949219 C 216.667969 348.589844 203.003906 348.914062 189.554688 348.914062" />
  <path fill="#5F291C" d="M 163.234375 347.019531 L 159.886719 346.71875 L 163.125 311.023438 L 166.472656 311.328125 L 163.234375 347.019531" />
  <path fill="#5F291C" d="M 215.882812 347.019531 L 212.640625 311.328125 L 215.988281 311.023438 L 219.230469 346.71875 L 215.882812 347.019531" />
  <path fill="#FEEDD2" d="M 84.074219 31.660156 C 83.097656 19.28125 90.617188 14.996094 100.78125 22.136719 L 129.015625 41.96875 C 139.179688 49.113281 155.808594 60.792969 165.96875 67.929688 L 194.207031 87.765625 C 204.367188 94.902344 203.851562 105.777344 193.066406 111.929688 L 173.367188 123.160156 C 162.574219 129.3125 144.917969 139.378906 134.128906 145.527344 L 114.429688 156.757812 C 103.636719 162.910156 94.011719 157.816406 93.039062 145.441406 L 90.332031 111.050781 C 89.355469 98.675781 87.757812 78.425781 86.785156 66.046875 L 84.074219 31.660156" />
  <path fill="#F3CE9A" d="M 295.035156 31.660156 C 296.011719 19.28125 288.496094 14.996094 278.328125 22.136719 L 250.097656 41.96875 C 239.933594 49.113281 223.304688 60.792969 213.140625 67.929688 L 184.90625 87.765625 C 174.742188 94.902344 175.257812 105.777344 186.042969 111.929688 L 205.75 123.160156 C 216.535156 129.3125 234.191406 139.378906 244.980469 145.527344 L 264.683594 156.757812 C 275.472656 162.910156 285.097656 157.816406 286.074219 145.441406 L 288.78125 111.050781 C 289.753906 98.675781 291.351562 78.425781 292.328125 66.046875 L 295.035156 31.660156" />
  <path fill="#FFF" d="M 253.289062 48.242188 C 253.289062 48.242188 291.207031 19.242188 292.328125 20.714844 C 293.445312 22.195312 287.265625 17.449219 278.328125 22.136719 C 269.394531 26.820312 245.492188 43.207031 245.492188 43.207031 L 253.289062 48.242188" />
  <path fill="#FFF" d="M 95.34375 83.425781 L 90.207031 37.214844 C 90.207031 37.214844 87.625 17.792969 97.039062 18.679688 C 97.039062 18.679688 83.347656 16.71875 84.03125 28.246094 C 84.714844 39.769531 88.925781 93.242188 88.925781 93.242188 L 95.34375 83.425781" />
  <path fill="#5F291C" d="M 91.839844 20.359375 C 90.21875 20.359375 88.890625 20.914062 87.882812 22 C 86.171875 23.851562 85.414062 27.238281 85.753906 31.53125 L 94.714844 145.308594 C 95.316406 152.945312 99.476562 157.6875 105.570312 157.6875 C 108.078125 157.6875 110.851562 156.863281 113.597656 155.300781 L 192.230469 110.472656 C 196.933594 107.789062 199.625 104.121094 199.8125 100.140625 C 200 96.15625 197.667969 92.25 193.242188 89.140625 L 99.816406 23.511719 C 96.882812 21.449219 94.121094 20.359375 91.839844 20.359375 Z M 105.570312 161.050781 C 97.679688 161.050781 92.101562 154.972656 91.363281 145.570312 L 82.398438 31.792969 C 81.980469 26.480469 83.023438 22.304688 85.414062 19.71875 C 87.058594 17.941406 89.277344 17 91.839844 17 C 94.859375 17 98.195312 18.265625 101.746094 20.761719 L 195.171875 86.390625 C 200.574219 90.1875 203.417969 95.125 203.171875 100.296875 C 202.925781 105.46875 199.632812 110.117188 193.898438 113.386719 L 115.261719 158.21875 C 111.96875 160.097656 108.703125 161.050781 105.570312 161.050781" />
  <path fill="#5F291C" d="M 287.277344 20.359375 C 284.988281 20.359375 282.234375 21.449219 279.300781 23.511719 L 185.875 89.140625 C 181.445312 92.25 179.109375 96.15625 179.296875 100.140625 C 179.488281 104.121094 182.175781 107.789062 186.878906 110.472656 L 265.515625 155.300781 C 268.257812 156.863281 271.03125 157.6875 273.542969 157.6875 C 279.636719 157.6875 283.792969 152.945312 284.398438 145.308594 L 293.359375 31.53125 C 293.699219 27.238281 292.941406 23.851562 291.226562 22 C 290.21875 20.914062 288.890625 20.359375 287.277344 20.359375 Z M 273.542969 161.050781 C 270.40625 161.050781 267.144531 160.097656 263.851562 158.21875 L 185.214844 113.386719 C 179.476562 110.117188 176.183594 105.46875 175.941406 100.296875 C 175.695312 95.125 178.535156 90.1875 183.9375 86.390625 L 277.363281 20.761719 C 280.914062 18.265625 284.25 17 287.277344 17 C 289.832031 17 292.050781 17.941406 293.699219 19.71875 C 296.085938 22.304688 297.128906 26.480469 296.710938 31.792969 L 287.75 145.570312 C 287.007812 154.972656 281.429688 161.050781 273.542969 161.050781" />
  <path fill="#E47718" d="M 106.320312 148.113281 C 105.90625 148.140625 105.511719 148.164062 105.433594 148.160156 C 105.363281 148.152344 105.082031 147.886719 104.84375 147.578125 C 104.601562 147.269531 103.976562 141.546875 103.683594 137.859375 L 95.875 38.710938 C 95.582031 35.027344 97.820312 33.75 100.847656 35.878906 L 182.257812 93.0625 C 185.285156 95.191406 188.324219 97.503906 189.019531 98.207031 C 189.707031 98.910156 190.152344 99.996094 189.976562 100.34375 C 189.796875 100.695312 184.882812 103.695312 181.667969 105.527344 L 114.714844 143.699219 C 111.503906 145.527344 106.734375 148.082031 106.320312 148.113281" />
  <path fill="#E47718" d="M 273.765625 148.15625 C 273.644531 148.164062 273.203125 148.140625 272.789062 148.113281 C 272.378906 148.082031 267.609375 145.53125 264.394531 143.699219 L 197.441406 105.527344 C 194.226562 103.695312 190.980469 101.683594 190.226562 101.046875 C 189.476562 100.410156 188.929688 99.375 189.074219 99.007812 C 189.21875 98.644531 193.824219 95.191406 196.851562 93.066406 L 278.265625 35.878906 C 281.289062 33.75 283.527344 35.027344 283.238281 38.710938 L 275.425781 137.859375 C 275.136719 141.542969 274.691406 145.339844 274.441406 146.289062 C 274.1875 147.246094 273.796875 148.15625 273.796875 148.15625 C 273.796875 148.15625 273.796875 148.15625 273.792969 148.15625 C 273.765625 148.15625 273.765625 148.15625 273.765625 148.15625" />
  <path fill="#F78D11" d="M 307.398438 174.550781 C 316.222656 174.550781 328.132812 164.675781 328.132812 164.675781 C 310.617188 163.761719 295.253906 142.964844 296.09375 132.402344 C 296.914062 122.09375 294.078125 109.449219 293.945312 108.84375 C 284.039062 62.820312 241.0625 28.191406 189.554688 28.191406 C 138.054688 28.191406 95.089844 62.808594 85.171875 108.820312 C 85.171875 108.820312 85.167969 108.835938 85.164062 108.84375 C 85.03125 109.449219 82.195312 122.09375 83.015625 132.402344 C 83.859375 142.964844 68.492188 163.761719 50.976562 164.675781 C 50.976562 164.675781 62.886719 174.550781 71.714844 174.550781 C 71.714844 174.550781 65.691406 177.492188 58.964844 177.070312 C 58.964844 177.070312 96.535156 196.441406 142.125 206.277344 C 154.304688 209.585938 168.273438 211.414062 183.976562 211.757812 C 185.597656 211.8125 187.210938 211.855469 188.824219 211.871094 L 188.816406 211.878906 C 189.0625 211.878906 189.308594 211.875 189.554688 211.875 C 189.800781 211.875 190.050781 211.878906 190.296875 211.878906 L 190.285156 211.871094 C 191.882812 211.855469 193.484375 211.816406 195.089844 211.761719 C 211.738281 211.40625 226.382812 209.433594 238.992188 205.839844 C 283.671875 195.875 320.144531 177.070312 320.144531 177.070312 C 313.421875 177.492188 307.398438 174.550781 307.398438 174.550781" />
  <path fill="#E47718" d="M 215.332031 210.398438 C 223.871094 209.402344 231.777344 207.894531 238.992188 205.839844 C 283.671875 195.875 320.144531 177.070312 320.144531 177.070312 C 313.421875 177.492188 307.398438 174.550781 307.398438 174.550781 C 316.222656 174.550781 328.132812 164.675781 328.132812 164.675781 C 310.617188 163.761719 295.253906 142.964844 296.09375 132.402344 C 296.914062 122.09375 294.078125 109.449219 293.945312 108.84375 C 285.199219 68.21875 250.679688 36.484375 207.269531 29.601562 C 211.417969 32.324219 220.175781 39.25 226.386719 52.351562 C 234.789062 70.089844 230.726562 91 217.347656 100.335938 C 203.96875 109.667969 191.691406 125.402344 190.128906 133.566406 C 188.566406 141.734375 198.648438 136.882812 214.476562 142.625 C 230.304688 148.367188 249.292969 151.585938 259.765625 146.125 C 270.238281 140.664062 275.472656 152.285156 287.285156 158.445312 C 299.097656 164.609375 303.160156 164.746094 303.160156 164.746094 C 303.160156 164.746094 290.414062 164.1875 282.984375 162.507812 C 275.558594 160.828125 264.914062 155.785156 264.914062 155.785156 C 264.914062 155.785156 271.078125 168.25 277.242188 173.429688 C 283.40625 178.613281 289.851562 180.292969 289.851562 180.292969 C 289.851562 180.292969 270.058594 194.675781 242.636719 202.554688 C 219.660156 209.15625 215.9375 210.226562 215.332031 210.398438" />
  <path fill="#D97A19" d="M 138.132812 40.707031 C 138.132812 40.707031 171.71875 69.199219 169.503906 100.335938 C 169.503906 100.335938 176.511719 84.09375 172.027344 59.636719 C 167.542969 35.175781 160.433594 32.011719 160.433594 32.011719 C 160.433594 32.011719 139.890625 39.769531 138.132812 40.707031" />
  <path fill="#FFF" d="M 160.425781 32.015625 C 160.425781 32.015625 114.304688 56.085938 100.855469 83.8125 C 87.40625 111.539062 90.347656 134.222656 85.863281 146.824219 C 81.382812 159.425781 64.148438 166.058594 64.148438 166.058594 C 64.148438 166.058594 75.917969 169.011719 85.582031 167.230469 C 85.582031 167.230469 83.484375 175.390625 77.457031 178.328125 C 71.433594 181.273438 62.386719 178.757812 62.386719 178.757812 L 70.734375 175.667969 C 70.734375 175.667969 63.167969 172.84375 58.882812 170.109375 C 54.597656 167.378906 51.847656 165.367188 51.847656 165.367188 C 51.847656 165.367188 81.976562 152.585938 82.78125 135.34375 C 83.585938 118.09375 86.847656 93.199219 100.578125 73.589844 C 114.304688 53.988281 138.035156 34.96875 160.425781 32.015625" />
  <path fill="#D97A19" d="M 242.453125 40.707031 C 242.453125 40.707031 208.871094 69.199219 211.085938 100.335938 C 211.085938 100.335938 204.078125 84.09375 208.5625 59.636719 C 213.046875 35.175781 220.15625 32.011719 220.15625 32.011719 C 220.15625 32.011719 240.699219 39.769531 242.453125 40.707031" />
  <path fill="#FEEDD2" d="M 296.226562 135.257812 C 296.222656 135.261719 296.222656 135.261719 296.21875 135.261719 C 296.21875 135.261719 291.148438 127.40625 278.820312 127.222656 C 266.488281 127.03125 242.207031 139.171875 225.394531 136.742188 C 208.582031 134.316406 204.523438 122.578125 189.554688 122.578125 L 188.8125 122.578125 C 173.839844 122.578125 169.785156 134.316406 152.972656 136.742188 C 136.160156 139.171875 111.875 127.03125 99.546875 127.222656 C 87.21875 127.40625 82.914062 135.058594 82.910156 135.058594 C 81.429688 146.101562 67.121094 163.835938 50.976562 164.675781 C 50.976562 164.675781 62.886719 174.550781 71.714844 174.550781 C 71.714844 174.550781 65.691406 177.492188 58.964844 177.070312 C 58.964844 177.070312 96.535156 196.441406 142.125 206.277344 C 154.304688 209.585938 168.273438 211.414062 183.976562 211.757812 C 185.597656 211.8125 187.210938 211.855469 188.824219 211.871094 L 188.816406 211.878906 C 189.0625 211.878906 189.308594 211.875 189.554688 211.875 C 189.800781 211.875 190.050781 211.878906 190.296875 211.878906 L 190.285156 211.871094 C 191.882812 211.855469 193.484375 211.816406 195.089844 211.761719 C 211.738281 211.40625 226.382812 209.433594 238.992188 205.839844 C 283.671875 195.875 320.144531 177.070312 320.144531 177.070312 C 313.421875 177.492188 307.398438 174.550781 307.398438 174.550781 C 316.222656 174.550781 328.132812 164.675781 328.132812 164.675781 C 312.085938 163.839844 297.851562 146.3125 296.226562 135.257812" />
  <path fill="#F3CE9A" d="M 215.332031 210.304688 C 223.871094 209.3125 231.777344 207.800781 238.992188 205.746094 C 283.671875 195.78125 320.144531 176.976562 320.144531 176.976562 C 313.421875 177.394531 307.398438 174.457031 307.398438 174.457031 C 316.222656 174.457031 328.132812 164.582031 328.132812 164.582031 C 312.085938 163.746094 297.851562 146.222656 296.226562 135.164062 C 296.222656 135.167969 296.222656 135.167969 296.21875 135.167969 C 296.21875 135.167969 291.148438 127.3125 278.820312 127.125 C 266.488281 126.941406 242.207031 139.078125 225.394531 136.648438 C 210.847656 134.546875 205.847656 125.488281 195.070312 123.078125 C 192.445312 127.050781 190.660156 130.703125 190.128906 133.472656 C 188.566406 141.636719 198.648438 136.789062 214.476562 142.53125 C 230.304688 148.273438 249.292969 151.492188 259.765625 146.03125 C 270.238281 140.570312 275.472656 152.191406 287.285156 158.351562 C 299.097656 164.515625 303.160156 164.65625 303.160156 164.65625 C 303.160156 164.65625 290.414062 164.09375 282.984375 162.414062 C 275.558594 160.734375 264.914062 155.691406 264.914062 155.691406 C 264.914062 155.691406 271.078125 168.152344 277.242188 173.335938 C 283.40625 178.519531 289.851562 180.199219 289.851562 180.199219 C 289.851562 180.199219 270.058594 194.582031 242.636719 202.460938 C 219.660156 209.0625 215.9375 210.132812 215.332031 210.304688" />
  <path fill="#B57235" d="M 148.703125 209.824219 C 148.628906 209.765625 148.5625 209.703125 148.488281 209.644531 C 148.488281 210.371094 148.488281 211.089844 148.488281 211.644531 C 148.566406 211.039062 148.632812 210.429688 148.703125 209.824219" />
  <path fill="#5F291C" d="M 131.957031 150.96875 L 92.167969 150.96875 C 90.621094 150.96875 89.367188 149.714844 89.367188 148.167969 C 89.367188 146.621094 90.621094 145.367188 92.167969 145.367188 L 131.957031 145.367188 C 133.503906 145.367188 134.761719 146.621094 134.761719 148.167969 C 134.761719 149.714844 133.503906 150.96875 131.957031 150.96875" />
  <path fill="#5F291C" d="M 131.957031 162.171875 L 92.167969 162.171875 C 90.621094 162.171875 89.367188 160.917969 89.367188 159.367188 C 89.367188 157.824219 90.621094 156.570312 92.167969 156.570312 L 131.957031 156.570312 C 133.503906 156.570312 134.761719 157.824219 134.761719 159.367188 C 134.761719 160.917969 133.503906 162.171875 131.957031 162.171875" />
  <path fill="#5F291C" d="M 131.957031 173.371094 L 92.167969 173.371094 C 90.621094 173.371094 89.367188 172.121094 89.367188 170.574219 C 89.367188 169.023438 90.621094 167.773438 92.167969 167.773438 L 131.957031 167.773438 C 133.503906 167.773438 134.761719 169.023438 134.761719 170.574219 C 134.761719 172.121094 133.503906 173.371094 131.957031 173.371094" />
  <path fill="#5F291C" d="M 287.285156 150.96875 L 247.496094 150.96875 C 245.949219 150.96875 244.695312 149.714844 244.695312 148.167969 C 244.695312 146.621094 245.949219 145.367188 247.496094 145.367188 L 287.285156 145.367188 C 288.832031 145.367188 290.089844 146.621094 290.089844 148.167969 C 290.089844 149.714844 288.832031 150.96875 287.285156 150.96875" />
  <path fill="#5F291C" d="M 287.285156 162.171875 L 247.496094 162.171875 C 245.949219 162.171875 244.695312 160.917969 244.695312 159.367188 C 244.695312 157.824219 245.949219 156.570312 247.496094 156.570312 L 287.285156 156.570312 C 288.832031 156.570312 290.089844 157.824219 290.089844 159.367188 C 290.089844 160.917969 288.832031 162.171875 287.285156 162.171875" />
  <path fill="#5F291C" d="M 287.285156 173.371094 L 247.496094 173.371094 C 245.949219 173.371094 244.695312 172.121094 244.695312 170.574219 C 244.695312 169.023438 245.949219 167.773438 247.496094 167.773438 L 287.285156 167.773438 C 288.832031 167.773438 290.089844 169.023438 290.089844 170.574219 C 290.089844 172.121094 288.832031 173.371094 287.285156 173.371094" />
  <path fill="#5F291C" d="M 65.355469 178.296875 C 77.480469 183.972656 107.796875 197.152344 142.476562 204.636719 C 154.546875 207.914062 168.492188 209.734375 184.015625 210.078125 C 185.640625 210.132812 187.242188 210.175781 188.839844 210.1875 L 189.578125 210.195312 L 190.269531 210.1875 C 191.851562 210.175781 193.441406 210.136719 195.027344 210.082031 C 211.503906 209.734375 226.132812 207.761719 238.53125 204.21875 C 272.457031 196.65625 301.863281 183.863281 313.753906 178.296875 C 309.714844 177.535156 306.824219 176.140625 306.65625 176.0625 L 300.121094 172.867188 L 307.398438 172.867188 C 312.878906 172.867188 319.867188 168.589844 323.863281 165.78125 C 316.773438 164.214844 309.601562 159.695312 303.675781 152.9375 C 297.601562 146.011719 293.96875 137.898438 294.417969 132.269531 C 295.21875 122.226562 292.425781 109.746094 292.304688 109.21875 C 282.40625 63.234375 239.195312 29.871094 189.554688 29.871094 C 139.929688 29.871094 96.722656 63.222656 86.816406 109.171875 L 86.597656 110.183594 C 85.933594 113.382812 84.007812 123.683594 84.691406 132.269531 C 85.144531 137.898438 81.503906 146.011719 75.429688 152.9375 C 69.507812 159.695312 62.34375 164.214844 55.246094 165.78125 C 59.25 168.589844 66.238281 172.867188 71.714844 172.867188 L 78.988281 172.867188 L 72.449219 176.0625 C 72.285156 176.140625 69.394531 177.535156 65.355469 178.296875 Z M 190.296875 213.5625 L 189.546875 213.554688 L 184.628906 213.5625 L 184.730469 213.464844 C 184.460938 213.457031 184.1875 213.449219 183.921875 213.4375 C 168.148438 213.089844 153.925781 211.226562 141.679688 207.898438 C 96.488281 198.148438 58.574219 178.757812 58.195312 178.566406 L 51.074219 174.894531 L 59.070312 175.394531 C 61.210938 175.527344 63.277344 175.292969 65.085938 174.921875 C 57.519531 172.230469 50.296875 166.292969 49.90625 165.96875 L 46.59375 163.222656 L 50.890625 162.996094 C 58.382812 162.605469 66.410156 158.136719 72.902344 150.726562 C 78.324219 144.542969 81.714844 137.234375 81.339844 132.535156 C 80.496094 121.949219 83.402344 109.019531 83.527344 108.476562 C 93.765625 60.976562 138.359375 26.511719 189.554688 26.511719 C 240.769531 26.511719 285.363281 60.992188 295.585938 108.492188 C 295.710938 109.023438 298.609375 121.988281 297.769531 132.535156 C 297.394531 137.234375 300.785156 144.542969 306.207031 150.726562 C 312.703125 158.132812 320.726562 162.605469 328.21875 162.996094 L 332.519531 163.222656 L 329.203125 165.96875 C 328.816406 166.292969 321.589844 172.230469 314.023438 174.921875 C 315.828125 175.292969 317.902344 175.523438 320.039062 175.394531 L 328.035156 174.894531 L 320.914062 178.566406 C 320.546875 178.753906 283.734375 197.578125 239.359375 207.476562 C 226.777344 211.070312 211.863281 213.085938 195.121094 213.4375 C 194.875 213.449219 194.628906 213.457031 194.378906 213.464844 L 194.46875 213.550781 L 190.296875 213.5625" />
  <path fill="#5F291C" d="M 115.296875 115.023438 C 114.953125 115.023438 114.605469 114.917969 114.308594 114.703125 C 113.558594 114.152344 113.390625 113.105469 113.9375 112.355469 C 114.285156 111.882812 122.519531 100.765625 134.929688 100.230469 C 142.839844 99.890625 150.523438 103.933594 157.757812 112.242188 C 158.367188 112.941406 158.292969 114 157.589844 114.609375 C 156.890625 115.222656 155.824219 115.144531 155.21875 114.445312 C 148.695312 106.945312 141.910156 103.296875 135.078125 103.585938 C 124.265625 104.054688 116.730469 114.230469 116.65625 114.332031 C 116.328125 114.785156 115.816406 115.023438 115.296875 115.023438" />
  <path fill="#5F291C" d="M 221.800781 115.023438 C 221.453125 115.023438 221.109375 114.917969 220.8125 114.703125 C 220.0625 114.152344 219.894531 113.105469 220.441406 112.355469 C 220.785156 111.882812 229.019531 100.765625 241.433594 100.230469 C 249.339844 99.890625 257.027344 103.933594 264.257812 112.242188 C 264.867188 112.941406 264.792969 114 264.09375 114.609375 C 263.394531 115.222656 262.328125 115.144531 261.722656 114.445312 C 255.195312 106.945312 248.417969 103.296875 241.578125 103.585938 C 230.765625 104.054688 223.234375 114.230469 223.160156 114.332031 C 222.832031 114.785156 222.320312 115.023438 221.800781 115.023438" />
  <path fill="#5F291C" d="M 203.238281 168.578125 C 202.933594 168.578125 202.628906 168.570312 202.324219 168.550781 C 196.28125 168.144531 192.316406 165.058594 190.355469 163.058594 C 188.390625 165.21875 184.300781 168.511719 177.632812 168.359375 C 167.113281 168.097656 162.867188 161.0625 162.6875 160.761719 C 162.21875 159.964844 162.488281 158.933594 163.285156 158.460938 C 164.085938 157.996094 165.113281 158.261719 165.585938 159.054688 C 165.742188 159.3125 169.152344 164.785156 177.714844 165 C 185.277344 165.1875 188.714844 159.769531 188.859375 159.535156 L 190.222656 157.308594 L 191.691406 159.464844 C 191.835938 159.671875 195.382812 164.714844 202.550781 165.195312 C 209.738281 165.6875 216 158.359375 216.0625 158.289062 C 216.664062 157.578125 217.722656 157.488281 218.433594 158.085938 C 219.140625 158.6875 219.234375 159.742188 218.632812 160.449219 C 218.347656 160.792969 211.691406 168.578125 203.238281 168.578125" />
  <path fill="#5F291C" d="M 201.503906 136.648438 C 201.503906 139.488281 196.410156 141.785156 190.128906 141.785156 C 183.84375 141.785156 178.75 139.488281 178.75 136.648438 C 178.75 133.816406 183.84375 131.515625 190.128906 131.515625 C 196.410156 131.515625 201.503906 133.816406 201.503906 136.648438" />
  <path fill="#5F291C" d="M 190.128906 162.664062 C 189.199219 162.664062 188.449219 161.914062 188.449219 160.984375 L 188.449219 136.648438 C 188.449219 135.71875 189.199219 134.96875 190.128906 134.96875 C 191.058594 134.96875 191.808594 135.71875 191.808594 136.648438 L 191.808594 160.984375 C 191.808594 161.914062 191.058594 162.664062 190.128906 162.664062" />
</svg>