<svg xmlns="http://www.w3.org/2000/svg" width="45" height="34" fill="none" viewBox="0 0 45 34">
  <path fill="#FFCE32" d="M7.39495 15.919C3.36508 9.09431 9.12227 0.509635 18.7459 7.87561C18.9061 0.156688 29.5216 -3.33638 31.0022 6.4939C39.8022 -0.898988 50.1661 9.65934 41.2828 16.894C45.4777 23.5556 41.7763 29.2392 32.6462 27.9429C28.7813 35.8233 22.9408 33.4666 19.1577 30.0559C16.1966 34.7676 9.04055 35.7426 8.13523 27.6992C1.47272 29.9735 -4.94304 18.6001 7.39495 15.919Z" />
  <path fill="#48360C" d="M7.0488 15.0438L6.88857 14.5832C6.84049 14.4123 6.78922 14.2271 6.72833 14.0292C6.6206 13.5881 6.53981 13.141 6.48638 12.6903C6.43158 12.1644 6.42353 11.6348 6.46234 11.1075C6.50051 10.5267 6.60808 9.95245 6.78281 9.39661C6.96576 8.81173 7.23577 8.25698 7.58398 7.75058C7.93447 7.23668 8.37768 6.79084 8.89148 6.43534C9.40328 6.07512 9.97964 5.8141 10.59 5.66614C11.1915 5.52874 11.8097 5.47546 12.4262 5.50787L12.8781 5.54744C13.0271 5.55693 13.1729 5.5965 13.3203 5.61391C13.4678 5.63132 13.6136 5.65506 13.7546 5.69146L14.1744 5.79592C14.4548 5.85448 14.7128 5.96211 14.9756 6.04124C15.2383 6.12038 15.4755 6.22642 15.7126 6.31664C15.8296 6.36412 15.9466 6.40685 16.0571 6.45592L16.3776 6.61419C16.5875 6.7139 16.791 6.79779 16.9753 6.89591C17.3342 7.09059 17.6659 7.24886 17.9239 7.40713C18.4398 7.71418 18.7458 7.88195 18.7458 7.88195C18.7458 7.88195 18.4943 7.64771 18.0376 7.24886C17.8085 7.04944 17.5104 6.8326 17.1708 6.57779C16.9993 6.45117 16.8054 6.33563 16.6067 6.2011L16.2959 6.00326C16.1869 5.93995 16.0716 5.88139 15.9562 5.8165C15.4585 5.53451 14.9362 5.29721 14.3955 5.10744L13.9517 4.94917C13.8026 4.89852 13.644 4.86845 13.4854 4.8273C12.4671 4.5683 11.4027 4.5407 10.372 4.74658C9.64064 4.91187 8.94817 5.21437 8.33227 5.63765C7.72596 6.07029 7.20603 6.61014 6.79883 7.22987C6.41417 7.82337 6.13206 8.47591 5.96402 9.16079C5.79694 9.78748 5.72034 10.4343 5.73649 11.0822C5.73643 11.379 5.75463 11.6755 5.79097 11.9701C5.83263 12.2534 5.8807 12.5257 5.93678 12.7821C6.0458 13.2483 6.19427 13.7047 6.38063 14.1464C6.46715 14.341 6.54086 14.523 6.62578 14.6876L6.87255 15.1292C6.911 15.1941 6.94625 15.2574 6.9783 15.316L7.08565 15.4743L7.24589 15.7196L7.38689 15.9222L7.29396 15.6927C7.25069 15.5407 7.13853 15.3207 7.0488 15.0438Z" />
  <path fill="#48360C" d="M44.9805 10.0978C44.9693 9.96006 44.9693 9.8192 44.9501 9.68309L44.8764 9.27474C44.826 9.00122 44.7564 8.7315 44.6681 8.46755C44.5781 8.20421 44.4738 7.94585 44.3556 7.6936C44.221 7.44986 44.0928 7.20138 43.9422 6.96714C43.6343 6.50094 43.2712 6.07269 42.8606 5.69146L42.553 5.40657L42.2165 5.15492C41.9942 4.98551 41.7602 4.83161 41.5163 4.69435C41.0337 4.4136 40.5231 4.18287 39.9925 4.00586C39.7281 3.9204 39.4541 3.86184 39.1913 3.78903C38.9173 3.74313 38.6417 3.69882 38.3661 3.66083C38.0905 3.62285 37.8117 3.62126 37.5345 3.61493C37.2573 3.6086 36.9801 3.63392 36.7061 3.65767C36.4321 3.68141 36.1581 3.73205 35.8873 3.77954L35.0861 3.97579L34.3154 4.25119C34.0622 4.35248 33.8203 4.47593 33.5735 4.58831C33.4498 4.64334 33.3303 4.70735 33.2162 4.77981L32.8685 4.98557C32.7547 5.05679 32.6361 5.11852 32.5256 5.19765L32.1971 5.43506C31.7766 5.74018 31.3773 6.07277 31.0018 6.43059C31.0018 6.31505 30.9793 6.03966 30.9441 5.63923C30.904 5.36859 30.8591 5.03463 30.771 4.65636C30.7213 4.4696 30.6669 4.27018 30.6108 4.05968C30.5547 3.84918 30.4506 3.63709 30.3672 3.41076C30.2839 3.18443 30.1509 2.96443 30.0372 2.72544C29.9714 2.6077 29.8991 2.49358 29.8208 2.38357C29.7423 2.26962 29.6718 2.14775 29.5821 2.03696C29.2113 1.55499 28.7625 1.1368 28.2538 0.799272C27.6912 0.445557 27.0642 0.203632 26.4079 0.0870477C25.7327 -0.0311788 25.0409 -0.0209717 24.3697 0.11712C23.71 0.256202 23.0749 0.491436 22.4853 0.815099C21.9229 1.12774 21.406 1.51428 20.9487 1.96415C20.1395 2.74538 19.5232 3.70016 19.1477 4.75449C19.1076 4.86845 19.0692 4.97924 19.0291 5.08845C18.989 5.19765 18.9698 5.30844 18.9426 5.41449C18.8877 5.6143 18.8454 5.81727 18.816 6.02225C18.7904 6.21534 18.7487 6.39102 18.7439 6.56038C18.7391 6.72973 18.7263 6.87692 18.7199 7.02095C18.7022 7.29634 18.7359 7.50843 18.7359 7.65404C18.7359 7.79965 18.7503 7.87878 18.7503 7.87878L18.792 7.6572C18.8224 7.51476 18.848 7.29792 18.9137 7.03678L19.0243 6.60628C19.0611 6.448 19.1268 6.28973 19.1845 6.11088C19.2428 5.92293 19.3134 5.73894 19.396 5.5601L19.5194 5.26888L19.67 4.97291C19.8925 4.54486 20.1502 4.13566 20.4408 3.74946C20.7688 3.3289 21.1374 2.94089 21.5416 2.59091C21.9678 2.21886 22.4387 1.89993 22.9436 1.64128C23.4527 1.38203 23.9949 1.19196 24.5556 1.07625C25.1119 0.959531 25.6849 0.941844 26.2476 1.02402C26.7896 1.10287 27.3131 1.27596 27.7939 1.53524C28.2407 1.80175 28.6483 2.12768 29.0052 2.50386C29.1708 2.69379 29.3257 2.88477 29.4699 3.07681C29.5997 3.27781 29.7455 3.46299 29.8513 3.66241C29.957 3.86184 30.0676 4.0486 30.1589 4.23378L30.4041 4.77348C30.5403 5.11852 30.6524 5.42873 30.7454 5.68355C30.8608 6.07923 30.9473 6.34671 30.9809 6.45117L30.9649 6.4575L31.0258 6.53505C31.468 6.247 31.8991 5.92887 32.3589 5.68988L32.697 5.49837C32.8076 5.43348 32.931 5.386 33.0479 5.32902L33.4005 5.17075C33.5159 5.11256 33.6353 5.06232 33.7578 5.02039C34.0013 4.93334 34.2385 4.83521 34.4852 4.75766L35.2287 4.55823L35.9834 4.4237C36.2366 4.39363 36.4914 4.37939 36.7445 4.35565C36.9977 4.33191 37.2509 4.35565 37.504 4.35565C37.7572 4.35565 38.0056 4.40471 38.2571 4.42687L38.9958 4.57248C39.2362 4.64687 39.4765 4.71018 39.7136 4.79406C40.1843 4.95965 40.6369 5.17176 41.0644 5.42715C41.2783 5.5538 41.4833 5.69445 41.6781 5.84815L41.9713 6.07606L42.2453 6.32613C42.6079 6.6604 42.9334 7.03179 43.2164 7.43404C43.3574 7.63504 43.4775 7.85029 43.6073 8.06713L43.7676 8.3995C43.8256 8.5083 43.8759 8.62094 43.9182 8.73662C44.0126 8.9645 44.0903 9.19883 44.1505 9.43776L44.2402 9.79704C44.2675 9.91733 44.2771 10.0408 44.2963 10.1626C44.3156 10.2845 44.3364 10.408 44.3428 10.5314L44.3524 10.9049C44.3585 11.1545 44.3462 11.4042 44.3156 11.652L44.2979 11.8403L44.2611 12.0255L44.1842 12.3959C44.1613 12.52 44.127 12.6419 44.0816 12.7599L43.9614 13.1223C43.9231 13.2436 43.8749 13.3617 43.8172 13.4753L43.657 13.8235C43.6051 13.9407 43.5435 14.0535 43.4727 14.1606L43.2724 14.4898C43.1393 14.7114 42.9899 14.923 42.8254 15.1229C42.7453 15.2242 42.6652 15.3286 42.585 15.4268L42.319 15.7117C41.9662 16.0932 41.5866 16.4496 41.183 16.7784L41.0869 16.8655L41.151 16.9747C41.3512 17.315 41.5579 17.6521 41.7262 18.0082C41.8191 18.1823 41.8944 18.3627 41.9746 18.5432L42.0915 18.8122L42.1941 19.0876C42.263 19.2712 42.3271 19.4564 42.3767 19.6447C42.4354 19.8305 42.4846 20.0191 42.5242 20.2098C42.6105 20.5866 42.6693 20.969 42.7004 21.3541L42.7212 21.6405V21.9286C42.7223 22.1189 42.7122 22.3092 42.6908 22.4984C42.6721 22.6864 42.6438 22.8734 42.6059 23.0587C42.569 23.2423 42.5161 23.4243 42.4665 23.6031C42.3513 23.9569 42.1982 24.2975 42.0098 24.6192C41.8248 24.9393 41.6044 25.2381 41.3528 25.5103C41.0974 25.7793 40.8156 26.0226 40.5116 26.2368L40.2825 26.395C40.204 26.4473 40.1223 26.49 40.0405 26.5375C39.9588 26.585 39.8803 26.6324 39.797 26.6768L39.5422 26.7986C39.3723 26.8818 39.1979 26.9558 39.0198 27.0202C38.8468 27.0946 38.6625 27.1437 38.4815 27.2022C38.3004 27.2608 38.1129 27.3019 37.9287 27.3478C37.7444 27.3937 37.5537 27.4254 37.3646 27.4602C37.1756 27.495 36.9849 27.5203 36.7926 27.5409C36.6003 27.5615 36.4112 27.5852 36.2174 27.5932C35.8312 27.6232 35.4418 27.6201 35.0541 27.6216C34.6663 27.6232 34.2769 27.5932 33.8876 27.5568C33.4982 27.5203 33.1104 27.4729 32.7211 27.4286L32.3509 27.3874L32.1715 27.7182C32.0112 28.0126 31.8718 28.318 31.6908 28.6029L31.4456 29.0366L31.178 29.456C31.0915 29.6 30.9921 29.7298 30.896 29.8644C30.7999 29.9989 30.7053 30.1366 30.598 30.26C30.4906 30.3835 30.3913 30.518 30.2775 30.6399L29.9426 30.9992L29.5869 31.3347C29.4667 31.4439 29.3369 31.542 29.2136 31.6512C28.9604 31.8481 28.6925 32.0258 28.4124 32.183C28.273 32.2622 28.124 32.3255 27.9797 32.3983C27.8355 32.4711 27.6817 32.5138 27.5311 32.5724C27.2248 32.6739 26.9101 32.7485 26.5905 32.7956C26.4314 32.8213 26.2709 32.8377 26.1098 32.8446L25.8663 32.8573H25.6195C25.2891 32.848 24.9597 32.8152 24.6341 32.7592C24.4738 32.7307 24.3136 32.6943 24.1438 32.6579C23.9739 32.6215 23.8233 32.5756 23.6631 32.5233C23.3426 32.4205 23.0221 32.3097 22.7017 32.1751C22.5414 32.1087 22.3892 32.0422 22.237 31.9646C22.0848 31.8871 21.9293 31.8159 21.7787 31.7351C21.4743 31.5769 21.1762 31.4059 20.883 31.2255C20.5898 31.0451 20.3046 30.8504 20.0226 30.651C19.7405 30.4515 19.4633 30.2442 19.1893 30.029L19.1236 30.1002L18.8512 30.4531L18.5308 30.8267L18.1879 31.1812C18.0725 31.2967 17.9475 31.4043 17.829 31.5151C17.7104 31.6259 17.5758 31.7241 17.4508 31.8317C17.3258 31.9393 17.1864 32.0232 17.0566 32.1213C16.9268 32.2194 16.7842 32.297 16.648 32.3856C16.5118 32.4743 16.3644 32.5439 16.225 32.623L15.7876 32.8304L15.3389 33.0076C15.0391 33.1143 14.7316 33.1989 14.4192 33.2609C14.2639 33.2913 14.1072 33.314 13.9497 33.3289L13.7142 33.3527H13.4802C13.1699 33.3563 12.8599 33.3319 12.5541 33.2799C12.4034 33.2498 12.2544 33.2102 12.107 33.1722C11.9596 33.1343 11.817 33.0804 11.6792 33.014C11.5395 32.9551 11.404 32.8869 11.2738 32.8098L11.0799 32.6958L10.8972 32.5613C10.7733 32.4745 10.6565 32.3782 10.5479 32.2733C10.4353 32.1737 10.3283 32.068 10.2275 31.9567C10.0236 31.7296 9.84223 31.4837 9.68588 31.2223C9.60473 31.0922 9.53039 30.958 9.46316 30.8203C9.39096 30.6837 9.32676 30.5432 9.27087 30.3993C9.20919 30.2573 9.15569 30.112 9.11064 29.9641C9.06417 29.8153 9.00489 29.6713 8.96803 29.5177L8.85106 29.0635C8.81421 28.9052 8.78857 28.747 8.75653 28.5998C8.68602 28.2927 8.66359 27.9667 8.61392 27.6612L8.52739 27.1183L7.97939 27.2655L7.39294 27.4238C7.19425 27.4507 6.99556 27.4903 6.79527 27.5093C6.59498 27.5283 6.39308 27.5362 6.19119 27.5203L5.88995 27.4982L5.73933 27.4871L5.59191 27.4586C5.39192 27.4302 5.19431 27.3874 5.00065 27.3304L4.70903 27.2481L4.42541 27.1357C4.23533 27.0637 4.05107 26.9774 3.87421 26.8778C3.69372 26.7829 3.51927 26.6772 3.35185 26.5612C3.1804 26.452 3.03138 26.3143 2.86313 26.1924C2.69489 26.0706 2.5619 25.9155 2.41929 25.7714C2.13656 25.4765 1.88329 25.1553 1.66299 24.8123L1.50275 24.5527C1.45148 24.4641 1.40982 24.3707 1.36335 24.2805C1.31688 24.1903 1.26721 24.1001 1.23035 24.0051L1.1214 23.7218C1.0513 23.5317 0.992452 23.3378 0.945138 23.141C0.893863 22.9447 0.877841 22.7437 0.840987 22.5459C0.832976 22.3449 0.807336 22.1438 0.813745 21.9413L0.831374 21.6405L0.839383 21.4823L0.866625 21.3351C0.893227 21.1343 0.937729 20.9362 0.999617 20.7431L1.08935 20.4519C1.1278 20.3585 1.17267 20.2667 1.21433 20.1734C1.25599 20.08 1.29445 19.985 1.34252 19.8948L1.50275 19.6305C1.5516 19.5403 1.60509 19.4526 1.66299 19.3678L1.85206 19.1193C1.91776 19.0385 1.97544 18.9515 2.04594 18.8739L2.26547 18.6476L2.48499 18.4197L2.72854 18.2139C3.05595 17.9374 3.40235 17.6835 3.76525 17.4542C4.13675 17.2293 4.52145 17.0263 4.91733 16.8465C5.31171 16.6546 5.71606 16.4834 6.1287 16.3337C6.5421 16.1754 6.96832 16.0583 7.38973 15.919C6.9555 16.0061 6.51166 16.0662 6.08063 16.1754C5.647 16.2808 5.21915 16.4081 4.79876 16.5568C4.37364 16.707 3.95791 16.882 3.55374 17.0807C3.14851 17.2876 2.76106 17.5269 2.39526 17.7961L2.12286 18.0003L1.86648 18.2298L1.61011 18.4624C1.52679 18.5432 1.44987 18.6334 1.37617 18.7188L1.14703 18.98C1.07012 19.0686 1.01084 19.1699 0.941935 19.2649L0.744846 19.5545C0.68556 19.6542 0.635887 19.7619 0.584612 19.8711C0.533338 19.9803 0.475654 20.08 0.424379 20.1876L0.302605 20.52C0.219651 20.7411 0.155862 20.9688 0.111926 21.2005L0.0718679 21.3731L0.0526358 21.5503L0.0141813 21.9033C-0.0034444 22.1375 0.0141813 22.3781 0.0141813 22.6123C0.0478304 22.845 0.0638545 23.0871 0.115129 23.3119C0.162584 23.5427 0.224118 23.7705 0.299397 23.994L0.416369 24.328C0.456428 24.4388 0.510904 24.5433 0.558975 24.6445C0.607045 24.7458 0.655117 24.8598 0.711198 24.9611L0.887456 25.265C1.1282 25.6706 1.4118 26.05 1.73349 26.3966C1.89372 26.566 2.06998 26.7274 2.24464 26.8873C2.41929 27.0471 2.60836 27.1911 2.80705 27.3225C3.00168 27.4591 3.20389 27.5849 3.41273 27.6992C3.61879 27.8191 3.83294 27.9248 4.05367 28.0157L4.38696 28.1503L4.73306 28.2531C4.96373 28.3232 5.1994 28.3761 5.43809 28.4114L5.61595 28.4415L5.79701 28.4557L6.15914 28.4779C6.40109 28.4937 6.63984 28.4636 6.885 28.4573C7.13016 28.451 7.3657 28.3845 7.59964 28.3481L7.73103 28.299C7.75346 28.4573 7.7791 28.6061 7.81435 28.758C7.8496 28.91 7.88165 29.0952 7.92331 29.2613L8.06592 29.7599C8.11239 29.9261 8.18129 30.0875 8.23897 30.2521C8.29684 30.4139 8.3637 30.5724 8.43927 30.7269C8.50706 30.8899 8.5852 31.0485 8.67321 31.2018C8.7536 31.3584 8.84349 31.5101 8.9424 31.656C9.1347 31.956 9.3552 32.2373 9.60096 32.4964C9.8487 32.7585 10.1261 32.9917 10.4278 33.1912L10.6553 33.34L10.8956 33.4666C11.0555 33.5509 11.2209 33.6244 11.3908 33.6866C11.5605 33.7479 11.7332 33.8007 11.9083 33.8449C12.083 33.8829 12.2608 33.9193 12.4371 33.9446C12.7908 33.9917 13.1487 34.0002 13.5043 33.9699L13.7686 33.9462L14.0282 33.9035C14.2015 33.8754 14.3732 33.8384 14.5426 33.7927C14.8784 33.7031 15.2067 33.5883 15.5248 33.4492C15.685 33.3796 15.834 33.2989 15.9879 33.2229L16.4317 32.9633C16.5727 32.8668 16.7169 32.775 16.8547 32.6753C16.9925 32.5756 17.1255 32.4711 17.2553 32.3587C17.5142 32.1412 17.7593 31.9081 17.9892 31.6607C18.0981 31.5325 18.2135 31.4107 18.3193 31.2809C18.425 31.1511 18.526 31.0182 18.6237 30.882L18.9009 30.4674L19.1252 30.0812C19.3672 30.3265 19.6059 30.5703 19.8735 30.7982C20.1411 31.0261 20.4039 31.2556 20.6843 31.4708C20.9647 31.6861 21.2483 31.8934 21.5448 32.0865C21.6922 32.183 21.8428 32.2764 21.9982 32.3635C22.1537 32.4505 22.3075 32.5407 22.4645 32.623C22.7817 32.7911 23.1086 32.9407 23.4435 33.0709C23.6038 33.1374 23.7848 33.1912 23.9547 33.253C24.1245 33.3147 24.304 33.3543 24.4803 33.3986C24.8369 33.4868 25.2002 33.5466 25.5666 33.5774L25.8438 33.5964H26.1226C26.3094 33.599 26.4961 33.5906 26.6819 33.5711C27.0557 33.5364 27.4257 33.4692 27.7875 33.3701C27.9653 33.3115 28.1448 33.2545 28.321 33.1881C28.4973 33.1216 28.6672 33.044 28.8338 32.9586C29.1687 32.7905 29.4901 32.5974 29.7952 32.3809C29.941 32.2685 30.0932 32.1625 30.2342 32.0422C30.3752 31.9219 30.513 31.8 30.6476 31.675L31.0306 31.2825C31.1572 31.1495 31.2694 31.0071 31.3895 30.871C31.5097 30.7349 31.6154 30.5877 31.726 30.4436C31.8366 30.2996 31.9471 30.1556 32.0465 30.0052L32.3461 29.5573L32.6201 29.0952C32.7403 28.8957 32.846 28.69 32.9502 28.4842C33.2338 28.519 33.519 28.5539 33.8058 28.5697C34.2176 28.6108 34.6343 28.6124 35.0493 28.6188C35.4643 28.6251 35.8825 28.5998 36.2991 28.5554C36.5074 28.5412 36.7157 28.5143 36.9224 28.4826C37.1291 28.451 37.3374 28.4241 37.5425 28.3782C37.7476 28.3323 37.9559 28.299 38.1594 28.2389C38.3629 28.1788 38.568 28.136 38.7667 28.0616C38.9654 27.9873 39.1705 27.9319 39.3643 27.8432C39.5622 27.7652 39.7558 27.6769 39.9444 27.5789L40.2296 27.4317C40.3225 27.3811 40.4123 27.3209 40.5036 27.2655C40.5949 27.2101 40.6863 27.1563 40.7744 27.093L41.0324 26.9015C41.3745 26.6406 41.6886 26.3457 41.9697 26.0215C42.245 25.6915 42.482 25.3321 42.6764 24.95C42.8687 24.5711 43.0165 24.1718 43.117 23.7598C43.1603 23.5525 43.2035 23.3467 43.2324 23.1394C43.2612 22.932 43.2853 22.7247 43.2805 22.5158C43.2901 22.3084 43.2869 22.1007 43.2708 21.8938L43.2532 21.5772L43.2116 21.2718C43.1873 21.0683 43.1509 20.8664 43.1026 20.6672C43.063 20.4669 43.0127 20.2687 42.952 20.0736C42.9007 19.8758 42.8318 19.6843 42.7629 19.4944C42.694 19.3044 42.6203 19.1145 42.5402 18.9278L42.4248 18.6476L42.2934 18.3738C42.2053 18.1918 42.122 18.0082 42.0194 17.8325C41.8512 17.516 41.6669 17.1994 41.4794 16.8955C41.8531 16.5785 42.2098 16.2425 42.5482 15.8889L42.827 15.6009C42.9151 15.5012 42.9952 15.3935 43.0786 15.2843C43.254 15.0827 43.4177 14.8713 43.5689 14.6512C43.878 14.2102 44.1461 13.7424 44.37 13.2537C44.5928 12.7578 44.7599 12.2393 44.8684 11.7074C44.925 11.4393 44.9609 11.1673 44.9757 10.8939L44.9982 10.4808C45.0014 10.3732 44.9853 10.237 44.9805 10.0978Z" />
  <path fill="#48360C" d="M29.5769 12L20.6635 18.885L16.4231 15.6096L14 17.4813L20.6635 22.6283L32 13.8717L29.5769 12Z" />
</svg>