<svg xmlns="http://www.w3.org/2000/svg" width="375" viewBox="0 0 375 375" height="375" version="1.0">
  <defs>
    <clipPath id="a">
      <path d="M 91 322.238281 L 106 322.238281 L 106 337.191406 L 91 337.191406 Z M 91 322.238281" />
    </clipPath>
  </defs>
  <path fill="#FF9500" d="M 78.453125 144.347656 C 75.320312 155.324219 77.8125 172.535156 76.703125 181.394531 C 74.332031 200.3125 70.605469 219.082031 68.421875 238.011719 C 67.039062 250.058594 64.058594 267.75 75.617188 276.007812 C 85.167969 282.835938 107.652344 278.953125 119.308594 279.011719 C 139.390625 279.109375 159.257812 275.691406 179.289062 274.84375 C 199.722656 273.984375 220.355469 276.015625 240.828125 275.585938 C 251.734375 275.351562 262.109375 272.628906 272.917969 271.886719 C 286.160156 270.988281 299.203125 269.9375 312.398438 268.46875 C 319.414062 267.691406 326.855469 267.761719 332.410156 262.769531 C 337.261719 258.414062 336.378906 251.339844 336.066406 245.46875 C 335.304688 231.316406 334.832031 217.152344 335.089844 202.976562 C 335.429688 184.625 343.726562 152.800781 331.167969 137.402344 C 321.800781 125.925781 302.671875 127.972656 289.6875 129.308594 C 268.976562 131.445312 247.554688 134.675781 226.707031 134.105469 C 210.378906 133.65625 194.25 131.484375 177.90625 132.976562 C 160.339844 134.574219 142.757812 136.433594 125.078125 134.132812 C 112.628906 132.519531 99.578125 129.390625 87.855469 133.882812 C 85.734375 134.691406 83.664062 135.777344 82.089844 137.410156 C 80.414062 139.160156 79.25 141.550781 78.453125 144.347656" />
  <path fill="#010101" d="M 335.449219 146.703125 C 334.980469 146.703125 334.554688 146.386719 334.433594 145.910156 C 329.679688 127.097656 327.347656 100.609375 335.070312 82.710938 C 339.054688 73.46875 347.667969 62.917969 357.167969 61.609375 C 363.800781 60.691406 369.140625 63.300781 372.207031 68.953125 C 376.945312 77.691406 375.488281 92.296875 369.152344 99.589844 C 366.058594 103.148438 361.648438 104.878906 357.671875 104.113281 C 354.136719 103.433594 351.460938 100.953125 350.144531 97.136719 C 349.953125 96.585938 350.242188 95.992188 350.789062 95.800781 C 351.335938 95.613281 351.933594 95.902344 352.125 96.449219 C 353.1875 99.53125 355.300781 101.523438 358.070312 102.054688 C 361.339844 102.691406 364.96875 101.214844 367.566406 98.214844 C 373.304688 91.613281 374.660156 77.878906 370.359375 69.949219 C 368.511719 66.527344 364.757812 62.679688 357.449219 63.683594 C 348.757812 64.886719 340.753906 74.820312 336.996094 83.539062 C 329.480469 100.960938 331.792969 126.914062 336.464844 145.402344 C 336.609375 145.960938 336.265625 146.53125 335.703125 146.667969 C 335.617188 146.695312 335.53125 146.703125 335.449219 146.703125" />
  <path fill="#010101" d="M 327.738281 312.136719 C 327.210938 312.136719 326.757812 311.738281 326.699219 311.199219 C 325.238281 297.667969 323.578125 282.332031 322.847656 267.097656 C 322.820312 266.519531 323.261719 266.027344 323.84375 266 C 324.503906 265.910156 324.910156 266.417969 324.941406 266.996094 C 325.671875 282.167969 327.324219 297.46875 328.78125 310.972656 C 328.84375 311.550781 328.429688 312.066406 327.855469 312.132812 C 327.816406 312.136719 327.78125 312.136719 327.738281 312.136719" />
  <path fill="#010101" d="M 304.441406 319.285156 C 303.945312 319.285156 303.503906 318.933594 303.414062 318.429688 L 302.972656 315.960938 C 300.144531 300.277344 297.46875 285.460938 295.976562 269.808594 C 295.921875 269.230469 296.34375 268.722656 296.921875 268.664062 C 297.507812 268.636719 298.011719 269.027344 298.066406 269.609375 C 299.550781 285.175781 302.214844 299.949219 305.035156 315.585938 L 305.476562 318.054688 C 305.582031 318.625 305.203125 319.171875 304.632812 319.273438 C 304.570312 319.28125 304.503906 319.285156 304.441406 319.285156" />
  <path fill="#FF9500" d="M 328.089844 310.5625 C 325.882812 310.445312 323.65625 310.609375 321.605469 311.523438 C 320.472656 312.023438 314.101562 316.324219 317.039062 318.0625 C 319.507812 319.523438 322.71875 316.519531 324.425781 315.082031 C 323.769531 316.046875 323.175781 317.023438 322.632812 318.054688 C 321.703125 319.820312 320.933594 325.109375 324.613281 322.453125 C 326.605469 321.019531 327.625 318.445312 328.261719 316.160156 C 328.523438 317.117188 328.882812 318.078125 329.242188 319.003906 C 330.511719 322.25 334.171875 323.832031 334.324219 318.953125 C 334.425781 315.480469 330.757812 312.742188 328.089844 310.5625" />
  <path fill="#FF9500" d="M 305.296875 317.726562 C 302.808594 316.558594 299.917969 315.550781 297.128906 315.734375 C 295.347656 315.851562 288.179688 319.589844 291.90625 321.496094 C 294.351562 322.746094 297.957031 321.035156 300.320312 320.027344 C 299.097656 321.421875 293.792969 327.699219 295.894531 329.699219 C 298.328125 332.015625 303.402344 324.683594 304.335938 322.695312 C 303.664062 325.726562 305.519531 334.726562 309.167969 328.339844 C 311.28125 324.632812 307.640625 320.6875 305.296875 317.726562" />
  <path fill="#010101" d="M 75.5 320.5 L 75.484375 320.5 C 74.910156 320.488281 74.445312 320.007812 74.453125 319.429688 C 74.523438 314.664062 74.699219 309.796875 74.863281 305.09375 C 75.191406 295.816406 75.539062 286.21875 75.113281 276.878906 C 75.089844 276.304688 75.535156 275.8125 76.113281 275.785156 C 76.75 275.683594 77.183594 276.210938 77.207031 276.785156 C 77.632812 286.210938 77.289062 295.847656 76.960938 305.167969 C 76.796875 309.863281 76.617188 314.71875 76.550781 319.464844 C 76.539062 320.039062 76.074219 320.5 75.5 320.5" />
  <path fill="#010101" d="M 100.328125 325.34375 C 99.796875 325.34375 99.339844 324.9375 99.285156 324.402344 C 98.339844 314.765625 98.332031 304.890625 98.320312 295.339844 C 98.320312 290.054688 98.3125 284.589844 98.148438 279.261719 C 98.132812 278.683594 98.582031 278.199219 99.164062 278.179688 L 99.195312 278.179688 C 99.757812 278.179688 100.222656 278.628906 100.242188 279.195312 C 100.410156 284.558594 100.417969 290.039062 100.421875 295.335938 C 100.429688 304.835938 100.441406 314.65625 101.375 324.195312 C 101.425781 324.769531 101.007812 325.285156 100.433594 325.339844 C 100.394531 325.339844 100.363281 325.34375 100.328125 325.34375" />
  <path fill="#FF9500" d="M 75.589844 318.511719 C 73.140625 317.300781 69.011719 316.523438 66.597656 318.203125 C 61.605469 321.675781 68.644531 323.304688 71.652344 322.472656 C 71.117188 323.695312 67.894531 333.09375 70.042969 333.597656 C 73.480469 334.40625 74.191406 327.476562 74.449219 325.25 C 74.765625 326.355469 75 327.488281 75.421875 328.558594 C 77.023438 332.589844 80.738281 333.597656 80.765625 328.042969 C 80.78125 324.511719 78.015625 321.066406 75.589844 318.511719" />
  <g clip-path="url(#a)">
    <path fill="#FF9500" d="M 101.132812 323.605469 C 98.894531 323.097656 96.574219 322.25 94.316406 323.175781 C 89.035156 325.355469 91.589844 330.246094 96.894531 328.148438 C 95.394531 329.898438 91.644531 334.441406 92.699219 337.019531 C 92.941406 337.613281 95.175781 336.503906 95.453125 336.34375 C 97.90625 334.929688 98.800781 332.648438 99.921875 330.253906 C 100 332.019531 99.84375 334.855469 101.015625 336.335938 C 103.367188 339.324219 105.308594 333.085938 105.375 331.5625 C 105.507812 328.308594 103.015625 326.121094 101.132812 323.605469" />
  </g>
  <path fill="#010101" d="M 80.070312 161.75 C 79.714844 161.75 79.363281 161.5625 79.171875 161.234375 C 78.875 160.734375 79.039062 160.09375 79.539062 159.796875 C 95.226562 150.535156 111.523438 153.132812 127.292969 155.644531 C 135.570312 156.964844 144.140625 158.324219 152.640625 158.027344 C 161.25 157.722656 169.753906 155.707031 177.972656 153.753906 C 186.984375 151.621094 196.296875 149.410156 205.84375 149.410156 C 205.871094 149.410156 205.890625 149.410156 205.914062 149.410156 C 215.078125 149.417969 224.152344 151.296875 232.929688 153.105469 C 241.949219 154.96875 251.277344 156.851562 260.53125 156.730469 C 267.433594 156.605469 274.304688 155.246094 280.941406 153.9375 C 287.246094 152.695312 293.769531 151.40625 300.386719 151.148438 C 314.175781 150.613281 328.078125 155.300781 338.625 159.457031 C 339.164062 159.671875 339.429688 160.277344 339.214844 160.816406 C 339.003906 161.359375 338.394531 161.625 337.855469 161.40625 C 327.5 157.328125 313.871094 152.707031 300.46875 153.242188 C 294.011719 153.492188 287.574219 154.765625 281.347656 155.996094 C 274.621094 157.324219 267.65625 158.695312 260.566406 158.824219 C 251.085938 158.972656 241.640625 157.046875 232.507812 155.15625 C 223.832031 153.367188 214.859375 151.511719 205.910156 151.503906 C 205.890625 151.503906 205.867188 151.503906 205.84375 151.503906 C 196.539062 151.503906 187.347656 153.6875 178.460938 155.792969 C 170.136719 157.769531 161.535156 159.804688 152.714844 160.125 C 144.011719 160.425781 135.335938 159.050781 126.960938 157.714844 C 110.851562 155.148438 95.636719 152.71875 80.605469 161.601562 C 80.4375 161.703125 80.253906 161.75 80.070312 161.75" />
  <path fill="#010101" d="M 78.140625 181.96875 C 77.785156 181.96875 77.4375 181.785156 77.242188 181.460938 C 76.949219 180.964844 77.105469 180.320312 77.601562 180.023438 C 100.449219 166.285156 116.253906 169.863281 134.554688 174.015625 C 143.046875 175.9375 151.820312 177.929688 162.175781 178.433594 C 174.34375 179.035156 186.226562 176.601562 197.71875 174.253906 C 207.769531 172.195312 218.160156 170.070312 228.765625 169.949219 C 238.929688 169.835938 248.613281 172.167969 258.058594 174.429688 C 266.691406 176.503906 275.617188 178.640625 284.730469 178.886719 C 291.703125 179.046875 297.769531 177.835938 303.632812 176.636719 C 314.015625 174.515625 323.828125 172.511719 336.945312 178.628906 C 337.472656 178.875 337.699219 179.5 337.449219 180.019531 C 337.203125 180.550781 336.578125 180.773438 336.058594 180.523438 C 323.570312 174.703125 314.085938 176.640625 304.050781 178.6875 C 298.070312 179.910156 291.886719 181.15625 284.671875 180.976562 C 275.34375 180.730469 266.308594 178.566406 257.574219 176.472656 C 248.25 174.238281 238.574219 171.9375 228.792969 172.042969 C 218.382812 172.160156 208.09375 174.269531 198.136719 176.300781 C 186.519531 178.679688 174.488281 181.148438 162.078125 180.523438 C 151.539062 180.011719 142.667969 178 134.089844 176.054688 C 116.238281 172.011719 100.8125 168.511719 78.683594 181.820312 C 78.515625 181.917969 78.324219 181.96875 78.140625 181.96875" />
  <path fill="#010101" d="M 275.144531 208.992188 C 266.519531 208.992188 257.625 206.089844 248.214844 203.023438 C 239.140625 200.066406 229.757812 197.007812 220.398438 196.636719 C 209.566406 196.167969 199.019531 198.921875 188.820312 201.554688 C 178.933594 204.113281 168.726562 206.722656 158.089844 206.597656 C 149.117188 206.460938 141.046875 204.058594 133.234375 201.730469 C 127.625 200.058594 121.820312 198.328125 115.710938 197.449219 C 103.226562 195.640625 86.957031 199.511719 74.242188 207.285156 C 73.757812 207.589844 73.109375 207.4375 72.804688 206.941406 C 72.5 206.449219 72.65625 205.804688 73.148438 205.5 C 86.25 197.484375 103.058594 193.507812 116.007812 195.375 C 122.273438 196.277344 128.152344 198.027344 133.835938 199.722656 C 141.859375 202.113281 149.4375 204.371094 158.121094 204.5 C 168.40625 204.628906 178.542969 202.046875 188.292969 199.527344 C 198.644531 196.855469 209.328125 194.109375 220.484375 194.535156 C 230.132812 194.925781 239.65625 198.03125 248.867188 201.03125 C 258.28125 204.101562 267.214844 206.941406 275.605469 206.890625 C 282.1875 206.808594 288.921875 205.675781 296.0625 204.476562 C 309.320312 202.242188 323.027344 199.945312 335.433594 204.960938 C 335.972656 205.179688 336.230469 205.792969 336.011719 206.324219 C 335.792969 206.863281 335.179688 207.117188 334.648438 206.90625 C 322.789062 202.101562 309.378906 204.363281 296.410156 206.542969 C 289.507812 207.703125 282.371094 208.902344 275.632812 208.988281 C 275.472656 208.992188 275.308594 208.992188 275.144531 208.992188" />
  <path fill="#010101" d="M 70.328125 232.179688 C 69.996094 232.179688 69.671875 232.027344 69.46875 231.734375 C 69.132812 231.261719 69.25 230.609375 69.722656 230.277344 C 89.691406 216.234375 106.34375 219.621094 123.980469 223.207031 C 132.5 224.941406 141.253906 226.75 150.9375 226.675781 C 162.253906 226.605469 173.464844 224.085938 184.3125 221.648438 C 196.058594 219.011719 208.183594 216.300781 220.601562 216.609375 C 227.683594 216.800781 234.21875 219.144531 240.539062 221.410156 C 243.085938 222.324219 245.722656 223.269531 248.347656 224.058594 C 259.851562 227.503906 270.066406 229.09375 281.457031 229.214844 C 281.617188 229.21875 281.78125 229.21875 281.941406 229.21875 C 288.726562 229.21875 295.929688 227.730469 302.910156 226.292969 C 313.894531 224.03125 325.265625 221.679688 335.875 224.78125 C 336.4375 224.945312 336.753906 225.523438 336.585938 226.078125 C 336.425781 226.636719 335.84375 226.957031 335.292969 226.792969 C 325.175781 223.84375 314.074219 226.128906 303.332031 228.347656 C 296.082031 229.84375 288.644531 231.414062 281.4375 231.308594 C 269.839844 231.1875 259.449219 229.570312 247.746094 226.0625 C 245.0625 225.261719 242.398438 224.304688 239.828125 223.382812 C 233.378906 221.070312 227.292969 218.886719 220.542969 218.707031 C 208.417969 218.382812 196.390625 221.085938 184.773438 223.691406 C 173.820312 226.152344 162.492188 228.699219 150.949219 228.769531 C 141.023438 228.761719 132.183594 227.015625 123.566406 225.261719 C 106.382812 221.765625 90.160156 218.46875 70.929688 231.988281 C 70.746094 232.117188 70.535156 232.179688 70.328125 232.179688" />
  <path fill="#010101" d="M 68.15625 262.144531 C 67.765625 262.144531 67.386719 261.921875 67.210938 261.550781 C 66.960938 261.023438 67.183594 260.398438 67.703125 260.152344 C 95.15625 247.109375 110.65625 248.109375 132.117188 249.476562 C 138.832031 249.90625 146.441406 250.394531 155.1875 250.496094 C 165.1875 250.613281 175.058594 248.765625 184.632812 246.980469 C 193.699219 245.28125 203.074219 243.53125 212.574219 243.433594 C 222.332031 243.351562 232.066406 245.289062 241.421875 247.195312 C 249.570312 248.851562 257.984375 250.566406 266.398438 250.875 C 275.992188 251.230469 286.246094 251.464844 296.867188 250.210938 C 299.835938 249.859375 302.800781 249.421875 305.769531 248.984375 C 315.976562 247.46875 326.535156 245.902344 337.113281 248.121094 C 337.679688 248.234375 338.046875 248.789062 337.925781 249.359375 C 337.808594 249.925781 337.253906 250.289062 336.6875 250.171875 C 326.476562 248.035156 316.101562 249.570312 306.078125 251.054688 C 303.089844 251.496094 300.101562 251.9375 297.109375 252.289062 C 286.347656 253.566406 276 253.320312 266.320312 252.96875 C 257.738281 252.652344 249.230469 250.921875 241.007812 249.246094 C 231.753906 247.371094 222.207031 245.488281 212.597656 245.527344 C 203.285156 245.628906 194 247.359375 185.019531 249.035156 C 175.347656 250.84375 165.335938 252.730469 155.164062 252.589844 C 146.363281 252.492188 138.722656 252 131.980469 251.566406 C 110.046875 250.164062 95.5625 249.234375 68.605469 262.042969 C 68.460938 262.113281 68.308594 262.144531 68.15625 262.144531" />
  <path fill="#FF9500" d="M 161.957031 48.222656 C 122.3125 40.242188 96.992188 42.695312 71.753906 52.539062 C 68.519531 46.285156 64.40625 42.171875 60.261719 37.144531 C 58.867188 35.449219 56.101562 36.394531 55.984375 38.582031 C 54.625 64.695312 50.308594 107.339844 61.707031 128.246094 C 76.460938 155.304688 108.441406 150.1875 133.933594 147.222656 C 145.289062 145.910156 158.875 146.363281 166.078125 136.132812 C 178.625 118.324219 177.910156 54.167969 178.496094 24.921875 C 178.542969 22.699219 175.722656 21.6875 174.359375 23.441406 C 168.691406 30.703125 163.886719 39.558594 161.957031 48.222656" />
  <path fill="#010101" d="M 144.953125 103.601562 C 144.539062 103.601562 144.144531 103.351562 143.980469 102.941406 C 143.765625 102.402344 144.027344 101.792969 144.566406 101.578125 C 168.679688 92 198.449219 85.960938 222.265625 85.816406 C 222.265625 85.816406 222.269531 85.816406 222.269531 85.816406 C 222.84375 85.816406 223.3125 86.277344 223.316406 86.859375 C 223.320312 87.4375 222.851562 87.90625 222.273438 87.910156 C 198.707031 88.054688 169.226562 94.039062 145.339844 103.527344 C 145.21875 103.578125 145.085938 103.601562 144.953125 103.601562" />
  <path fill="#010101" d="M 145.742188 107.925781 C 145.292969 107.925781 144.882812 107.644531 144.746094 107.191406 C 144.570312 106.640625 144.878906 106.054688 145.429688 105.875 C 175.273438 96.523438 201.382812 94.464844 225.226562 99.625 C 225.796875 99.742188 226.152344 100.300781 226.03125 100.871094 C 225.910156 101.433594 225.359375 101.792969 224.785156 101.671875 C 201.300781 96.601562 175.550781 98.628906 146.058594 107.882812 C 145.953125 107.914062 145.851562 107.925781 145.742188 107.925781" />
  <path fill="#010101" d="M 219.609375 116.542969 C 219.523438 116.542969 219.4375 116.53125 219.347656 116.507812 C 194.984375 110.144531 168.703125 112.175781 148.527344 114.664062 C 147.925781 114.746094 147.429688 114.320312 147.359375 113.75 C 147.285156 113.175781 147.695312 112.652344 148.269531 112.582031 C 168.636719 110.070312 195.171875 108.023438 219.878906 114.480469 C 220.4375 114.625 220.773438 115.199219 220.625 115.761719 C 220.5 116.230469 220.078125 116.542969 219.609375 116.542969" />
  <path fill="#010101" d="M 76.796875 109.878906 C 76.753906 109.878906 76.714844 109.875 76.671875 109.867188 C 71.769531 109.292969 66.757812 108.601562 61.914062 107.921875 C 41.988281 105.144531 21.378906 102.269531 1.398438 107.144531 C 0.851562 107.285156 0.273438 106.941406 0.132812 106.378906 C 0 105.816406 0.34375 105.246094 0.90625 105.113281 C 21.269531 100.140625 42.074219 103.042969 62.203125 105.847656 C 67.039062 106.519531 72.035156 107.21875 76.914062 107.785156 C 77.492188 107.851562 77.902344 108.375 77.835938 108.949219 C 77.773438 109.484375 77.320312 109.878906 76.796875 109.878906" />
  <path fill="#010101" d="M 6.660156 125.605469 C 6.242188 125.605469 5.847656 125.359375 5.683594 124.945312 C 5.472656 124.40625 5.730469 123.796875 6.269531 123.585938 C 27.765625 115.042969 53.628906 112.34375 77.222656 116.175781 C 77.792969 116.265625 78.179688 116.804688 78.085938 117.375 C 77.996094 117.945312 77.449219 118.347656 76.886719 118.242188 C 53.65625 114.46875 28.199219 117.128906 7.042969 125.53125 C 6.917969 125.582031 6.789062 125.605469 6.660156 125.605469" />
  <path fill="#010101" d="M 14.714844 152.035156 C 14.414062 152.035156 14.113281 151.902344 13.902344 151.648438 C 13.535156 151.203125 13.601562 150.542969 14.050781 150.171875 C 30.226562 136.917969 54.535156 127.617188 80.742188 124.671875 C 81.289062 124.597656 81.835938 125.023438 81.902344 125.601562 C 81.960938 126.175781 81.550781 126.695312 80.976562 126.761719 C 55.160156 129.65625 31.25 138.78125 15.382812 151.796875 C 15.183594 151.957031 14.949219 152.035156 14.714844 152.035156" />
  <path fill="#010101" d="M 147.921875 72.527344 C 143.699219 72.527344 139.292969 71.320312 135.222656 68.894531 C 134.722656 68.597656 134.558594 67.953125 134.855469 67.457031 C 135.152344 66.957031 135.800781 66.800781 136.292969 67.09375 C 143.84375 71.585938 152.601562 71.535156 158.597656 66.972656 C 159.054688 66.621094 159.714844 66.707031 160.066406 67.167969 C 160.421875 67.625 160.328125 68.289062 159.871094 68.636719 C 156.46875 71.226562 152.292969 72.527344 147.921875 72.527344" />
  <path fill="#010101" d="M 80.511719 76.089844 C 76.265625 76.089844 72.203125 74.4375 68.550781 69.601562 C 68.207031 69.140625 68.296875 68.484375 68.757812 68.136719 C 69.226562 67.789062 69.875 67.875 70.226562 68.339844 C 76.949219 77.238281 84.9375 73.945312 94.191406 70.109375 L 95.074219 69.75 C 95.613281 69.527344 96.21875 69.78125 96.441406 70.316406 C 96.664062 70.851562 96.410156 71.464844 95.871094 71.683594 L 94.992188 72.046875 C 90.148438 74.050781 85.21875 76.089844 80.511719 76.089844" />
  <path fill="#010101" d="M 114.292969 85.957031 C 118.015625 87.152344 121.46875 79.144531 123.238281 73.859375 C 123.789062 72.222656 122.382812 70.605469 120.679688 70.925781 C 117.769531 71.46875 114.480469 72.101562 111.574219 72.484375 C 109.734375 72.730469 108.523438 74.527344 109.023438 76.3125 C 110.039062 79.941406 111.890625 85.191406 114.292969 85.957031" />
  <path fill="#010101" d="M 117.433594 115.1875 C 116.882812 115.1875 116.417969 114.757812 116.386719 114.195312 C 116.203125 110.820312 115.707031 107.277344 115.226562 103.847656 C 114.382812 97.804688 113.511719 91.5625 114.160156 85.53125 C 114.222656 84.960938 114.746094 84.546875 115.316406 84.601562 C 115.890625 84.664062 116.304688 85.183594 116.246094 85.757812 C 115.625 91.527344 116.480469 97.640625 117.304688 103.554688 C 117.789062 107.03125 118.289062 110.621094 118.480469 114.082031 C 118.511719 114.660156 118.070312 115.152344 117.488281 115.183594 C 117.472656 115.1875 117.453125 115.1875 117.433594 115.1875" />
</svg>